<?xml version="1.0" encoding="utf-8" standalone="no"?>
<!DOCTYPE svg PUBLIC "-//W3C//DTD SVG 1.1//EN"
  "http://www.w3.org/Graphics/SVG/1.1/DTD/svg11.dtd">
<!-- Created with matplotlib (https://matplotlib.org/) -->
<svg height="345.6pt" version="1.1" viewBox="0 0 460.8 345.6" width="460.8pt" xmlns="http://www.w3.org/2000/svg" xmlns:xlink="http://www.w3.org/1999/xlink">
 <defs>
  <style type="text/css">
*{stroke-linecap:butt;stroke-linejoin:round;}
  </style>
 </defs>
 <g id="figure_1">
  <g id="patch_1">
   <path d="M 0 345.6 
L 460.8 345.6 
L 460.8 0 
L 0 0 
z
" style="fill:#ffffff;"/>
  </g>
  <g id="axes_1">
   <g id="patch_2">
    <path d="M 57.6 307.584 
L 414.72 307.584 
L 414.72 41.472 
L 57.6 41.472 
z
" style="fill:#ffffff;"/>
   </g>
   <g id="matplotlib.axis_1">
    <g id="xtick_1">
     <g id="line2d_1">
      <path clip-path="url(#p7fa180af99)" d="M 73.832727 307.584 
L 73.832727 41.472 
" style="fill:none;stroke:#cccccc;stroke-linecap:round;stroke-width:0.8;"/>
     </g>
     <g id="line2d_2"/>
     <g id="text_1">
      <!-- 0 -->
      <defs>
       <path d="M 4.15625 35.296875 
Q 4.15625 48 6.765625 55.734375 
Q 9.375 63.484375 14.515625 67.671875 
Q 19.671875 71.875 27.484375 71.875 
Q 33.25 71.875 37.59375 69.546875 
Q 41.9375 67.234375 44.765625 62.859375 
Q 47.609375 58.5 49.21875 52.21875 
Q 50.828125 45.953125 50.828125 35.296875 
Q 50.828125 22.703125 48.234375 14.96875 
Q 45.65625 7.234375 40.5 3 
Q 35.359375 -1.21875 27.484375 -1.21875 
Q 17.140625 -1.21875 11.234375 6.203125 
Q 4.15625 15.140625 4.15625 35.296875 
z
M 13.1875 35.296875 
Q 13.1875 17.671875 17.3125 11.828125 
Q 21.4375 6 27.484375 6 
Q 33.546875 6 37.671875 11.859375 
Q 41.796875 17.71875 41.796875 35.296875 
Q 41.796875 52.984375 37.671875 58.78125 
Q 33.546875 64.59375 27.390625 64.59375 
Q 21.34375 64.59375 17.71875 59.46875 
Q 13.1875 52.9375 13.1875 35.296875 
z
" id="ArialMT-48"/>
      </defs>
      <g style="fill:#262626;" transform="translate(71.052259 318.241812)scale(0.1 -0.1)">
       <use xlink:href="#ArialMT-48"/>
      </g>
     </g>
    </g>
    <g id="xtick_2">
     <g id="line2d_3">
      <path clip-path="url(#p7fa180af99)" d="M 114.434847 307.584 
L 114.434847 41.472 
" style="fill:none;stroke:#cccccc;stroke-linecap:round;stroke-width:0.8;"/>
     </g>
     <g id="line2d_4"/>
     <g id="text_2">
      <!-- 2500 -->
      <defs>
       <path d="M 50.34375 8.453125 
L 50.34375 0 
L 3.03125 0 
Q 2.9375 3.171875 4.046875 6.109375 
Q 5.859375 10.9375 9.828125 15.625 
Q 13.8125 20.3125 21.34375 26.46875 
Q 33.015625 36.03125 37.109375 41.625 
Q 41.21875 47.21875 41.21875 52.203125 
Q 41.21875 57.421875 37.46875 61 
Q 33.734375 64.59375 27.734375 64.59375 
Q 21.390625 64.59375 17.578125 60.78125 
Q 13.765625 56.984375 13.71875 50.25 
L 4.6875 51.171875 
Q 5.609375 61.28125 11.65625 66.578125 
Q 17.71875 71.875 27.9375 71.875 
Q 38.234375 71.875 44.234375 66.15625 
Q 50.25 60.453125 50.25 52 
Q 50.25 47.703125 48.484375 43.546875 
Q 46.734375 39.40625 42.65625 34.8125 
Q 38.578125 30.21875 29.109375 22.21875 
Q 21.1875 15.578125 18.9375 13.203125 
Q 16.703125 10.84375 15.234375 8.453125 
z
" id="ArialMT-50"/>
       <path d="M 4.15625 18.75 
L 13.375 19.53125 
Q 14.40625 12.796875 18.140625 9.390625 
Q 21.875 6 27.15625 6 
Q 33.5 6 37.890625 10.78125 
Q 42.28125 15.578125 42.28125 23.484375 
Q 42.28125 31 38.0625 35.34375 
Q 33.84375 39.703125 27 39.703125 
Q 22.75 39.703125 19.328125 37.765625 
Q 15.921875 35.84375 13.96875 32.765625 
L 5.71875 33.84375 
L 12.640625 70.609375 
L 48.25 70.609375 
L 48.25 62.203125 
L 19.671875 62.203125 
L 15.828125 42.96875 
Q 22.265625 47.46875 29.34375 47.46875 
Q 38.71875 47.46875 45.15625 40.96875 
Q 51.609375 34.46875 51.609375 24.265625 
Q 51.609375 14.546875 45.953125 7.46875 
Q 39.0625 -1.21875 27.15625 -1.21875 
Q 17.390625 -1.21875 11.203125 4.25 
Q 5.03125 9.71875 4.15625 18.75 
z
" id="ArialMT-53"/>
      </defs>
      <g style="fill:#262626;" transform="translate(103.312972 318.241812)scale(0.1 -0.1)">
       <use xlink:href="#ArialMT-50"/>
       <use x="55.615234" xlink:href="#ArialMT-53"/>
       <use x="111.230469" xlink:href="#ArialMT-48"/>
       <use x="166.845703" xlink:href="#ArialMT-48"/>
      </g>
     </g>
    </g>
    <g id="xtick_3">
     <g id="line2d_5">
      <path clip-path="url(#p7fa180af99)" d="M 155.036966 307.584 
L 155.036966 41.472 
" style="fill:none;stroke:#cccccc;stroke-linecap:round;stroke-width:0.8;"/>
     </g>
     <g id="line2d_6"/>
     <g id="text_3">
      <!-- 5000 -->
      <g style="fill:#262626;" transform="translate(143.915091 318.241812)scale(0.1 -0.1)">
       <use xlink:href="#ArialMT-53"/>
       <use x="55.615234" xlink:href="#ArialMT-48"/>
       <use x="111.230469" xlink:href="#ArialMT-48"/>
       <use x="166.845703" xlink:href="#ArialMT-48"/>
      </g>
     </g>
    </g>
    <g id="xtick_4">
     <g id="line2d_7">
      <path clip-path="url(#p7fa180af99)" d="M 195.639085 307.584 
L 195.639085 41.472 
" style="fill:none;stroke:#cccccc;stroke-linecap:round;stroke-width:0.8;"/>
     </g>
     <g id="line2d_8"/>
     <g id="text_4">
      <!-- 7500 -->
      <defs>
       <path d="M 4.734375 62.203125 
L 4.734375 70.65625 
L 51.078125 70.65625 
L 51.078125 63.8125 
Q 44.234375 56.546875 37.515625 44.484375 
Q 30.8125 32.421875 27.15625 19.671875 
Q 24.515625 10.6875 23.78125 0 
L 14.75 0 
Q 14.890625 8.453125 18.0625 20.40625 
Q 21.234375 32.375 27.171875 43.484375 
Q 33.109375 54.59375 39.796875 62.203125 
z
" id="ArialMT-55"/>
      </defs>
      <g style="fill:#262626;" transform="translate(184.51721 318.241812)scale(0.1 -0.1)">
       <use xlink:href="#ArialMT-55"/>
       <use x="55.615234" xlink:href="#ArialMT-53"/>
       <use x="111.230469" xlink:href="#ArialMT-48"/>
       <use x="166.845703" xlink:href="#ArialMT-48"/>
      </g>
     </g>
    </g>
    <g id="xtick_5">
     <g id="line2d_9">
      <path clip-path="url(#p7fa180af99)" d="M 236.241204 307.584 
L 236.241204 41.472 
" style="fill:none;stroke:#cccccc;stroke-linecap:round;stroke-width:0.8;"/>
     </g>
     <g id="line2d_10"/>
     <g id="text_5">
      <!-- 10000 -->
      <defs>
       <path d="M 37.25 0 
L 28.46875 0 
L 28.46875 56 
Q 25.296875 52.984375 20.140625 49.953125 
Q 14.984375 46.921875 10.890625 45.40625 
L 10.890625 53.90625 
Q 18.265625 57.375 23.78125 62.296875 
Q 29.296875 67.234375 31.59375 71.875 
L 37.25 71.875 
z
" id="ArialMT-49"/>
      </defs>
      <g style="fill:#262626;" transform="translate(222.33886 318.241812)scale(0.1 -0.1)">
       <use xlink:href="#ArialMT-49"/>
       <use x="55.615234" xlink:href="#ArialMT-48"/>
       <use x="111.230469" xlink:href="#ArialMT-48"/>
       <use x="166.845703" xlink:href="#ArialMT-48"/>
       <use x="222.460938" xlink:href="#ArialMT-48"/>
      </g>
     </g>
    </g>
    <g id="xtick_6">
     <g id="line2d_11">
      <path clip-path="url(#p7fa180af99)" d="M 276.843323 307.584 
L 276.843323 41.472 
" style="fill:none;stroke:#cccccc;stroke-linecap:round;stroke-width:0.8;"/>
     </g>
     <g id="line2d_12"/>
     <g id="text_6">
      <!-- 12500 -->
      <g style="fill:#262626;" transform="translate(262.94098 318.241812)scale(0.1 -0.1)">
       <use xlink:href="#ArialMT-49"/>
       <use x="55.615234" xlink:href="#ArialMT-50"/>
       <use x="111.230469" xlink:href="#ArialMT-53"/>
       <use x="166.845703" xlink:href="#ArialMT-48"/>
       <use x="222.460938" xlink:href="#ArialMT-48"/>
      </g>
     </g>
    </g>
    <g id="xtick_7">
     <g id="line2d_13">
      <path clip-path="url(#p7fa180af99)" d="M 317.445443 307.584 
L 317.445443 41.472 
" style="fill:none;stroke:#cccccc;stroke-linecap:round;stroke-width:0.8;"/>
     </g>
     <g id="line2d_14"/>
     <g id="text_7">
      <!-- 15000 -->
      <g style="fill:#262626;" transform="translate(303.543099 318.241812)scale(0.1 -0.1)">
       <use xlink:href="#ArialMT-49"/>
       <use x="55.615234" xlink:href="#ArialMT-53"/>
       <use x="111.230469" xlink:href="#ArialMT-48"/>
       <use x="166.845703" xlink:href="#ArialMT-48"/>
       <use x="222.460938" xlink:href="#ArialMT-48"/>
      </g>
     </g>
    </g>
    <g id="xtick_8">
     <g id="line2d_15">
      <path clip-path="url(#p7fa180af99)" d="M 358.047562 307.584 
L 358.047562 41.472 
" style="fill:none;stroke:#cccccc;stroke-linecap:round;stroke-width:0.8;"/>
     </g>
     <g id="line2d_16"/>
     <g id="text_8">
      <!-- 17500 -->
      <g style="fill:#262626;" transform="translate(344.145218 318.241812)scale(0.1 -0.1)">
       <use xlink:href="#ArialMT-49"/>
       <use x="55.615234" xlink:href="#ArialMT-55"/>
       <use x="111.230469" xlink:href="#ArialMT-53"/>
       <use x="166.845703" xlink:href="#ArialMT-48"/>
       <use x="222.460938" xlink:href="#ArialMT-48"/>
      </g>
     </g>
    </g>
    <g id="xtick_9">
     <g id="line2d_17">
      <path clip-path="url(#p7fa180af99)" d="M 398.649681 307.584 
L 398.649681 41.472 
" style="fill:none;stroke:#cccccc;stroke-linecap:round;stroke-width:0.8;"/>
     </g>
     <g id="line2d_18"/>
     <g id="text_9">
      <!-- 20000 -->
      <g style="fill:#262626;" transform="translate(384.747337 318.241812)scale(0.1 -0.1)">
       <use xlink:href="#ArialMT-50"/>
       <use x="55.615234" xlink:href="#ArialMT-48"/>
       <use x="111.230469" xlink:href="#ArialMT-48"/>
       <use x="166.845703" xlink:href="#ArialMT-48"/>
       <use x="222.460938" xlink:href="#ArialMT-48"/>
      </g>
     </g>
    </g>
    <g id="text_10">
     <!-- SARSA(Lambda) - episodes -->
     <defs>
      <path d="M 4.5 23 
L 13.421875 23.78125 
Q 14.0625 18.40625 16.375 14.96875 
Q 18.703125 11.53125 23.578125 9.40625 
Q 28.46875 7.28125 34.578125 7.28125 
Q 39.984375 7.28125 44.140625 8.890625 
Q 48.296875 10.5 50.3125 13.296875 
Q 52.34375 16.109375 52.34375 19.4375 
Q 52.34375 22.796875 50.390625 25.3125 
Q 48.4375 27.828125 43.953125 29.546875 
Q 41.0625 30.671875 31.203125 33.03125 
Q 21.34375 35.40625 17.390625 37.5 
Q 12.25 40.1875 9.734375 44.15625 
Q 7.234375 48.140625 7.234375 53.078125 
Q 7.234375 58.5 10.296875 63.203125 
Q 13.375 67.921875 19.28125 70.359375 
Q 25.203125 72.796875 32.421875 72.796875 
Q 40.375 72.796875 46.453125 70.234375 
Q 52.546875 67.671875 55.8125 62.6875 
Q 59.078125 57.71875 59.328125 51.421875 
L 50.25 50.734375 
Q 49.515625 57.515625 45.28125 60.984375 
Q 41.0625 64.453125 32.8125 64.453125 
Q 24.21875 64.453125 20.28125 61.296875 
Q 16.359375 58.15625 16.359375 53.71875 
Q 16.359375 49.859375 19.140625 47.359375 
Q 21.875 44.875 33.421875 42.265625 
Q 44.96875 39.65625 49.265625 37.703125 
Q 55.515625 34.8125 58.484375 30.390625 
Q 61.46875 25.984375 61.46875 20.21875 
Q 61.46875 14.5 58.203125 9.4375 
Q 54.9375 4.390625 48.796875 1.578125 
Q 42.671875 -1.21875 35.015625 -1.21875 
Q 25.296875 -1.21875 18.71875 1.609375 
Q 12.15625 4.4375 8.421875 10.125 
Q 4.6875 15.828125 4.5 23 
z
" id="ArialMT-83"/>
      <path d="M -0.140625 0 
L 27.34375 71.578125 
L 37.546875 71.578125 
L 66.84375 0 
L 56.0625 0 
L 47.703125 21.6875 
L 17.78125 21.6875 
L 9.90625 0 
z
M 20.515625 29.390625 
L 44.78125 29.390625 
L 37.3125 49.21875 
Q 33.890625 58.25 32.234375 64.0625 
Q 30.859375 57.171875 28.375 50.390625 
z
" id="ArialMT-65"/>
      <path d="M 7.859375 0 
L 7.859375 71.578125 
L 39.59375 71.578125 
Q 49.171875 71.578125 54.140625 69.640625 
Q 59.125 67.71875 62.109375 62.828125 
Q 65.09375 57.953125 65.09375 52.046875 
Q 65.09375 44.4375 60.15625 39.203125 
Q 55.21875 33.984375 44.921875 32.5625 
Q 48.6875 30.765625 50.640625 29 
Q 54.78125 25.203125 58.5 19.484375 
L 70.953125 0 
L 59.03125 0 
L 49.5625 14.890625 
Q 45.40625 21.34375 42.71875 24.75 
Q 40.046875 28.171875 37.921875 29.53125 
Q 35.796875 30.90625 33.59375 31.453125 
Q 31.984375 31.78125 28.328125 31.78125 
L 17.328125 31.78125 
L 17.328125 0 
z
M 17.328125 39.984375 
L 37.703125 39.984375 
Q 44.1875 39.984375 47.84375 41.328125 
Q 51.515625 42.671875 53.421875 45.625 
Q 55.328125 48.578125 55.328125 52.046875 
Q 55.328125 57.125 51.640625 60.390625 
Q 47.953125 63.671875 39.984375 63.671875 
L 17.328125 63.671875 
z
" id="ArialMT-82"/>
      <path d="M 23.390625 -21.046875 
Q 16.109375 -11.859375 11.078125 0.4375 
Q 6.0625 12.75 6.0625 25.921875 
Q 6.0625 37.546875 9.8125 48.1875 
Q 14.203125 60.546875 23.390625 72.796875 
L 29.6875 72.796875 
Q 23.78125 62.640625 21.875 58.296875 
Q 18.890625 51.5625 17.1875 44.234375 
Q 15.09375 35.109375 15.09375 25.875 
Q 15.09375 2.390625 29.6875 -21.046875 
z
" id="ArialMT-40"/>
      <path d="M 7.328125 0 
L 7.328125 71.578125 
L 16.796875 71.578125 
L 16.796875 8.453125 
L 52.046875 8.453125 
L 52.046875 0 
z
" id="ArialMT-76"/>
      <path d="M 40.4375 6.390625 
Q 35.546875 2.25 31.03125 0.53125 
Q 26.515625 -1.171875 21.34375 -1.171875 
Q 12.796875 -1.171875 8.203125 3 
Q 3.609375 7.171875 3.609375 13.671875 
Q 3.609375 17.484375 5.34375 20.625 
Q 7.078125 23.78125 9.890625 25.6875 
Q 12.703125 27.59375 16.21875 28.5625 
Q 18.796875 29.25 24.03125 29.890625 
Q 34.671875 31.15625 39.703125 32.90625 
Q 39.75 34.71875 39.75 35.203125 
Q 39.75 40.578125 37.25 42.78125 
Q 33.890625 45.75 27.25 45.75 
Q 21.046875 45.75 18.09375 43.578125 
Q 15.140625 41.40625 13.71875 35.890625 
L 5.125 37.0625 
Q 6.296875 42.578125 8.984375 45.96875 
Q 11.671875 49.359375 16.75 51.1875 
Q 21.828125 53.03125 28.515625 53.03125 
Q 35.15625 53.03125 39.296875 51.46875 
Q 43.453125 49.90625 45.40625 47.53125 
Q 47.359375 45.171875 48.140625 41.546875 
Q 48.578125 39.3125 48.578125 33.453125 
L 48.578125 21.734375 
Q 48.578125 9.46875 49.140625 6.21875 
Q 49.703125 2.984375 51.375 0 
L 42.1875 0 
Q 40.828125 2.734375 40.4375 6.390625 
z
M 39.703125 26.03125 
Q 34.90625 24.078125 25.34375 22.703125 
Q 19.921875 21.921875 17.671875 20.9375 
Q 15.4375 19.96875 14.203125 18.09375 
Q 12.984375 16.21875 12.984375 13.921875 
Q 12.984375 10.40625 15.640625 8.0625 
Q 18.3125 5.71875 23.4375 5.71875 
Q 28.515625 5.71875 32.46875 7.9375 
Q 36.421875 10.15625 38.28125 14.015625 
Q 39.703125 17 39.703125 22.796875 
z
" id="ArialMT-97"/>
      <path d="M 6.59375 0 
L 6.59375 51.859375 
L 14.453125 51.859375 
L 14.453125 44.578125 
Q 16.890625 48.390625 20.9375 50.703125 
Q 25 53.03125 30.171875 53.03125 
Q 35.9375 53.03125 39.625 50.640625 
Q 43.3125 48.25 44.828125 43.953125 
Q 50.984375 53.03125 60.84375 53.03125 
Q 68.5625 53.03125 72.703125 48.75 
Q 76.859375 44.484375 76.859375 35.59375 
L 76.859375 0 
L 68.109375 0 
L 68.109375 32.671875 
Q 68.109375 37.9375 67.25 40.25 
Q 66.40625 42.578125 64.15625 43.984375 
Q 61.921875 45.40625 58.890625 45.40625 
Q 53.421875 45.40625 49.796875 41.765625 
Q 46.1875 38.140625 46.1875 30.125 
L 46.1875 0 
L 37.40625 0 
L 37.40625 33.6875 
Q 37.40625 39.546875 35.25 42.46875 
Q 33.109375 45.40625 28.21875 45.40625 
Q 24.515625 45.40625 21.359375 43.453125 
Q 18.21875 41.5 16.796875 37.734375 
Q 15.375 33.984375 15.375 26.90625 
L 15.375 0 
z
" id="ArialMT-109"/>
      <path d="M 14.703125 0 
L 6.546875 0 
L 6.546875 71.578125 
L 15.328125 71.578125 
L 15.328125 46.046875 
Q 20.90625 53.03125 29.546875 53.03125 
Q 34.328125 53.03125 38.59375 51.09375 
Q 42.875 49.171875 45.625 45.671875 
Q 48.390625 42.1875 49.953125 37.25 
Q 51.515625 32.328125 51.515625 26.703125 
Q 51.515625 13.375 44.921875 6.09375 
Q 38.328125 -1.171875 29.109375 -1.171875 
Q 19.921875 -1.171875 14.703125 6.5 
z
M 14.59375 26.3125 
Q 14.59375 17 17.140625 12.84375 
Q 21.296875 6.0625 28.375 6.0625 
Q 34.125 6.0625 38.328125 11.0625 
Q 42.53125 16.0625 42.53125 25.984375 
Q 42.53125 36.140625 38.5 40.96875 
Q 34.46875 45.796875 28.765625 45.796875 
Q 23 45.796875 18.796875 40.796875 
Q 14.59375 35.796875 14.59375 26.3125 
z
" id="ArialMT-98"/>
      <path d="M 40.234375 0 
L 40.234375 6.546875 
Q 35.296875 -1.171875 25.734375 -1.171875 
Q 19.53125 -1.171875 14.328125 2.25 
Q 9.125 5.671875 6.265625 11.796875 
Q 3.421875 17.921875 3.421875 25.875 
Q 3.421875 33.640625 6 39.96875 
Q 8.59375 46.296875 13.765625 49.65625 
Q 18.953125 53.03125 25.34375 53.03125 
Q 30.03125 53.03125 33.6875 51.046875 
Q 37.359375 49.078125 39.65625 45.90625 
L 39.65625 71.578125 
L 48.390625 71.578125 
L 48.390625 0 
z
M 12.453125 25.875 
Q 12.453125 15.921875 16.640625 10.984375 
Q 20.84375 6.0625 26.5625 6.0625 
Q 32.328125 6.0625 36.34375 10.765625 
Q 40.375 15.484375 40.375 25.140625 
Q 40.375 35.796875 36.265625 40.765625 
Q 32.171875 45.75 26.171875 45.75 
Q 20.3125 45.75 16.375 40.96875 
Q 12.453125 36.1875 12.453125 25.875 
z
" id="ArialMT-100"/>
      <path d="M 12.359375 -21.046875 
L 6.0625 -21.046875 
Q 20.65625 2.390625 20.65625 25.875 
Q 20.65625 35.0625 18.5625 44.09375 
Q 16.890625 51.421875 13.921875 58.15625 
Q 12.015625 62.546875 6.0625 72.796875 
L 12.359375 72.796875 
Q 21.53125 60.546875 25.921875 48.1875 
Q 29.6875 37.546875 29.6875 25.921875 
Q 29.6875 12.75 24.625 0.4375 
Q 19.578125 -11.859375 12.359375 -21.046875 
z
" id="ArialMT-41"/>
      <path id="ArialMT-32"/>
      <path d="M 3.171875 21.484375 
L 3.171875 30.328125 
L 30.171875 30.328125 
L 30.171875 21.484375 
z
" id="ArialMT-45"/>
      <path d="M 42.09375 16.703125 
L 51.171875 15.578125 
Q 49.03125 7.625 43.21875 3.21875 
Q 37.40625 -1.171875 28.375 -1.171875 
Q 17 -1.171875 10.328125 5.828125 
Q 3.65625 12.84375 3.65625 25.484375 
Q 3.65625 38.578125 10.390625 45.796875 
Q 17.140625 53.03125 27.875 53.03125 
Q 38.28125 53.03125 44.875 45.953125 
Q 51.46875 38.875 51.46875 26.03125 
Q 51.46875 25.25 51.421875 23.6875 
L 12.75 23.6875 
Q 13.234375 15.140625 17.578125 10.59375 
Q 21.921875 6.0625 28.421875 6.0625 
Q 33.25 6.0625 36.671875 8.59375 
Q 40.09375 11.140625 42.09375 16.703125 
z
M 13.234375 30.90625 
L 42.1875 30.90625 
Q 41.609375 37.453125 38.875 40.71875 
Q 34.671875 45.796875 27.984375 45.796875 
Q 21.921875 45.796875 17.796875 41.75 
Q 13.671875 37.703125 13.234375 30.90625 
z
" id="ArialMT-101"/>
      <path d="M 6.59375 -19.875 
L 6.59375 51.859375 
L 14.59375 51.859375 
L 14.59375 45.125 
Q 17.4375 49.078125 21 51.046875 
Q 24.5625 53.03125 29.640625 53.03125 
Q 36.28125 53.03125 41.359375 49.609375 
Q 46.4375 46.1875 49.015625 39.953125 
Q 51.609375 33.734375 51.609375 26.3125 
Q 51.609375 18.359375 48.75 11.984375 
Q 45.90625 5.609375 40.453125 2.21875 
Q 35.015625 -1.171875 29 -1.171875 
Q 24.609375 -1.171875 21.109375 0.6875 
Q 17.625 2.546875 15.375 5.375 
L 15.375 -19.875 
z
M 14.546875 25.640625 
Q 14.546875 15.625 18.59375 10.84375 
Q 22.65625 6.0625 28.421875 6.0625 
Q 34.28125 6.0625 38.453125 11.015625 
Q 42.625 15.96875 42.625 26.375 
Q 42.625 36.28125 38.546875 41.203125 
Q 34.46875 46.140625 28.8125 46.140625 
Q 23.1875 46.140625 18.859375 40.890625 
Q 14.546875 35.640625 14.546875 25.640625 
z
" id="ArialMT-112"/>
      <path d="M 6.640625 61.46875 
L 6.640625 71.578125 
L 15.4375 71.578125 
L 15.4375 61.46875 
z
M 6.640625 0 
L 6.640625 51.859375 
L 15.4375 51.859375 
L 15.4375 0 
z
" id="ArialMT-105"/>
      <path d="M 3.078125 15.484375 
L 11.765625 16.84375 
Q 12.5 11.625 15.84375 8.84375 
Q 19.1875 6.0625 25.203125 6.0625 
Q 31.25 6.0625 34.171875 8.515625 
Q 37.109375 10.984375 37.109375 14.3125 
Q 37.109375 17.28125 34.515625 19 
Q 32.71875 20.171875 25.53125 21.96875 
Q 15.875 24.421875 12.140625 26.203125 
Q 8.40625 27.984375 6.46875 31.125 
Q 4.546875 34.28125 4.546875 38.09375 
Q 4.546875 41.546875 6.125 44.5 
Q 7.71875 47.46875 10.453125 49.421875 
Q 12.5 50.921875 16.03125 51.96875 
Q 19.578125 53.03125 23.640625 53.03125 
Q 29.734375 53.03125 34.34375 51.265625 
Q 38.96875 49.515625 41.15625 46.5 
Q 43.359375 43.5 44.1875 38.484375 
L 35.59375 37.3125 
Q 35.015625 41.3125 32.203125 43.546875 
Q 29.390625 45.796875 24.265625 45.796875 
Q 18.21875 45.796875 15.625 43.796875 
Q 13.03125 41.796875 13.03125 39.109375 
Q 13.03125 37.40625 14.109375 36.03125 
Q 15.1875 34.625 17.484375 33.6875 
Q 18.796875 33.203125 25.25 31.453125 
Q 34.578125 28.953125 38.25 27.359375 
Q 41.9375 25.78125 44.03125 22.75 
Q 46.140625 19.734375 46.140625 15.234375 
Q 46.140625 10.84375 43.578125 6.953125 
Q 41.015625 3.078125 36.171875 0.953125 
Q 31.34375 -1.171875 25.25 -1.171875 
Q 15.140625 -1.171875 9.84375 3.03125 
Q 4.546875 7.234375 3.078125 15.484375 
z
" id="ArialMT-115"/>
      <path d="M 3.328125 25.921875 
Q 3.328125 40.328125 11.328125 47.265625 
Q 18.015625 53.03125 27.640625 53.03125 
Q 38.328125 53.03125 45.109375 46.015625 
Q 51.90625 39.015625 51.90625 26.65625 
Q 51.90625 16.65625 48.90625 10.90625 
Q 45.90625 5.171875 40.15625 2 
Q 34.421875 -1.171875 27.640625 -1.171875 
Q 16.75 -1.171875 10.03125 5.8125 
Q 3.328125 12.796875 3.328125 25.921875 
z
M 12.359375 25.921875 
Q 12.359375 15.96875 16.703125 11.015625 
Q 21.046875 6.0625 27.640625 6.0625 
Q 34.1875 6.0625 38.53125 11.03125 
Q 42.875 16.015625 42.875 26.21875 
Q 42.875 35.84375 38.5 40.796875 
Q 34.125 45.75 27.640625 45.75 
Q 21.046875 45.75 16.703125 40.8125 
Q 12.359375 35.890625 12.359375 25.921875 
z
" id="ArialMT-111"/>
     </defs>
     <g style="fill:#262626;" transform="translate(173.355312 331.509)scale(0.1 -0.1)">
      <use xlink:href="#ArialMT-83"/>
      <use x="66.699219" xlink:href="#ArialMT-65"/>
      <use x="133.398438" xlink:href="#ArialMT-82"/>
      <use x="205.615234" xlink:href="#ArialMT-83"/>
      <use x="272.314453" xlink:href="#ArialMT-65"/>
      <use x="339.013672" xlink:href="#ArialMT-40"/>
      <use x="372.314453" xlink:href="#ArialMT-76"/>
      <use x="427.929688" xlink:href="#ArialMT-97"/>
      <use x="483.544922" xlink:href="#ArialMT-109"/>
      <use x="566.845703" xlink:href="#ArialMT-98"/>
      <use x="622.460938" xlink:href="#ArialMT-100"/>
      <use x="678.076172" xlink:href="#ArialMT-97"/>
      <use x="733.691406" xlink:href="#ArialMT-41"/>
      <use x="766.992188" xlink:href="#ArialMT-32"/>
      <use x="794.775391" xlink:href="#ArialMT-45"/>
      <use x="828.076172" xlink:href="#ArialMT-32"/>
      <use x="855.859375" xlink:href="#ArialMT-101"/>
      <use x="911.474609" xlink:href="#ArialMT-112"/>
      <use x="967.089844" xlink:href="#ArialMT-105"/>
      <use x="989.306641" xlink:href="#ArialMT-115"/>
      <use x="1039.306641" xlink:href="#ArialMT-111"/>
      <use x="1094.921875" xlink:href="#ArialMT-100"/>
      <use x="1150.537109" xlink:href="#ArialMT-101"/>
      <use x="1206.152344" xlink:href="#ArialMT-115"/>
     </g>
    </g>
   </g>
   <g id="matplotlib.axis_2">
    <g id="ytick_1">
     <g id="line2d_19">
      <path clip-path="url(#p7fa180af99)" d="M 57.6 279.38987 
L 414.72 279.38987 
" style="fill:none;stroke:#cccccc;stroke-linecap:round;stroke-width:0.8;"/>
     </g>
     <g id="line2d_20"/>
     <g id="text_11">
      <!-- 0.1 -->
      <defs>
       <path d="M 9.078125 0 
L 9.078125 10.015625 
L 19.09375 10.015625 
L 19.09375 0 
z
" id="ArialMT-46"/>
      </defs>
      <g style="fill:#262626;" transform="translate(40.2 282.968777)scale(0.1 -0.1)">
       <use xlink:href="#ArialMT-48"/>
       <use x="55.615234" xlink:href="#ArialMT-46"/>
       <use x="83.398438" xlink:href="#ArialMT-49"/>
      </g>
     </g>
    </g>
    <g id="ytick_2">
     <g id="line2d_21">
      <path clip-path="url(#p7fa180af99)" d="M 57.6 231.416958 
L 414.72 231.416958 
" style="fill:none;stroke:#cccccc;stroke-linecap:round;stroke-width:0.8;"/>
     </g>
     <g id="line2d_22"/>
     <g id="text_12">
      <!-- 0.2 -->
      <g style="fill:#262626;" transform="translate(40.2 234.995864)scale(0.1 -0.1)">
       <use xlink:href="#ArialMT-48"/>
       <use x="55.615234" xlink:href="#ArialMT-46"/>
       <use x="83.398438" xlink:href="#ArialMT-50"/>
      </g>
     </g>
    </g>
    <g id="ytick_3">
     <g id="line2d_23">
      <path clip-path="url(#p7fa180af99)" d="M 57.6 183.444045 
L 414.72 183.444045 
" style="fill:none;stroke:#cccccc;stroke-linecap:round;stroke-width:0.8;"/>
     </g>
     <g id="line2d_24"/>
     <g id="text_13">
      <!-- 0.3 -->
      <defs>
       <path d="M 4.203125 18.890625 
L 12.984375 20.0625 
Q 14.5 12.59375 18.140625 9.296875 
Q 21.78125 6 27 6 
Q 33.203125 6 37.46875 10.296875 
Q 41.75 14.59375 41.75 20.953125 
Q 41.75 27 37.796875 30.921875 
Q 33.84375 34.859375 27.734375 34.859375 
Q 25.25 34.859375 21.53125 33.890625 
L 22.515625 41.609375 
Q 23.390625 41.5 23.921875 41.5 
Q 29.546875 41.5 34.03125 44.421875 
Q 38.53125 47.359375 38.53125 53.46875 
Q 38.53125 58.296875 35.25 61.46875 
Q 31.984375 64.65625 26.8125 64.65625 
Q 21.6875 64.65625 18.265625 61.421875 
Q 14.84375 58.203125 13.875 51.765625 
L 5.078125 53.328125 
Q 6.6875 62.15625 12.390625 67.015625 
Q 18.109375 71.875 26.609375 71.875 
Q 32.46875 71.875 37.390625 69.359375 
Q 42.328125 66.84375 44.9375 62.5 
Q 47.5625 58.15625 47.5625 53.265625 
Q 47.5625 48.640625 45.0625 44.828125 
Q 42.578125 41.015625 37.703125 38.765625 
Q 44.046875 37.3125 47.5625 32.6875 
Q 51.078125 28.078125 51.078125 21.140625 
Q 51.078125 11.765625 44.234375 5.25 
Q 37.40625 -1.265625 26.953125 -1.265625 
Q 17.53125 -1.265625 11.296875 4.34375 
Q 5.078125 9.96875 4.203125 18.890625 
z
" id="ArialMT-51"/>
      </defs>
      <g style="fill:#262626;" transform="translate(40.2 187.022951)scale(0.1 -0.1)">
       <use xlink:href="#ArialMT-48"/>
       <use x="55.615234" xlink:href="#ArialMT-46"/>
       <use x="83.398438" xlink:href="#ArialMT-51"/>
      </g>
     </g>
    </g>
    <g id="ytick_4">
     <g id="line2d_25">
      <path clip-path="url(#p7fa180af99)" d="M 57.6 135.471132 
L 414.72 135.471132 
" style="fill:none;stroke:#cccccc;stroke-linecap:round;stroke-width:0.8;"/>
     </g>
     <g id="line2d_26"/>
     <g id="text_14">
      <!-- 0.4 -->
      <defs>
       <path d="M 32.328125 0 
L 32.328125 17.140625 
L 1.265625 17.140625 
L 1.265625 25.203125 
L 33.9375 71.578125 
L 41.109375 71.578125 
L 41.109375 25.203125 
L 50.78125 25.203125 
L 50.78125 17.140625 
L 41.109375 17.140625 
L 41.109375 0 
z
M 32.328125 25.203125 
L 32.328125 57.46875 
L 9.90625 25.203125 
z
" id="ArialMT-52"/>
      </defs>
      <g style="fill:#262626;" transform="translate(40.2 139.050039)scale(0.1 -0.1)">
       <use xlink:href="#ArialMT-48"/>
       <use x="55.615234" xlink:href="#ArialMT-46"/>
       <use x="83.398438" xlink:href="#ArialMT-52"/>
      </g>
     </g>
    </g>
    <g id="ytick_5">
     <g id="line2d_27">
      <path clip-path="url(#p7fa180af99)" d="M 57.6 87.49822 
L 414.72 87.49822 
" style="fill:none;stroke:#cccccc;stroke-linecap:round;stroke-width:0.8;"/>
     </g>
     <g id="line2d_28"/>
     <g id="text_15">
      <!-- 0.5 -->
      <g style="fill:#262626;" transform="translate(40.2 91.077126)scale(0.1 -0.1)">
       <use xlink:href="#ArialMT-48"/>
       <use x="55.615234" xlink:href="#ArialMT-46"/>
       <use x="83.398438" xlink:href="#ArialMT-53"/>
      </g>
     </g>
    </g>
    <g id="text_16">
     <!-- MSE -->
     <defs>
      <path d="M 7.421875 0 
L 7.421875 71.578125 
L 21.6875 71.578125 
L 38.625 20.90625 
Q 40.96875 13.8125 42.046875 10.296875 
Q 43.265625 14.203125 45.84375 21.78125 
L 62.984375 71.578125 
L 75.734375 71.578125 
L 75.734375 0 
L 66.609375 0 
L 66.609375 59.90625 
L 45.796875 0 
L 37.25 0 
L 16.546875 60.9375 
L 16.546875 0 
z
" id="ArialMT-77"/>
      <path d="M 7.90625 0 
L 7.90625 71.578125 
L 59.671875 71.578125 
L 59.671875 63.140625 
L 17.390625 63.140625 
L 17.390625 41.21875 
L 56.984375 41.21875 
L 56.984375 32.8125 
L 17.390625 32.8125 
L 17.390625 8.453125 
L 61.328125 8.453125 
L 61.328125 0 
z
" id="ArialMT-69"/>
     </defs>
     <g style="fill:#262626;" transform="translate(34.2125 185.363156)rotate(-90)scale(0.1 -0.1)">
      <use xlink:href="#ArialMT-77"/>
      <use x="83.300781" xlink:href="#ArialMT-83"/>
      <use x="150" xlink:href="#ArialMT-69"/>
     </g>
    </g>
   </g>
   <g id="line2d_29">
    <path clip-path="url(#p7fa180af99)" d="M 73.832727 251.693993 
L 74.807178 197.230753 
L 74.969587 192.463629 
L 75.131995 192.570661 
L 75.619221 165.324081 
L 75.781629 166.152816 
L 76.268854 140.381138 
L 76.431263 137.623155 
L 76.593671 127.530454 
L 76.75608 126.360214 
L 76.918488 116.261854 
L 77.080897 113.486864 
L 77.243305 107.046883 
L 77.405714 107.159098 
L 77.568122 105.385232 
L 77.730531 101.585194 
L 77.892939 104.624657 
L 78.217756 99.464749 
L 78.542573 102.490805 
L 78.704982 109.339169 
L 79.029799 103.411707 
L 79.192207 106.292197 
L 79.354615 102.614413 
L 79.517024 103.416308 
L 79.679432 97.900445 
L 80.004249 65.916673 
L 80.166658 67.650631 
L 80.329066 66.943487 
L 80.491475 63.75621 
L 81.141109 81.651403 
L 81.465926 80.123548 
L 81.790743 86.453618 
L 81.953151 82.450285 
L 82.11556 81.323674 
L 82.602785 68.417545 
L 82.765194 67.921369 
L 82.927602 73.657667 
L 83.09001 62.827289 
L 83.252419 64.608988 
L 83.577236 58.49902 
L 83.902053 57.746817 
L 84.064461 53.577371 
L 84.22687 54.480304 
L 84.389278 53.568 
L 84.551687 53.585438 
L 84.714095 54.125336 
L 85.038912 56.133148 
L 85.201321 57.976139 
L 85.363729 61.772173 
L 85.688546 59.206431 
L 85.850955 62.958905 
L 86.013363 60.800629 
L 86.175772 63.625856 
L 86.33818 68.483809 
L 86.500588 63.371201 
L 86.662997 62.03762 
L 86.987814 65.156012 
L 87.312631 76.804273 
L 87.799856 84.040659 
L 88.287082 91.446258 
L 88.44949 91.65936 
L 88.611899 92.307001 
L 88.774307 94.980802 
L 88.936716 95.301104 
L 89.099124 98.837982 
L 89.261533 105.085063 
L 89.423941 99.767831 
L 89.748758 101.022117 
L 89.911166 97.202544 
L 90.235983 101.110153 
L 90.398392 98.865142 
L 90.5608 101.406766 
L 90.723209 99.012478 
L 90.885617 103.561211 
L 91.210434 115.910474 
L 91.535251 114.454908 
L 91.69766 116.032752 
L 91.860068 116.336272 
L 92.022477 115.940346 
L 92.184885 117.98655 
L 92.347294 117.65135 
L 92.509702 116.691902 
L 92.672111 119.9991 
L 92.834519 114.679262 
L 93.159336 119.07187 
L 93.321745 118.39664 
L 93.80897 131.336174 
L 93.971378 131.768547 
L 94.458604 138.015951 
L 94.621012 129.428284 
L 94.945829 131.897274 
L 95.108238 131.535696 
L 95.270646 133.645169 
L 95.433055 128.837258 
L 95.595463 127.69838 
L 95.757872 128.779742 
L 96.245097 134.236993 
L 96.407506 129.188494 
L 96.732323 131.325717 
L 96.894731 127.245259 
L 97.057139 126.055014 
L 97.219548 128.093186 
L 97.381956 126.669963 
L 97.544365 127.966291 
L 97.706773 127.232678 
L 97.869182 129.989056 
L 98.03159 130.309111 
L 98.356407 132.470456 
L 98.518816 132.92535 
L 98.843633 135.819225 
L 99.330858 138.887693 
L 99.493267 139.376632 
L 99.818084 142.745858 
L 99.980492 143.030182 
L 100.305309 144.279589 
L 100.467717 145.948045 
L 100.630126 144.190106 
L 100.792534 147.416896 
L 101.27976 149.877057 
L 101.442168 147.183331 
L 101.604577 147.269727 
L 101.766985 148.956545 
L 101.929394 143.313748 
L 102.091802 142.566425 
L 102.254211 143.691449 
L 102.416619 146.199447 
L 102.579028 146.770969 
L 102.741436 142.770318 
L 102.903845 142.546263 
L 103.39107 146.480059 
L 103.715887 145.795838 
L 103.878296 147.132988 
L 104.040704 150.030374 
L 104.203112 149.994093 
L 104.365521 150.721743 
L 104.527929 148.50846 
L 104.690338 148.889502 
L 104.852746 150.189797 
L 105.015155 149.409253 
L 105.177563 149.2326 
L 105.339972 149.675284 
L 105.50238 150.513347 
L 105.664789 150.670617 
L 105.827197 149.887401 
L 106.152014 150.537982 
L 106.314423 154.545848 
L 106.476831 154.49985 
L 106.63924 154.955394 
L 106.964057 151.293744 
L 107.126465 151.194575 
L 107.61369 153.886141 
L 107.776099 153.850139 
L 108.100916 155.631734 
L 108.263324 155.898787 
L 108.425733 155.799062 
L 108.75055 158.151837 
L 108.912958 157.687954 
L 109.075367 158.119056 
L 109.237775 157.18101 
L 109.562592 158.494135 
L 109.725001 158.424499 
L 109.887409 158.082977 
L 110.049818 159.53066 
L 110.212226 159.836374 
L 110.374635 163.373629 
L 110.699452 163.009324 
L 110.86186 163.225277 
L 111.024268 166.616218 
L 111.186677 166.705446 
L 111.511494 167.873189 
L 111.836311 169.10914 
L 111.998719 167.637633 
L 112.161128 163.947433 
L 112.485945 165.396249 
L 112.648353 166.542326 
L 112.810762 169.74077 
L 112.97317 169.680309 
L 113.135579 169.753925 
L 113.297987 171.308577 
L 113.460396 171.214863 
L 113.622804 171.283179 
L 113.785213 171.719449 
L 114.11003 173.981802 
L 114.272438 174.014497 
L 114.434847 174.221162 
L 114.597255 175.117722 
L 114.759663 177.417329 
L 114.922072 171.935363 
L 115.08448 170.801118 
L 115.246889 172.520649 
L 115.571706 173.234442 
L 115.896523 173.197216 
L 116.058931 172.649129 
L 116.22134 173.608719 
L 116.383748 173.901855 
L 116.546157 174.972963 
L 116.708565 174.987839 
L 116.870974 179.746889 
L 117.033382 180.061382 
L 117.195791 180.078648 
L 117.358199 175.130306 
L 117.520608 176.090776 
L 117.683016 175.820554 
L 118.33265 179.24768 
L 118.495058 179.319717 
L 118.657467 179.676508 
L 118.982284 180.997307 
L 119.144692 185.372422 
L 119.307101 186.176985 
L 119.469509 186.357491 
L 119.631918 185.799746 
L 119.794326 188.690082 
L 119.956735 188.992349 
L 120.119143 189.538153 
L 120.281552 191.35288 
L 120.44396 191.82449 
L 120.768777 194.410038 
L 120.931186 194.047809 
L 121.093594 191.355443 
L 121.256003 191.421068 
L 121.418411 191.071712 
L 121.743228 194.911705 
L 121.905636 195.26269 
L 122.068045 196.331382 
L 122.230453 196.518134 
L 122.392862 195.262158 
L 122.55527 195.823413 
L 122.717679 197.59455 
L 122.880087 197.815458 
L 123.042496 196.622352 
L 123.529721 200.402911 
L 123.854538 200.712522 
L 124.016947 200.612009 
L 124.341764 202.660841 
L 124.504172 202.700721 
L 124.828989 204.104885 
L 125.153806 204.202972 
L 125.316214 204.683272 
L 125.478623 206.488672 
L 125.641031 206.913347 
L 125.80344 209.830149 
L 125.965848 210.328485 
L 126.128257 210.303883 
L 126.290665 211.398407 
L 126.453074 211.644852 
L 126.615482 211.460158 
L 126.777891 211.610235 
L 126.940299 212.035173 
L 127.102708 212.100967 
L 127.427525 213.780352 
L 127.589933 213.845166 
L 127.752342 214.069168 
L 127.91475 215.004063 
L 128.077159 215.2514 
L 128.239567 214.620298 
L 128.564384 215.169583 
L 128.726792 214.69891 
L 128.889201 214.604556 
L 129.051609 214.693325 
L 129.538835 215.616795 
L 129.863652 215.937152 
L 130.02606 216.642512 
L 130.350877 219.51944 
L 130.513286 219.577367 
L 130.675694 220.093454 
L 130.838103 219.85276 
L 131.000511 220.232471 
L 131.16292 219.966928 
L 131.325328 222.228785 
L 131.487737 222.012208 
L 131.650145 222.060573 
L 132.137371 222.940157 
L 132.624596 220.948893 
L 132.787004 220.969651 
L 133.27423 221.612763 
L 133.599047 220.918967 
L 133.923864 220.708879 
L 134.086272 220.209932 
L 134.248681 220.110544 
L 134.411089 220.33826 
L 134.573498 220.196866 
L 134.735906 220.393588 
L 134.898315 220.308162 
L 135.060723 218.630268 
L 135.223132 218.827804 
L 135.38554 218.208741 
L 135.547949 218.339876 
L 135.710357 218.70085 
L 136.035174 220.29179 
L 136.197582 219.77494 
L 136.522399 221.207178 
L 136.684808 221.037948 
L 136.847216 221.227534 
L 137.334442 220.919933 
L 137.659259 218.380787 
L 137.984076 218.710211 
L 138.146484 218.684216 
L 138.63371 219.203424 
L 138.796118 219.041417 
L 138.958527 220.156908 
L 139.120935 219.866972 
L 139.283343 220.055144 
L 139.445752 220.886969 
L 139.60816 220.148402 
L 139.770569 220.262049 
L 140.095386 221.175768 
L 140.257794 221.34709 
L 140.420203 221.336016 
L 140.582611 221.449331 
L 140.74502 221.94253 
L 140.907428 222.004071 
L 141.069837 222.213572 
L 141.232245 222.770983 
L 141.394654 222.723642 
L 141.557062 222.964743 
L 141.719471 220.412441 
L 142.044288 220.596896 
L 142.206696 220.632761 
L 142.369105 220.851901 
L 142.531513 220.826049 
L 142.693922 225.292269 
L 143.018738 226.237632 
L 143.181147 226.116332 
L 143.343555 226.322058 
L 143.830781 225.378837 
L 143.993189 225.419562 
L 144.155598 225.294783 
L 144.318006 225.51986 
L 144.480415 226.47492 
L 144.642823 226.568487 
L 144.805232 227.102575 
L 144.96764 227.030396 
L 145.454866 227.423884 
L 145.617274 226.864984 
L 146.1045 227.449426 
L 146.591725 228.668974 
L 146.754133 228.773716 
L 147.07895 230.97211 
L 147.241359 230.124787 
L 147.403767 230.619824 
L 147.728584 230.784505 
L 148.053401 231.25882 
L 148.21581 232.427295 
L 148.378218 232.452706 
L 148.703035 231.31914 
L 148.865444 234.464299 
L 149.027852 234.950342 
L 149.190261 235.053606 
L 149.352669 235.436201 
L 149.515078 235.056043 
L 149.677486 235.064357 
L 150.002303 234.063529 
L 150.32712 234.762406 
L 150.489528 234.90717 
L 150.651937 236.012137 
L 150.814345 236.037646 
L 151.139162 235.878281 
L 151.301571 237.009362 
L 151.626388 237.161335 
L 151.788796 237.71937 
L 151.951205 237.56433 
L 152.43843 238.209795 
L 152.600839 238.142245 
L 152.763247 237.916809 
L 152.925656 238.322999 
L 153.088064 235.869847 
L 153.250473 238.663613 
L 153.575289 238.806421 
L 153.737698 238.578387 
L 154.062515 239.084046 
L 154.387332 239.164427 
L 154.712149 238.86229 
L 154.874557 239.082661 
L 155.036966 240.411544 
L 155.199374 240.808197 
L 155.361783 240.861104 
L 155.524191 241.03219 
L 155.6866 240.84118 
L 155.849008 240.33071 
L 156.011417 240.341843 
L 156.336234 240.476959 
L 156.498642 240.422986 
L 156.661051 240.833074 
L 156.823459 240.728763 
L 156.985867 240.441737 
L 157.148276 239.573611 
L 157.473093 240.54349 
L 157.635501 240.57796 
L 157.79791 240.489973 
L 158.122727 241.080579 
L 158.285135 241.217688 
L 158.609952 241.896467 
L 158.772361 244.003792 
L 158.934769 243.87985 
L 159.097178 244.509199 
L 159.259586 244.258026 
L 159.421995 245.046675 
L 159.584403 245.201878 
L 159.746812 244.990388 
L 159.90922 245.42327 
L 160.071629 245.436629 
L 160.234037 245.276553 
L 160.396445 245.323897 
L 160.558854 245.207179 
L 160.883671 246.550368 
L 161.046079 246.675341 
L 161.370896 246.586619 
L 161.533305 246.438843 
L 161.695713 245.662804 
L 161.858122 246.309504 
L 162.182939 246.282566 
L 162.345347 245.752064 
L 162.507756 245.64759 
L 162.994981 246.1036 
L 163.15739 246.463147 
L 163.319798 246.339135 
L 163.482207 245.870615 
L 163.969432 247.061985 
L 164.294249 246.851428 
L 164.456657 246.754505 
L 164.781474 246.912567 
L 164.943883 247.970328 
L 165.106291 248.162339 
L 165.2687 247.835017 
L 165.593517 248.54831 
L 165.755925 249.773639 
L 165.918334 249.871788 
L 166.080742 249.834517 
L 166.243151 249.659945 
L 166.567968 250.001496 
L 166.730376 250.099396 
L 167.217602 251.195095 
L 167.38001 251.502266 
L 167.542418 251.441736 
L 167.704827 251.645266 
L 168.029644 252.323956 
L 168.192052 252.361939 
L 168.679278 253.895275 
L 168.841686 253.499048 
L 169.328912 254.598125 
L 169.49132 254.554468 
L 169.653729 254.275147 
L 169.816137 255.821986 
L 169.978546 255.956422 
L 170.140954 255.844748 
L 170.303363 255.9052 
L 170.790588 255.380069 
L 170.952996 255.45486 
L 171.115405 255.405764 
L 171.277813 255.231397 
L 171.765039 255.820705 
L 172.089856 256.110984 
L 172.414673 256.01169 
L 172.73949 256.293285 
L 172.901898 255.88539 
L 173.064307 255.926838 
L 173.226715 255.695803 
L 174.038758 255.621933 
L 174.201166 255.715429 
L 174.525983 256.24638 
L 174.688391 256.265954 
L 174.8508 256.505432 
L 175.013208 256.496649 
L 175.175617 256.089279 
L 175.500434 256.224103 
L 175.662842 254.791912 
L 175.825251 255.107774 
L 175.987659 255.169331 
L 176.474885 255.928542 
L 176.637293 255.873375 
L 176.96211 256.162838 
L 177.124519 255.903414 
L 177.286927 255.177639 
L 177.449336 255.166465 
L 177.936561 255.590295 
L 178.098969 255.38312 
L 178.261378 255.531229 
L 178.423786 255.426886 
L 178.911012 255.893664 
L 179.235829 256.069362 
L 179.398237 255.966526 
L 179.723054 256.113976 
L 180.047871 256.124747 
L 180.21028 256.067602 
L 180.372688 255.87549 
L 180.535097 256.061363 
L 180.697505 255.977083 
L 180.859914 258.188038 
L 181.022322 258.635519 
L 181.347139 258.631937 
L 181.509548 258.612025 
L 181.671956 258.882437 
L 182.159181 258.667409 
L 182.32159 260.076425 
L 182.483998 259.524459 
L 183.783266 259.783777 
L 183.945675 260.100374 
L 184.108083 260.103038 
L 184.595309 260.989198 
L 185.407351 261.316652 
L 185.569759 261.610233 
L 185.732168 261.614038 
L 186.219393 261.964675 
L 186.381802 262.339482 
L 186.54421 262.362475 
L 186.706619 261.863292 
L 186.869027 261.830823 
L 187.193844 261.561417 
L 188.330704 261.835398 
L 188.493112 261.629835 
L 188.65552 261.713533 
L 188.817929 262.377635 
L 188.980337 262.488918 
L 189.142746 262.254866 
L 189.467563 262.415494 
L 189.629971 262.705029 
L 190.117197 262.615802 
L 190.279605 263.057119 
L 190.442014 263.075053 
L 190.604422 263.729781 
L 190.929239 263.890497 
L 191.091648 263.69483 
L 191.90369 264.339347 
L 192.066099 264.997159 
L 192.228507 265.074968 
L 192.553324 265.374027 
L 192.715732 265.506668 
L 192.878141 265.283812 
L 193.365366 265.37313 
L 193.690183 265.533245 
L 193.852592 265.521753 
L 194.015 265.671797 
L 194.177409 265.653022 
L 194.664634 265.879989 
L 195.314268 266.140365 
L 195.476677 266.384298 
L 195.639085 266.345012 
L 196.775944 267.024673 
L 196.938353 267.280365 
L 197.100761 267.050307 
L 197.26317 267.182655 
L 197.425578 266.914401 
L 197.912804 267.212209 
L 198.075212 267.465776 
L 198.724846 267.542587 
L 198.887255 267.768284 
L 199.37448 267.600396 
L 199.861705 267.948494 
L 200.024114 267.962067 
L 200.186522 267.228831 
L 200.836156 267.36891 
L 200.998565 267.645272 
L 201.160973 267.370936 
L 201.648199 267.847116 
L 201.973016 267.746582 
L 202.297833 267.845445 
L 202.785058 267.860061 
L 202.947466 268.302594 
L 203.109875 268.366222 
L 203.272283 268.134159 
L 203.5971 268.641601 
L 203.759509 268.784817 
L 203.921917 268.707831 
L 204.084326 269.243046 
L 204.73396 269.4993 
L 204.896368 269.331856 
L 205.058777 269.537496 
L 205.221185 269.012993 
L 205.383594 269.102125 
L 205.546002 268.948834 
L 205.708411 269.071288 
L 206.033228 268.910844 
L 206.195636 269.043833 
L 206.358044 268.918097 
L 207.007678 269.591871 
L 207.982129 269.812086 
L 208.306946 269.923673 
L 208.794172 269.91862 
L 209.281397 270.39863 
L 209.443806 270.341273 
L 209.606214 270.104807 
L 209.768622 270.066911 
L 210.255848 269.55142 
L 210.743073 269.592022 
L 211.230299 270.096834 
L 211.555116 270.072367 
L 211.717524 270.375932 
L 212.367158 269.972486 
L 212.691975 270.006079 
L 212.854384 269.621491 
L 213.341609 269.644166 
L 213.504017 269.394306 
L 213.666426 269.366147 
L 213.828834 269.703991 
L 214.31606 269.784694 
L 214.640877 269.797635 
L 214.965694 269.906769 
L 215.290511 269.975515 
L 215.452919 269.945462 
L 215.615328 270.206479 
L 216.102553 270.237248 
L 216.42737 270.140761 
L 217.077004 270.480492 
L 217.239412 271.143642 
L 217.401821 271.164871 
L 217.564229 271.819467 
L 217.889046 271.841496 
L 218.051455 271.791884 
L 218.213863 272.019672 
L 218.701089 271.959975 
L 219.188314 273.324164 
L 219.513131 273.471122 
L 219.67554 273.349849 
L 219.837948 273.638337 
L 220.487582 273.849314 
L 220.812399 273.736591 
L 221.137216 273.714561 
L 221.299624 273.861832 
L 221.462033 273.702511 
L 222.111667 273.74228 
L 222.274075 273.621845 
L 222.923709 274.018918 
L 223.086118 274.261715 
L 223.248526 274.131334 
L 223.410935 274.258578 
L 223.573343 274.022859 
L 223.735752 274.027362 
L 223.89816 274.474921 
L 224.547794 274.530087 
L 224.872611 274.658755 
L 225.035019 274.518921 
L 225.197428 274.763103 
L 225.359836 274.746373 
L 225.522245 275.068581 
L 226.00947 275.369364 
L 226.171879 275.82906 
L 226.983921 275.93641 
L 227.14633 276.429014 
L 227.308738 276.372829 
L 227.471146 276.028385 
L 227.795963 275.963874 
L 227.958372 275.330513 
L 228.283189 275.4755 
L 228.608006 275.64522 
L 228.932823 276.093057 
L 229.095231 276.187851 
L 229.25764 276.42896 
L 229.582457 276.347767 
L 229.744865 276.40656 
L 229.907274 276.238004 
L 230.232091 276.41125 
L 230.394499 276.864706 
L 230.556908 277.766881 
L 231.044133 277.693469 
L 231.36895 277.568886 
L 231.531358 277.770642 
L 231.693767 277.780016 
L 231.856175 278.627789 
L 232.343401 278.714921 
L 232.505809 278.516581 
L 232.668218 278.575418 
L 232.830626 278.427623 
L 232.993035 278.833437 
L 233.805077 278.820008 
L 233.967486 279.066148 
L 235.266753 279.077635 
L 235.59157 279.468581 
L 235.916387 279.409005 
L 236.078796 279.709468 
L 236.72843 279.899218 
L 237.215655 280.096112 
L 237.540472 280.116435 
L 237.702881 280.697835 
L 238.190106 280.547283 
L 238.677331 280.714385 
L 238.83974 280.72134 
L 239.164557 281.085215 
L 239.489374 281.140286 
L 239.976599 281.211447 
L 240.788642 281.297612 
L 240.95105 281.683333 
L 242.250318 281.823533 
L 242.412726 281.893662 
L 242.575135 281.715596 
L 242.899952 282.282644 
L 243.06236 282.326987 
L 243.224769 282.61306 
L 243.874403 282.674309 
L 244.036811 282.874133 
L 244.686445 282.870028 
L 244.848854 282.724707 
L 245.17367 282.676496 
L 245.336079 282.443977 
L 245.823304 282.516797 
L 246.148121 282.695239 
L 246.797755 282.692665 
L 247.122572 282.587168 
L 247.934615 282.718032 
L 248.259432 282.551784 
L 248.42184 282.605713 
L 248.584248 282.879567 
L 249.883516 282.994476 
L 250.370742 283.062801 
L 250.53315 283.104028 
L 250.695559 283.295139 
L 250.857967 283.303351 
L 251.020376 283.103712 
L 251.182784 283.600593 
L 251.832418 283.90732 
L 252.157235 283.968642 
L 252.319643 283.852315 
L 252.64446 283.880776 
L 252.806869 283.71397 
L 254.268545 283.892103 
L 254.593362 283.87235 
L 255.080588 283.862558 
L 255.405405 283.739545 
L 255.730221 283.697387 
L 255.89263 283.680586 
L 256.055038 283.887113 
L 256.542264 283.605522 
L 256.867081 283.709214 
L 258.491166 283.517608 
L 259.140799 283.689736 
L 259.303208 283.658838 
L 259.465616 283.867315 
L 260.277659 283.798639 
L 260.440067 283.43908 
L 261.089701 283.753617 
L 261.25211 283.648836 
L 261.576927 283.754131 
L 261.739335 283.755869 
L 261.901744 283.438394 
L 264.337871 284.067991 
L 264.662688 284.191704 
L 264.825096 284.417024 
L 264.987505 284.447289 
L 265.149913 284.591193 
L 265.799547 284.601722 
L 265.961956 284.615779 
L 266.286772 284.323643 
L 266.449181 284.340944 
L 266.773998 284.243088 
L 266.936406 284.434512 
L 268.073266 284.551876 
L 268.235674 284.880131 
L 268.885308 284.889257 
L 269.210125 285.028102 
L 269.859759 285.083411 
L 270.022167 285.215098 
L 270.509393 285.192834 
L 270.83421 285.230243 
L 270.996618 285.476338 
L 271.159027 285.477269 
L 271.321435 285.59598 
L 271.483844 285.365149 
L 272.458295 285.373053 
L 274.082379 285.414403 
L 274.244788 285.528341 
L 274.894422 285.399155 
L 275.05683 285.580034 
L 275.219239 285.527665 
L 275.544056 285.640804 
L 276.031281 285.704493 
L 276.356098 285.762714 
L 276.843323 285.69706 
L 277.005732 285.804811 
L 277.492957 285.685756 
L 277.980183 285.95197 
L 278.467408 285.961754 
L 280.903535 286.244794 
L 281.065944 286.38381 
L 281.228352 286.252443 
L 281.877986 286.780762 
L 282.040395 286.76151 
L 282.365212 287.040081 
L 283.014846 287.28635 
L 283.502071 287.130259 
L 284.476522 287.201001 
L 284.963747 287.625399 
L 285.288564 287.846002 
L 285.77579 288.065083 
L 287.237466 288.53032 
L 287.399874 288.58241 
L 287.562283 289.315317 
L 287.724691 289.077503 
L 288.536734 289.209705 
L 288.699142 289.635065 
L 289.186368 289.68323 
L 289.511185 289.655496 
L 289.673593 288.176012 
L 290.810452 288.306646 
L 292.596946 288.334631 
L 292.921763 288.55085 
L 294.708256 288.567029 
L 295.033073 288.717632 
L 295.195481 288.611448 
L 295.520298 288.756976 
L 295.682707 288.852992 
L 296.494749 288.606068 
L 297.144383 288.596304 
L 297.4692 288.717298 
L 298.118834 288.689284 
L 299.418102 288.512502 
L 300.392553 288.741823 
L 300.71737 288.830801 
L 300.879778 289.017768 
L 301.854229 288.994175 
L 302.179046 288.887233 
L 302.503863 288.968083 
L 303.478314 289.199688 
L 304.127948 289.298669 
L 304.290356 289.392931 
L 304.452765 289.304114 
L 304.777582 289.358525 
L 305.914441 289.40626 
L 306.239258 289.541948 
L 306.888892 289.645489 
L 307.213709 289.593234 
L 307.376117 289.841983 
L 307.538526 289.812328 
L 307.863343 289.916711 
L 309.000202 289.927259 
L 309.16261 289.799271 
L 310.137061 289.869656 
L 310.624287 289.765737 
L 310.786695 289.748364 
L 311.923555 290.441822 
L 312.735597 290.514797 
L 313.060414 290.731017 
L 313.872456 290.617614 
L 314.034865 290.986065 
L 315.009316 290.958695 
L 315.171724 290.480964 
L 315.658949 290.376733 
L 315.821358 290.055467 
L 316.958217 290.115 
L 317.283034 290.34931 
L 317.607851 290.279066 
L 317.77026 290.626652 
L 320.693612 290.743876 
L 320.856021 290.688726 
L 321.505655 290.980556 
L 322.317697 290.935967 
L 323.454556 290.761357 
L 323.616965 290.534666 
L 324.10419 290.456567 
L 324.591416 290.68728 
L 324.916233 291.110024 
L 325.728275 291.07462 
L 326.053092 290.779103 
L 326.540317 290.930352 
L 327.027543 290.992494 
L 327.35236 291.019626 
L 327.839585 290.987865 
L 328.489219 291.169048 
L 328.651628 290.943825 
L 328.976445 290.97095 
L 329.301262 290.764122 
L 329.626078 290.692033 
L 329.950895 290.926316 
L 330.762938 291.006388 
L 331.087755 290.93259 
L 331.250163 290.918092 
L 331.57498 291.095326 
L 331.737389 291.099961 
L 332.062206 291.439609 
L 332.387023 291.356188 
L 333.036657 291.341802 
L 333.848699 291.246051 
L 334.173516 291.351 
L 334.498333 291.389143 
L 334.660741 291.477559 
L 334.985558 291.276281 
L 335.147967 291.292453 
L 335.472784 291.459484 
L 336.122418 291.494049 
L 336.284826 291.309604 
L 337.096868 291.335954 
L 337.421685 291.78295 
L 337.584094 292.121885 
L 337.746502 292.117043 
L 338.071319 292.883287 
L 338.233728 292.881573 
L 338.558545 293.010578 
L 339.370587 293.037951 
L 339.695404 293.207723 
L 339.857813 292.863578 
L 340.182629 293.194127 
L 340.345038 293.034381 
L 341.806714 293.191186 
L 341.969123 293.447337 
L 342.131531 293.401075 
L 342.29394 293.038285 
L 342.781165 293.032843 
L 343.105982 292.92655 
L 343.430799 292.944611 
L 343.593208 293.097281 
L 345.217292 293.18408 
L 345.379701 293.315106 
L 346.191743 293.341982 
L 346.841377 293.451992 
L 347.166194 293.501398 
L 347.978236 293.307502 
L 348.303053 293.409482 
L 348.465462 293.375997 
L 348.62787 293.594131 
L 350.089547 293.668869 
L 350.73918 293.703899 
L 351.063997 293.741527 
L 351.226406 293.317631 
L 351.713631 293.320972 
L 352.850491 293.33209 
L 353.012899 293.484375 
L 353.500125 293.553307 
L 354.636984 293.503858 
L 354.961801 293.832731 
L 355.773843 293.811751 
L 355.936252 293.923384 
L 356.09866 294.322241 
L 356.585886 294.30265 
L 357.560337 294.248502 
L 357.885153 294.153649 
L 358.534787 294.145991 
L 361.945365 294.26395 
L 362.107774 294.175188 
L 362.432591 294.2859 
L 363.56945 294.333278 
L 366.167986 294.308085 
L 366.330394 294.020948 
L 366.492803 294.014397 
L 366.980028 293.675642 
L 367.629662 293.720233 
L 367.954479 293.784712 
L 368.116888 293.717137 
L 368.604113 293.851563 
L 368.92893 293.779626 
L 369.740972 293.863822 
L 371.202649 293.806134 
L 371.527466 293.728899 
L 372.014691 293.796248 
L 372.339508 293.640689 
L 372.664325 293.570797 
L 373.313959 293.732423 
L 374.28841 293.631794 
L 374.775635 293.554409 
L 375.100452 293.568205 
L 375.425269 293.440193 
L 375.587677 293.349091 
L 376.074903 293.42324 
L 377.698988 293.457432 
L 381.109566 293.610676 
L 382.084017 293.392562 
L 382.571242 293.859169 
L 382.896059 293.841014 
L 383.708101 293.831487 
L 384.032918 294.039642 
L 384.844961 294.091111 
L 385.169778 293.844575 
L 385.332186 293.865304 
L 385.657003 293.757831 
L 386.956271 293.701152 
L 388.580356 293.777923 
L 388.742764 293.961093 
L 388.905173 293.964926 
L 389.22999 294.144198 
L 390.20444 294.060949 
L 390.529257 294.1815 
L 391.828525 294.249149 
L 391.990934 294.344735 
L 392.315751 294.327082 
L 392.802976 294.393749 
L 393.127793 294.477411 
L 393.290201 294.4145 
L 393.45261 294.640716 
L 393.777427 294.627969 
L 394.427061 294.728178 
L 394.751878 294.796687 
L 395.239103 294.815806 
L 395.726329 294.90049 
L 396.213554 295.225993 
L 397.025596 295.335623 
L 397.188005 295.262222 
L 397.350413 295.322002 
L 397.67523 295.198354 
L 397.837639 295.375534 
L 398.487273 295.488 
L 398.487273 295.488 
" style="fill:none;stroke:#1f77b4;stroke-linecap:round;stroke-width:1.5;"/>
   </g>
   <g id="patch_3">
    <path d="M 57.6 307.584 
L 57.6 41.472 
" style="fill:none;stroke:#cccccc;stroke-linecap:square;stroke-linejoin:miter;"/>
   </g>
   <g id="patch_4">
    <path d="M 414.72 307.584 
L 414.72 41.472 
" style="fill:none;stroke:#cccccc;stroke-linecap:square;stroke-linejoin:miter;"/>
   </g>
   <g id="patch_5">
    <path d="M 57.6 307.584 
L 414.72 307.584 
" style="fill:none;stroke:#cccccc;stroke-linecap:square;stroke-linejoin:miter;"/>
   </g>
   <g id="patch_6">
    <path d="M 57.6 41.472 
L 414.72 41.472 
" style="fill:none;stroke:#cccccc;stroke-linecap:square;stroke-linejoin:miter;"/>
   </g>
  </g>
 </g>
 <defs>
  <clipPath id="p7fa180af99">
   <rect height="266.112" width="357.12" x="57.6" y="41.472"/>
  </clipPath>
 </defs>
</svg>
