<?xml version="1.0" encoding="utf-8" standalone="no"?>
<!DOCTYPE svg PUBLIC "-//W3C//DTD SVG 1.1//EN"
  "http://www.w3.org/Graphics/SVG/1.1/DTD/svg11.dtd">
<!-- Created with matplotlib (https://matplotlib.org/) -->
<svg height="345.6pt" version="1.1" viewBox="0 0 460.8 345.6" width="460.8pt" xmlns="http://www.w3.org/2000/svg" xmlns:xlink="http://www.w3.org/1999/xlink">
 <defs>
  <style type="text/css">
*{stroke-linecap:butt;stroke-linejoin:round;}
  </style>
 </defs>
 <g id="figure_1">
  <g id="patch_1">
   <path d="M 0 345.6 
L 460.8 345.6 
L 460.8 0 
L 0 0 
z
" style="fill:#ffffff;"/>
  </g>
  <g id="axes_1">
   <g id="patch_2">
    <path d="M 57.6 307.584 
L 414.72 307.584 
L 414.72 41.472 
L 57.6 41.472 
z
" style="fill:#ffffff;"/>
   </g>
   <g id="matplotlib.axis_1">
    <g id="xtick_1">
     <g id="line2d_1">
      <path clip-path="url(#p5320fa2a72)" d="M 73.832727 307.584 
L 73.832727 41.472 
" style="fill:none;stroke:#cccccc;stroke-linecap:round;stroke-width:0.8;"/>
     </g>
     <g id="line2d_2"/>
     <g id="text_1">
      <!-- 0 -->
      <defs>
       <path d="M 4.15625 35.296875 
Q 4.15625 48 6.765625 55.734375 
Q 9.375 63.484375 14.515625 67.671875 
Q 19.671875 71.875 27.484375 71.875 
Q 33.25 71.875 37.59375 69.546875 
Q 41.9375 67.234375 44.765625 62.859375 
Q 47.609375 58.5 49.21875 52.21875 
Q 50.828125 45.953125 50.828125 35.296875 
Q 50.828125 22.703125 48.234375 14.96875 
Q 45.65625 7.234375 40.5 3 
Q 35.359375 -1.21875 27.484375 -1.21875 
Q 17.140625 -1.21875 11.234375 6.203125 
Q 4.15625 15.140625 4.15625 35.296875 
z
M 13.1875 35.296875 
Q 13.1875 17.671875 17.3125 11.828125 
Q 21.4375 6 27.484375 6 
Q 33.546875 6 37.671875 11.859375 
Q 41.796875 17.71875 41.796875 35.296875 
Q 41.796875 52.984375 37.671875 58.78125 
Q 33.546875 64.59375 27.390625 64.59375 
Q 21.34375 64.59375 17.71875 59.46875 
Q 13.1875 52.9375 13.1875 35.296875 
z
" id="ArialMT-48"/>
      </defs>
      <g style="fill:#262626;" transform="translate(71.052259 318.241812)scale(0.1 -0.1)">
       <use xlink:href="#ArialMT-48"/>
      </g>
     </g>
    </g>
    <g id="xtick_2">
     <g id="line2d_3">
      <path clip-path="url(#p5320fa2a72)" d="M 114.434847 307.584 
L 114.434847 41.472 
" style="fill:none;stroke:#cccccc;stroke-linecap:round;stroke-width:0.8;"/>
     </g>
     <g id="line2d_4"/>
     <g id="text_2">
      <!-- 2500 -->
      <defs>
       <path d="M 50.34375 8.453125 
L 50.34375 0 
L 3.03125 0 
Q 2.9375 3.171875 4.046875 6.109375 
Q 5.859375 10.9375 9.828125 15.625 
Q 13.8125 20.3125 21.34375 26.46875 
Q 33.015625 36.03125 37.109375 41.625 
Q 41.21875 47.21875 41.21875 52.203125 
Q 41.21875 57.421875 37.46875 61 
Q 33.734375 64.59375 27.734375 64.59375 
Q 21.390625 64.59375 17.578125 60.78125 
Q 13.765625 56.984375 13.71875 50.25 
L 4.6875 51.171875 
Q 5.609375 61.28125 11.65625 66.578125 
Q 17.71875 71.875 27.9375 71.875 
Q 38.234375 71.875 44.234375 66.15625 
Q 50.25 60.453125 50.25 52 
Q 50.25 47.703125 48.484375 43.546875 
Q 46.734375 39.40625 42.65625 34.8125 
Q 38.578125 30.21875 29.109375 22.21875 
Q 21.1875 15.578125 18.9375 13.203125 
Q 16.703125 10.84375 15.234375 8.453125 
z
" id="ArialMT-50"/>
       <path d="M 4.15625 18.75 
L 13.375 19.53125 
Q 14.40625 12.796875 18.140625 9.390625 
Q 21.875 6 27.15625 6 
Q 33.5 6 37.890625 10.78125 
Q 42.28125 15.578125 42.28125 23.484375 
Q 42.28125 31 38.0625 35.34375 
Q 33.84375 39.703125 27 39.703125 
Q 22.75 39.703125 19.328125 37.765625 
Q 15.921875 35.84375 13.96875 32.765625 
L 5.71875 33.84375 
L 12.640625 70.609375 
L 48.25 70.609375 
L 48.25 62.203125 
L 19.671875 62.203125 
L 15.828125 42.96875 
Q 22.265625 47.46875 29.34375 47.46875 
Q 38.71875 47.46875 45.15625 40.96875 
Q 51.609375 34.46875 51.609375 24.265625 
Q 51.609375 14.546875 45.953125 7.46875 
Q 39.0625 -1.21875 27.15625 -1.21875 
Q 17.390625 -1.21875 11.203125 4.25 
Q 5.03125 9.71875 4.15625 18.75 
z
" id="ArialMT-53"/>
      </defs>
      <g style="fill:#262626;" transform="translate(103.312972 318.241812)scale(0.1 -0.1)">
       <use xlink:href="#ArialMT-50"/>
       <use x="55.615234" xlink:href="#ArialMT-53"/>
       <use x="111.230469" xlink:href="#ArialMT-48"/>
       <use x="166.845703" xlink:href="#ArialMT-48"/>
      </g>
     </g>
    </g>
    <g id="xtick_3">
     <g id="line2d_5">
      <path clip-path="url(#p5320fa2a72)" d="M 155.036966 307.584 
L 155.036966 41.472 
" style="fill:none;stroke:#cccccc;stroke-linecap:round;stroke-width:0.8;"/>
     </g>
     <g id="line2d_6"/>
     <g id="text_3">
      <!-- 5000 -->
      <g style="fill:#262626;" transform="translate(143.915091 318.241812)scale(0.1 -0.1)">
       <use xlink:href="#ArialMT-53"/>
       <use x="55.615234" xlink:href="#ArialMT-48"/>
       <use x="111.230469" xlink:href="#ArialMT-48"/>
       <use x="166.845703" xlink:href="#ArialMT-48"/>
      </g>
     </g>
    </g>
    <g id="xtick_4">
     <g id="line2d_7">
      <path clip-path="url(#p5320fa2a72)" d="M 195.639085 307.584 
L 195.639085 41.472 
" style="fill:none;stroke:#cccccc;stroke-linecap:round;stroke-width:0.8;"/>
     </g>
     <g id="line2d_8"/>
     <g id="text_4">
      <!-- 7500 -->
      <defs>
       <path d="M 4.734375 62.203125 
L 4.734375 70.65625 
L 51.078125 70.65625 
L 51.078125 63.8125 
Q 44.234375 56.546875 37.515625 44.484375 
Q 30.8125 32.421875 27.15625 19.671875 
Q 24.515625 10.6875 23.78125 0 
L 14.75 0 
Q 14.890625 8.453125 18.0625 20.40625 
Q 21.234375 32.375 27.171875 43.484375 
Q 33.109375 54.59375 39.796875 62.203125 
z
" id="ArialMT-55"/>
      </defs>
      <g style="fill:#262626;" transform="translate(184.51721 318.241812)scale(0.1 -0.1)">
       <use xlink:href="#ArialMT-55"/>
       <use x="55.615234" xlink:href="#ArialMT-53"/>
       <use x="111.230469" xlink:href="#ArialMT-48"/>
       <use x="166.845703" xlink:href="#ArialMT-48"/>
      </g>
     </g>
    </g>
    <g id="xtick_5">
     <g id="line2d_9">
      <path clip-path="url(#p5320fa2a72)" d="M 236.241204 307.584 
L 236.241204 41.472 
" style="fill:none;stroke:#cccccc;stroke-linecap:round;stroke-width:0.8;"/>
     </g>
     <g id="line2d_10"/>
     <g id="text_5">
      <!-- 10000 -->
      <defs>
       <path d="M 37.25 0 
L 28.46875 0 
L 28.46875 56 
Q 25.296875 52.984375 20.140625 49.953125 
Q 14.984375 46.921875 10.890625 45.40625 
L 10.890625 53.90625 
Q 18.265625 57.375 23.78125 62.296875 
Q 29.296875 67.234375 31.59375 71.875 
L 37.25 71.875 
z
" id="ArialMT-49"/>
      </defs>
      <g style="fill:#262626;" transform="translate(222.33886 318.241812)scale(0.1 -0.1)">
       <use xlink:href="#ArialMT-49"/>
       <use x="55.615234" xlink:href="#ArialMT-48"/>
       <use x="111.230469" xlink:href="#ArialMT-48"/>
       <use x="166.845703" xlink:href="#ArialMT-48"/>
       <use x="222.460938" xlink:href="#ArialMT-48"/>
      </g>
     </g>
    </g>
    <g id="xtick_6">
     <g id="line2d_11">
      <path clip-path="url(#p5320fa2a72)" d="M 276.843323 307.584 
L 276.843323 41.472 
" style="fill:none;stroke:#cccccc;stroke-linecap:round;stroke-width:0.8;"/>
     </g>
     <g id="line2d_12"/>
     <g id="text_6">
      <!-- 12500 -->
      <g style="fill:#262626;" transform="translate(262.94098 318.241812)scale(0.1 -0.1)">
       <use xlink:href="#ArialMT-49"/>
       <use x="55.615234" xlink:href="#ArialMT-50"/>
       <use x="111.230469" xlink:href="#ArialMT-53"/>
       <use x="166.845703" xlink:href="#ArialMT-48"/>
       <use x="222.460938" xlink:href="#ArialMT-48"/>
      </g>
     </g>
    </g>
    <g id="xtick_7">
     <g id="line2d_13">
      <path clip-path="url(#p5320fa2a72)" d="M 317.445443 307.584 
L 317.445443 41.472 
" style="fill:none;stroke:#cccccc;stroke-linecap:round;stroke-width:0.8;"/>
     </g>
     <g id="line2d_14"/>
     <g id="text_7">
      <!-- 15000 -->
      <g style="fill:#262626;" transform="translate(303.543099 318.241812)scale(0.1 -0.1)">
       <use xlink:href="#ArialMT-49"/>
       <use x="55.615234" xlink:href="#ArialMT-53"/>
       <use x="111.230469" xlink:href="#ArialMT-48"/>
       <use x="166.845703" xlink:href="#ArialMT-48"/>
       <use x="222.460938" xlink:href="#ArialMT-48"/>
      </g>
     </g>
    </g>
    <g id="xtick_8">
     <g id="line2d_15">
      <path clip-path="url(#p5320fa2a72)" d="M 358.047562 307.584 
L 358.047562 41.472 
" style="fill:none;stroke:#cccccc;stroke-linecap:round;stroke-width:0.8;"/>
     </g>
     <g id="line2d_16"/>
     <g id="text_8">
      <!-- 17500 -->
      <g style="fill:#262626;" transform="translate(344.145218 318.241812)scale(0.1 -0.1)">
       <use xlink:href="#ArialMT-49"/>
       <use x="55.615234" xlink:href="#ArialMT-55"/>
       <use x="111.230469" xlink:href="#ArialMT-53"/>
       <use x="166.845703" xlink:href="#ArialMT-48"/>
       <use x="222.460938" xlink:href="#ArialMT-48"/>
      </g>
     </g>
    </g>
    <g id="xtick_9">
     <g id="line2d_17">
      <path clip-path="url(#p5320fa2a72)" d="M 398.649681 307.584 
L 398.649681 41.472 
" style="fill:none;stroke:#cccccc;stroke-linecap:round;stroke-width:0.8;"/>
     </g>
     <g id="line2d_18"/>
     <g id="text_9">
      <!-- 20000 -->
      <g style="fill:#262626;" transform="translate(384.747337 318.241812)scale(0.1 -0.1)">
       <use xlink:href="#ArialMT-50"/>
       <use x="55.615234" xlink:href="#ArialMT-48"/>
       <use x="111.230469" xlink:href="#ArialMT-48"/>
       <use x="166.845703" xlink:href="#ArialMT-48"/>
       <use x="222.460938" xlink:href="#ArialMT-48"/>
      </g>
     </g>
    </g>
    <g id="text_10">
     <!-- SARSA(Lambda) - episodes -->
     <defs>
      <path d="M 4.5 23 
L 13.421875 23.78125 
Q 14.0625 18.40625 16.375 14.96875 
Q 18.703125 11.53125 23.578125 9.40625 
Q 28.46875 7.28125 34.578125 7.28125 
Q 39.984375 7.28125 44.140625 8.890625 
Q 48.296875 10.5 50.3125 13.296875 
Q 52.34375 16.109375 52.34375 19.4375 
Q 52.34375 22.796875 50.390625 25.3125 
Q 48.4375 27.828125 43.953125 29.546875 
Q 41.0625 30.671875 31.203125 33.03125 
Q 21.34375 35.40625 17.390625 37.5 
Q 12.25 40.1875 9.734375 44.15625 
Q 7.234375 48.140625 7.234375 53.078125 
Q 7.234375 58.5 10.296875 63.203125 
Q 13.375 67.921875 19.28125 70.359375 
Q 25.203125 72.796875 32.421875 72.796875 
Q 40.375 72.796875 46.453125 70.234375 
Q 52.546875 67.671875 55.8125 62.6875 
Q 59.078125 57.71875 59.328125 51.421875 
L 50.25 50.734375 
Q 49.515625 57.515625 45.28125 60.984375 
Q 41.0625 64.453125 32.8125 64.453125 
Q 24.21875 64.453125 20.28125 61.296875 
Q 16.359375 58.15625 16.359375 53.71875 
Q 16.359375 49.859375 19.140625 47.359375 
Q 21.875 44.875 33.421875 42.265625 
Q 44.96875 39.65625 49.265625 37.703125 
Q 55.515625 34.8125 58.484375 30.390625 
Q 61.46875 25.984375 61.46875 20.21875 
Q 61.46875 14.5 58.203125 9.4375 
Q 54.9375 4.390625 48.796875 1.578125 
Q 42.671875 -1.21875 35.015625 -1.21875 
Q 25.296875 -1.21875 18.71875 1.609375 
Q 12.15625 4.4375 8.421875 10.125 
Q 4.6875 15.828125 4.5 23 
z
" id="ArialMT-83"/>
      <path d="M -0.140625 0 
L 27.34375 71.578125 
L 37.546875 71.578125 
L 66.84375 0 
L 56.0625 0 
L 47.703125 21.6875 
L 17.78125 21.6875 
L 9.90625 0 
z
M 20.515625 29.390625 
L 44.78125 29.390625 
L 37.3125 49.21875 
Q 33.890625 58.25 32.234375 64.0625 
Q 30.859375 57.171875 28.375 50.390625 
z
" id="ArialMT-65"/>
      <path d="M 7.859375 0 
L 7.859375 71.578125 
L 39.59375 71.578125 
Q 49.171875 71.578125 54.140625 69.640625 
Q 59.125 67.71875 62.109375 62.828125 
Q 65.09375 57.953125 65.09375 52.046875 
Q 65.09375 44.4375 60.15625 39.203125 
Q 55.21875 33.984375 44.921875 32.5625 
Q 48.6875 30.765625 50.640625 29 
Q 54.78125 25.203125 58.5 19.484375 
L 70.953125 0 
L 59.03125 0 
L 49.5625 14.890625 
Q 45.40625 21.34375 42.71875 24.75 
Q 40.046875 28.171875 37.921875 29.53125 
Q 35.796875 30.90625 33.59375 31.453125 
Q 31.984375 31.78125 28.328125 31.78125 
L 17.328125 31.78125 
L 17.328125 0 
z
M 17.328125 39.984375 
L 37.703125 39.984375 
Q 44.1875 39.984375 47.84375 41.328125 
Q 51.515625 42.671875 53.421875 45.625 
Q 55.328125 48.578125 55.328125 52.046875 
Q 55.328125 57.125 51.640625 60.390625 
Q 47.953125 63.671875 39.984375 63.671875 
L 17.328125 63.671875 
z
" id="ArialMT-82"/>
      <path d="M 23.390625 -21.046875 
Q 16.109375 -11.859375 11.078125 0.4375 
Q 6.0625 12.75 6.0625 25.921875 
Q 6.0625 37.546875 9.8125 48.1875 
Q 14.203125 60.546875 23.390625 72.796875 
L 29.6875 72.796875 
Q 23.78125 62.640625 21.875 58.296875 
Q 18.890625 51.5625 17.1875 44.234375 
Q 15.09375 35.109375 15.09375 25.875 
Q 15.09375 2.390625 29.6875 -21.046875 
z
" id="ArialMT-40"/>
      <path d="M 7.328125 0 
L 7.328125 71.578125 
L 16.796875 71.578125 
L 16.796875 8.453125 
L 52.046875 8.453125 
L 52.046875 0 
z
" id="ArialMT-76"/>
      <path d="M 40.4375 6.390625 
Q 35.546875 2.25 31.03125 0.53125 
Q 26.515625 -1.171875 21.34375 -1.171875 
Q 12.796875 -1.171875 8.203125 3 
Q 3.609375 7.171875 3.609375 13.671875 
Q 3.609375 17.484375 5.34375 20.625 
Q 7.078125 23.78125 9.890625 25.6875 
Q 12.703125 27.59375 16.21875 28.5625 
Q 18.796875 29.25 24.03125 29.890625 
Q 34.671875 31.15625 39.703125 32.90625 
Q 39.75 34.71875 39.75 35.203125 
Q 39.75 40.578125 37.25 42.78125 
Q 33.890625 45.75 27.25 45.75 
Q 21.046875 45.75 18.09375 43.578125 
Q 15.140625 41.40625 13.71875 35.890625 
L 5.125 37.0625 
Q 6.296875 42.578125 8.984375 45.96875 
Q 11.671875 49.359375 16.75 51.1875 
Q 21.828125 53.03125 28.515625 53.03125 
Q 35.15625 53.03125 39.296875 51.46875 
Q 43.453125 49.90625 45.40625 47.53125 
Q 47.359375 45.171875 48.140625 41.546875 
Q 48.578125 39.3125 48.578125 33.453125 
L 48.578125 21.734375 
Q 48.578125 9.46875 49.140625 6.21875 
Q 49.703125 2.984375 51.375 0 
L 42.1875 0 
Q 40.828125 2.734375 40.4375 6.390625 
z
M 39.703125 26.03125 
Q 34.90625 24.078125 25.34375 22.703125 
Q 19.921875 21.921875 17.671875 20.9375 
Q 15.4375 19.96875 14.203125 18.09375 
Q 12.984375 16.21875 12.984375 13.921875 
Q 12.984375 10.40625 15.640625 8.0625 
Q 18.3125 5.71875 23.4375 5.71875 
Q 28.515625 5.71875 32.46875 7.9375 
Q 36.421875 10.15625 38.28125 14.015625 
Q 39.703125 17 39.703125 22.796875 
z
" id="ArialMT-97"/>
      <path d="M 6.59375 0 
L 6.59375 51.859375 
L 14.453125 51.859375 
L 14.453125 44.578125 
Q 16.890625 48.390625 20.9375 50.703125 
Q 25 53.03125 30.171875 53.03125 
Q 35.9375 53.03125 39.625 50.640625 
Q 43.3125 48.25 44.828125 43.953125 
Q 50.984375 53.03125 60.84375 53.03125 
Q 68.5625 53.03125 72.703125 48.75 
Q 76.859375 44.484375 76.859375 35.59375 
L 76.859375 0 
L 68.109375 0 
L 68.109375 32.671875 
Q 68.109375 37.9375 67.25 40.25 
Q 66.40625 42.578125 64.15625 43.984375 
Q 61.921875 45.40625 58.890625 45.40625 
Q 53.421875 45.40625 49.796875 41.765625 
Q 46.1875 38.140625 46.1875 30.125 
L 46.1875 0 
L 37.40625 0 
L 37.40625 33.6875 
Q 37.40625 39.546875 35.25 42.46875 
Q 33.109375 45.40625 28.21875 45.40625 
Q 24.515625 45.40625 21.359375 43.453125 
Q 18.21875 41.5 16.796875 37.734375 
Q 15.375 33.984375 15.375 26.90625 
L 15.375 0 
z
" id="ArialMT-109"/>
      <path d="M 14.703125 0 
L 6.546875 0 
L 6.546875 71.578125 
L 15.328125 71.578125 
L 15.328125 46.046875 
Q 20.90625 53.03125 29.546875 53.03125 
Q 34.328125 53.03125 38.59375 51.09375 
Q 42.875 49.171875 45.625 45.671875 
Q 48.390625 42.1875 49.953125 37.25 
Q 51.515625 32.328125 51.515625 26.703125 
Q 51.515625 13.375 44.921875 6.09375 
Q 38.328125 -1.171875 29.109375 -1.171875 
Q 19.921875 -1.171875 14.703125 6.5 
z
M 14.59375 26.3125 
Q 14.59375 17 17.140625 12.84375 
Q 21.296875 6.0625 28.375 6.0625 
Q 34.125 6.0625 38.328125 11.0625 
Q 42.53125 16.0625 42.53125 25.984375 
Q 42.53125 36.140625 38.5 40.96875 
Q 34.46875 45.796875 28.765625 45.796875 
Q 23 45.796875 18.796875 40.796875 
Q 14.59375 35.796875 14.59375 26.3125 
z
" id="ArialMT-98"/>
      <path d="M 40.234375 0 
L 40.234375 6.546875 
Q 35.296875 -1.171875 25.734375 -1.171875 
Q 19.53125 -1.171875 14.328125 2.25 
Q 9.125 5.671875 6.265625 11.796875 
Q 3.421875 17.921875 3.421875 25.875 
Q 3.421875 33.640625 6 39.96875 
Q 8.59375 46.296875 13.765625 49.65625 
Q 18.953125 53.03125 25.34375 53.03125 
Q 30.03125 53.03125 33.6875 51.046875 
Q 37.359375 49.078125 39.65625 45.90625 
L 39.65625 71.578125 
L 48.390625 71.578125 
L 48.390625 0 
z
M 12.453125 25.875 
Q 12.453125 15.921875 16.640625 10.984375 
Q 20.84375 6.0625 26.5625 6.0625 
Q 32.328125 6.0625 36.34375 10.765625 
Q 40.375 15.484375 40.375 25.140625 
Q 40.375 35.796875 36.265625 40.765625 
Q 32.171875 45.75 26.171875 45.75 
Q 20.3125 45.75 16.375 40.96875 
Q 12.453125 36.1875 12.453125 25.875 
z
" id="ArialMT-100"/>
      <path d="M 12.359375 -21.046875 
L 6.0625 -21.046875 
Q 20.65625 2.390625 20.65625 25.875 
Q 20.65625 35.0625 18.5625 44.09375 
Q 16.890625 51.421875 13.921875 58.15625 
Q 12.015625 62.546875 6.0625 72.796875 
L 12.359375 72.796875 
Q 21.53125 60.546875 25.921875 48.1875 
Q 29.6875 37.546875 29.6875 25.921875 
Q 29.6875 12.75 24.625 0.4375 
Q 19.578125 -11.859375 12.359375 -21.046875 
z
" id="ArialMT-41"/>
      <path id="ArialMT-32"/>
      <path d="M 3.171875 21.484375 
L 3.171875 30.328125 
L 30.171875 30.328125 
L 30.171875 21.484375 
z
" id="ArialMT-45"/>
      <path d="M 42.09375 16.703125 
L 51.171875 15.578125 
Q 49.03125 7.625 43.21875 3.21875 
Q 37.40625 -1.171875 28.375 -1.171875 
Q 17 -1.171875 10.328125 5.828125 
Q 3.65625 12.84375 3.65625 25.484375 
Q 3.65625 38.578125 10.390625 45.796875 
Q 17.140625 53.03125 27.875 53.03125 
Q 38.28125 53.03125 44.875 45.953125 
Q 51.46875 38.875 51.46875 26.03125 
Q 51.46875 25.25 51.421875 23.6875 
L 12.75 23.6875 
Q 13.234375 15.140625 17.578125 10.59375 
Q 21.921875 6.0625 28.421875 6.0625 
Q 33.25 6.0625 36.671875 8.59375 
Q 40.09375 11.140625 42.09375 16.703125 
z
M 13.234375 30.90625 
L 42.1875 30.90625 
Q 41.609375 37.453125 38.875 40.71875 
Q 34.671875 45.796875 27.984375 45.796875 
Q 21.921875 45.796875 17.796875 41.75 
Q 13.671875 37.703125 13.234375 30.90625 
z
" id="ArialMT-101"/>
      <path d="M 6.59375 -19.875 
L 6.59375 51.859375 
L 14.59375 51.859375 
L 14.59375 45.125 
Q 17.4375 49.078125 21 51.046875 
Q 24.5625 53.03125 29.640625 53.03125 
Q 36.28125 53.03125 41.359375 49.609375 
Q 46.4375 46.1875 49.015625 39.953125 
Q 51.609375 33.734375 51.609375 26.3125 
Q 51.609375 18.359375 48.75 11.984375 
Q 45.90625 5.609375 40.453125 2.21875 
Q 35.015625 -1.171875 29 -1.171875 
Q 24.609375 -1.171875 21.109375 0.6875 
Q 17.625 2.546875 15.375 5.375 
L 15.375 -19.875 
z
M 14.546875 25.640625 
Q 14.546875 15.625 18.59375 10.84375 
Q 22.65625 6.0625 28.421875 6.0625 
Q 34.28125 6.0625 38.453125 11.015625 
Q 42.625 15.96875 42.625 26.375 
Q 42.625 36.28125 38.546875 41.203125 
Q 34.46875 46.140625 28.8125 46.140625 
Q 23.1875 46.140625 18.859375 40.890625 
Q 14.546875 35.640625 14.546875 25.640625 
z
" id="ArialMT-112"/>
      <path d="M 6.640625 61.46875 
L 6.640625 71.578125 
L 15.4375 71.578125 
L 15.4375 61.46875 
z
M 6.640625 0 
L 6.640625 51.859375 
L 15.4375 51.859375 
L 15.4375 0 
z
" id="ArialMT-105"/>
      <path d="M 3.078125 15.484375 
L 11.765625 16.84375 
Q 12.5 11.625 15.84375 8.84375 
Q 19.1875 6.0625 25.203125 6.0625 
Q 31.25 6.0625 34.171875 8.515625 
Q 37.109375 10.984375 37.109375 14.3125 
Q 37.109375 17.28125 34.515625 19 
Q 32.71875 20.171875 25.53125 21.96875 
Q 15.875 24.421875 12.140625 26.203125 
Q 8.40625 27.984375 6.46875 31.125 
Q 4.546875 34.28125 4.546875 38.09375 
Q 4.546875 41.546875 6.125 44.5 
Q 7.71875 47.46875 10.453125 49.421875 
Q 12.5 50.921875 16.03125 51.96875 
Q 19.578125 53.03125 23.640625 53.03125 
Q 29.734375 53.03125 34.34375 51.265625 
Q 38.96875 49.515625 41.15625 46.5 
Q 43.359375 43.5 44.1875 38.484375 
L 35.59375 37.3125 
Q 35.015625 41.3125 32.203125 43.546875 
Q 29.390625 45.796875 24.265625 45.796875 
Q 18.21875 45.796875 15.625 43.796875 
Q 13.03125 41.796875 13.03125 39.109375 
Q 13.03125 37.40625 14.109375 36.03125 
Q 15.1875 34.625 17.484375 33.6875 
Q 18.796875 33.203125 25.25 31.453125 
Q 34.578125 28.953125 38.25 27.359375 
Q 41.9375 25.78125 44.03125 22.75 
Q 46.140625 19.734375 46.140625 15.234375 
Q 46.140625 10.84375 43.578125 6.953125 
Q 41.015625 3.078125 36.171875 0.953125 
Q 31.34375 -1.171875 25.25 -1.171875 
Q 15.140625 -1.171875 9.84375 3.03125 
Q 4.546875 7.234375 3.078125 15.484375 
z
" id="ArialMT-115"/>
      <path d="M 3.328125 25.921875 
Q 3.328125 40.328125 11.328125 47.265625 
Q 18.015625 53.03125 27.640625 53.03125 
Q 38.328125 53.03125 45.109375 46.015625 
Q 51.90625 39.015625 51.90625 26.65625 
Q 51.90625 16.65625 48.90625 10.90625 
Q 45.90625 5.171875 40.15625 2 
Q 34.421875 -1.171875 27.640625 -1.171875 
Q 16.75 -1.171875 10.03125 5.8125 
Q 3.328125 12.796875 3.328125 25.921875 
z
M 12.359375 25.921875 
Q 12.359375 15.96875 16.703125 11.015625 
Q 21.046875 6.0625 27.640625 6.0625 
Q 34.1875 6.0625 38.53125 11.03125 
Q 42.875 16.015625 42.875 26.21875 
Q 42.875 35.84375 38.5 40.796875 
Q 34.125 45.75 27.640625 45.75 
Q 21.046875 45.75 16.703125 40.8125 
Q 12.359375 35.890625 12.359375 25.921875 
z
" id="ArialMT-111"/>
     </defs>
     <g style="fill:#262626;" transform="translate(173.355312 331.509)scale(0.1 -0.1)">
      <use xlink:href="#ArialMT-83"/>
      <use x="66.699219" xlink:href="#ArialMT-65"/>
      <use x="133.398438" xlink:href="#ArialMT-82"/>
      <use x="205.615234" xlink:href="#ArialMT-83"/>
      <use x="272.314453" xlink:href="#ArialMT-65"/>
      <use x="339.013672" xlink:href="#ArialMT-40"/>
      <use x="372.314453" xlink:href="#ArialMT-76"/>
      <use x="427.929688" xlink:href="#ArialMT-97"/>
      <use x="483.544922" xlink:href="#ArialMT-109"/>
      <use x="566.845703" xlink:href="#ArialMT-98"/>
      <use x="622.460938" xlink:href="#ArialMT-100"/>
      <use x="678.076172" xlink:href="#ArialMT-97"/>
      <use x="733.691406" xlink:href="#ArialMT-41"/>
      <use x="766.992188" xlink:href="#ArialMT-32"/>
      <use x="794.775391" xlink:href="#ArialMT-45"/>
      <use x="828.076172" xlink:href="#ArialMT-32"/>
      <use x="855.859375" xlink:href="#ArialMT-101"/>
      <use x="911.474609" xlink:href="#ArialMT-112"/>
      <use x="967.089844" xlink:href="#ArialMT-105"/>
      <use x="989.306641" xlink:href="#ArialMT-115"/>
      <use x="1039.306641" xlink:href="#ArialMT-111"/>
      <use x="1094.921875" xlink:href="#ArialMT-100"/>
      <use x="1150.537109" xlink:href="#ArialMT-101"/>
      <use x="1206.152344" xlink:href="#ArialMT-115"/>
     </g>
    </g>
   </g>
   <g id="matplotlib.axis_2">
    <g id="ytick_1">
     <g id="line2d_19">
      <path clip-path="url(#p5320fa2a72)" d="M 57.6 275.758808 
L 414.72 275.758808 
" style="fill:none;stroke:#cccccc;stroke-linecap:round;stroke-width:0.8;"/>
     </g>
     <g id="line2d_20"/>
     <g id="text_11">
      <!-- 0.2 -->
      <defs>
       <path d="M 9.078125 0 
L 9.078125 10.015625 
L 19.09375 10.015625 
L 19.09375 0 
z
" id="ArialMT-46"/>
      </defs>
      <g style="fill:#262626;" transform="translate(40.2 279.337714)scale(0.1 -0.1)">
       <use xlink:href="#ArialMT-48"/>
       <use x="55.615234" xlink:href="#ArialMT-46"/>
       <use x="83.398438" xlink:href="#ArialMT-50"/>
      </g>
     </g>
    </g>
    <g id="ytick_2">
     <g id="line2d_21">
      <path clip-path="url(#p5320fa2a72)" d="M 57.6 242.130877 
L 414.72 242.130877 
" style="fill:none;stroke:#cccccc;stroke-linecap:round;stroke-width:0.8;"/>
     </g>
     <g id="line2d_22"/>
     <g id="text_12">
      <!-- 0.4 -->
      <defs>
       <path d="M 32.328125 0 
L 32.328125 17.140625 
L 1.265625 17.140625 
L 1.265625 25.203125 
L 33.9375 71.578125 
L 41.109375 71.578125 
L 41.109375 25.203125 
L 50.78125 25.203125 
L 50.78125 17.140625 
L 41.109375 17.140625 
L 41.109375 0 
z
M 32.328125 25.203125 
L 32.328125 57.46875 
L 9.90625 25.203125 
z
" id="ArialMT-52"/>
      </defs>
      <g style="fill:#262626;" transform="translate(40.2 245.709783)scale(0.1 -0.1)">
       <use xlink:href="#ArialMT-48"/>
       <use x="55.615234" xlink:href="#ArialMT-46"/>
       <use x="83.398438" xlink:href="#ArialMT-52"/>
      </g>
     </g>
    </g>
    <g id="ytick_3">
     <g id="line2d_23">
      <path clip-path="url(#p5320fa2a72)" d="M 57.6 208.502946 
L 414.72 208.502946 
" style="fill:none;stroke:#cccccc;stroke-linecap:round;stroke-width:0.8;"/>
     </g>
     <g id="line2d_24"/>
     <g id="text_13">
      <!-- 0.6 -->
      <defs>
       <path d="M 49.75 54.046875 
L 41.015625 53.375 
Q 39.84375 58.546875 37.703125 60.890625 
Q 34.125 64.65625 28.90625 64.65625 
Q 24.703125 64.65625 21.53125 62.3125 
Q 17.390625 59.28125 14.984375 53.46875 
Q 12.59375 47.65625 12.5 36.921875 
Q 15.671875 41.75 20.265625 44.09375 
Q 24.859375 46.4375 29.890625 46.4375 
Q 38.671875 46.4375 44.84375 39.96875 
Q 51.03125 33.5 51.03125 23.25 
Q 51.03125 16.5 48.125 10.71875 
Q 45.21875 4.9375 40.140625 1.859375 
Q 35.0625 -1.21875 28.609375 -1.21875 
Q 17.625 -1.21875 10.6875 6.859375 
Q 3.765625 14.9375 3.765625 33.5 
Q 3.765625 54.25 11.421875 63.671875 
Q 18.109375 71.875 29.4375 71.875 
Q 37.890625 71.875 43.28125 67.140625 
Q 48.6875 62.40625 49.75 54.046875 
z
M 13.875 23.1875 
Q 13.875 18.65625 15.796875 14.5 
Q 17.71875 10.359375 21.1875 8.171875 
Q 24.65625 6 28.46875 6 
Q 34.03125 6 38.03125 10.484375 
Q 42.046875 14.984375 42.046875 22.703125 
Q 42.046875 30.125 38.078125 34.390625 
Q 34.125 38.671875 28.125 38.671875 
Q 22.171875 38.671875 18.015625 34.390625 
Q 13.875 30.125 13.875 23.1875 
z
" id="ArialMT-54"/>
      </defs>
      <g style="fill:#262626;" transform="translate(40.2 212.081852)scale(0.1 -0.1)">
       <use xlink:href="#ArialMT-48"/>
       <use x="55.615234" xlink:href="#ArialMT-46"/>
       <use x="83.398438" xlink:href="#ArialMT-54"/>
      </g>
     </g>
    </g>
    <g id="ytick_4">
     <g id="line2d_25">
      <path clip-path="url(#p5320fa2a72)" d="M 57.6 174.875015 
L 414.72 174.875015 
" style="fill:none;stroke:#cccccc;stroke-linecap:round;stroke-width:0.8;"/>
     </g>
     <g id="line2d_26"/>
     <g id="text_14">
      <!-- 0.8 -->
      <defs>
       <path d="M 17.671875 38.8125 
Q 12.203125 40.828125 9.5625 44.53125 
Q 6.9375 48.25 6.9375 53.421875 
Q 6.9375 61.234375 12.546875 66.546875 
Q 18.171875 71.875 27.484375 71.875 
Q 36.859375 71.875 42.578125 66.421875 
Q 48.296875 60.984375 48.296875 53.171875 
Q 48.296875 48.1875 45.671875 44.5 
Q 43.0625 40.828125 37.75 38.8125 
Q 44.34375 36.671875 47.78125 31.875 
Q 51.21875 27.09375 51.21875 20.453125 
Q 51.21875 11.28125 44.71875 5.03125 
Q 38.234375 -1.21875 27.640625 -1.21875 
Q 17.046875 -1.21875 10.546875 5.046875 
Q 4.046875 11.328125 4.046875 20.703125 
Q 4.046875 27.6875 7.59375 32.390625 
Q 11.140625 37.109375 17.671875 38.8125 
z
M 15.921875 53.71875 
Q 15.921875 48.640625 19.1875 45.40625 
Q 22.46875 42.1875 27.6875 42.1875 
Q 32.765625 42.1875 36.015625 45.375 
Q 39.265625 48.578125 39.265625 53.21875 
Q 39.265625 58.0625 35.90625 61.359375 
Q 32.5625 64.65625 27.59375 64.65625 
Q 22.5625 64.65625 19.234375 61.421875 
Q 15.921875 58.203125 15.921875 53.71875 
z
M 13.09375 20.65625 
Q 13.09375 16.890625 14.875 13.375 
Q 16.65625 9.859375 20.171875 7.921875 
Q 23.6875 6 27.734375 6 
Q 34.03125 6 38.125 10.046875 
Q 42.234375 14.109375 42.234375 20.359375 
Q 42.234375 26.703125 38.015625 30.859375 
Q 33.796875 35.015625 27.4375 35.015625 
Q 21.234375 35.015625 17.15625 30.90625 
Q 13.09375 26.8125 13.09375 20.65625 
z
" id="ArialMT-56"/>
      </defs>
      <g style="fill:#262626;" transform="translate(40.2 178.453921)scale(0.1 -0.1)">
       <use xlink:href="#ArialMT-48"/>
       <use x="55.615234" xlink:href="#ArialMT-46"/>
       <use x="83.398438" xlink:href="#ArialMT-56"/>
      </g>
     </g>
    </g>
    <g id="ytick_5">
     <g id="line2d_27">
      <path clip-path="url(#p5320fa2a72)" d="M 57.6 141.247083 
L 414.72 141.247083 
" style="fill:none;stroke:#cccccc;stroke-linecap:round;stroke-width:0.8;"/>
     </g>
     <g id="line2d_28"/>
     <g id="text_15">
      <!-- 1.0 -->
      <g style="fill:#262626;" transform="translate(40.2 144.82599)scale(0.1 -0.1)">
       <use xlink:href="#ArialMT-49"/>
       <use x="55.615234" xlink:href="#ArialMT-46"/>
       <use x="83.398438" xlink:href="#ArialMT-48"/>
      </g>
     </g>
    </g>
    <g id="ytick_6">
     <g id="line2d_29">
      <path clip-path="url(#p5320fa2a72)" d="M 57.6 107.619152 
L 414.72 107.619152 
" style="fill:none;stroke:#cccccc;stroke-linecap:round;stroke-width:0.8;"/>
     </g>
     <g id="line2d_30"/>
     <g id="text_16">
      <!-- 1.2 -->
      <g style="fill:#262626;" transform="translate(40.2 111.198058)scale(0.1 -0.1)">
       <use xlink:href="#ArialMT-49"/>
       <use x="55.615234" xlink:href="#ArialMT-46"/>
       <use x="83.398438" xlink:href="#ArialMT-50"/>
      </g>
     </g>
    </g>
    <g id="ytick_7">
     <g id="line2d_31">
      <path clip-path="url(#p5320fa2a72)" d="M 57.6 73.991221 
L 414.72 73.991221 
" style="fill:none;stroke:#cccccc;stroke-linecap:round;stroke-width:0.8;"/>
     </g>
     <g id="line2d_32"/>
     <g id="text_17">
      <!-- 1.4 -->
      <g style="fill:#262626;" transform="translate(40.2 77.570127)scale(0.1 -0.1)">
       <use xlink:href="#ArialMT-49"/>
       <use x="55.615234" xlink:href="#ArialMT-46"/>
       <use x="83.398438" xlink:href="#ArialMT-52"/>
      </g>
     </g>
    </g>
    <g id="text_18">
     <!-- MSE -->
     <defs>
      <path d="M 7.421875 0 
L 7.421875 71.578125 
L 21.6875 71.578125 
L 38.625 20.90625 
Q 40.96875 13.8125 42.046875 10.296875 
Q 43.265625 14.203125 45.84375 21.78125 
L 62.984375 71.578125 
L 75.734375 71.578125 
L 75.734375 0 
L 66.609375 0 
L 66.609375 59.90625 
L 45.796875 0 
L 37.25 0 
L 16.546875 60.9375 
L 16.546875 0 
z
" id="ArialMT-77"/>
      <path d="M 7.90625 0 
L 7.90625 71.578125 
L 59.671875 71.578125 
L 59.671875 63.140625 
L 17.390625 63.140625 
L 17.390625 41.21875 
L 56.984375 41.21875 
L 56.984375 32.8125 
L 17.390625 32.8125 
L 17.390625 8.453125 
L 61.328125 8.453125 
L 61.328125 0 
z
" id="ArialMT-69"/>
     </defs>
     <g style="fill:#262626;" transform="translate(34.2125 185.363156)rotate(-90)scale(0.1 -0.1)">
      <use xlink:href="#ArialMT-77"/>
      <use x="83.300781" xlink:href="#ArialMT-83"/>
      <use x="150" xlink:href="#ArialMT-69"/>
     </g>
    </g>
   </g>
   <g id="line2d_33">
    <path clip-path="url(#p5320fa2a72)" d="M 73.832727 53.568 
L 74.157544 228.177831 
L 74.482361 261.701686 
L 74.64477 263.813611 
L 75.294404 283.819566 
L 75.619221 286.424204 
L 75.944037 287.305191 
L 76.106446 287.258393 
L 76.431263 287.785361 
L 76.75608 289.107273 
L 76.918488 288.930126 
L 77.080897 289.482304 
L 77.243305 288.977508 
L 77.405714 289.74833 
L 77.568122 289.971987 
L 77.730531 287.921532 
L 77.892939 289.706161 
L 78.055348 289.920895 
L 78.217756 290.535912 
L 78.380165 289.657684 
L 78.542573 289.627687 
L 78.704982 290.665941 
L 78.86739 290.045268 
L 79.192207 290.922134 
L 79.517024 288.317251 
L 79.841841 289.987561 
L 80.004249 289.213113 
L 80.166658 287.597571 
L 80.491475 288.01708 
L 80.653883 289.783566 
L 80.816292 289.468856 
L 81.141109 289.710067 
L 81.303517 289.050124 
L 81.465926 287.080639 
L 81.790743 289.719384 
L 81.953151 288.447603 
L 82.11556 289.262483 
L 82.277968 289.135818 
L 82.440377 289.923746 
L 82.602785 290.121766 
L 82.927602 290.982679 
L 83.09001 291.137806 
L 83.252419 289.387657 
L 83.414827 290.668538 
L 83.577236 290.520826 
L 83.739644 287.752036 
L 83.902053 289.212486 
L 84.064461 289.226313 
L 84.22687 290.975422 
L 84.551687 289.689195 
L 84.714095 290.332931 
L 85.038912 289.292383 
L 85.201321 290.247492 
L 85.363729 289.719181 
L 85.688546 291.522785 
L 85.850955 290.192116 
L 86.013363 290.059381 
L 86.500588 292.529597 
L 86.662997 291.809102 
L 86.825405 291.890829 
L 86.987814 292.304022 
L 87.150222 291.792874 
L 87.312631 290.74439 
L 87.475039 292.619826 
L 87.637448 292.390629 
L 87.799856 292.695994 
L 87.962265 292.296057 
L 88.124673 293.072045 
L 88.287082 291.197642 
L 88.44949 293.014408 
L 88.611899 293.49401 
L 88.774307 292.617596 
L 88.936716 290.516593 
L 89.261533 293.495903 
L 89.423941 293.138104 
L 89.58635 293.297503 
L 89.748758 292.502071 
L 89.911166 292.457663 
L 90.235983 292.909743 
L 90.5608 292.681924 
L 90.723209 291.94673 
L 90.885617 292.139028 
L 91.048026 289.802294 
L 91.210434 292.048632 
L 91.535251 293.1161 
L 91.69766 292.20543 
L 91.860068 293.256077 
L 92.022477 292.279644 
L 92.184885 292.936103 
L 92.347294 292.980346 
L 92.672111 292.157416 
L 92.834519 292.511008 
L 92.996928 291.28665 
L 93.159336 291.482506 
L 93.321745 292.698847 
L 93.484153 291.193347 
L 93.646561 293.143696 
L 93.80897 293.484965 
L 93.971378 293.311344 
L 94.133787 292.516312 
L 94.296195 293.301154 
L 94.621012 292.838242 
L 94.783421 291.895126 
L 94.945829 293.089153 
L 95.270646 293.401958 
L 95.757872 292.945556 
L 95.92028 292.668727 
L 96.082689 292.849586 
L 96.245097 291.517373 
L 96.407506 292.231034 
L 96.569914 291.860136 
L 96.732323 292.272343 
L 96.894731 291.430637 
L 97.057139 291.577435 
L 97.381956 288.556262 
L 97.544365 290.375743 
L 97.706773 290.399421 
L 97.869182 289.571936 
L 98.03159 290.600069 
L 98.193999 288.350818 
L 98.356407 284.269042 
L 98.681224 286.254973 
L 99.006041 291.390514 
L 99.16845 290.191365 
L 99.330858 292.024035 
L 99.493267 291.806908 
L 99.655675 291.814252 
L 99.818084 291.103909 
L 100.142901 292.02738 
L 100.305309 291.510483 
L 100.630126 292.228252 
L 100.792534 291.949637 
L 100.954943 292.455905 
L 101.117351 292.348114 
L 101.27976 292.599981 
L 101.604577 292.177944 
L 101.929394 289.55345 
L 102.091802 289.824934 
L 102.254211 291.490272 
L 102.416619 291.405428 
L 102.579028 291.892103 
L 102.741436 291.561284 
L 102.903845 291.820013 
L 103.066253 292.445093 
L 103.228662 290.574953 
L 103.39107 291.841928 
L 103.715887 289.880476 
L 104.040704 290.501768 
L 104.203112 289.042295 
L 104.527929 290.920503 
L 104.690338 291.164426 
L 105.015155 287.928666 
L 105.177563 289.081566 
L 105.339972 287.830569 
L 105.50238 288.794973 
L 105.664789 285.836192 
L 105.827197 285.097124 
L 105.989606 288.603822 
L 106.152014 289.164142 
L 106.63924 287.0243 
L 106.801648 288.876603 
L 106.964057 288.044015 
L 107.288874 289.141231 
L 107.451282 288.101221 
L 107.61369 288.081586 
L 108.100916 288.893052 
L 108.263324 288.752981 
L 108.425733 289.137728 
L 108.588141 289.131637 
L 108.912958 288.464543 
L 109.075367 289.236678 
L 109.237775 288.989173 
L 109.400184 289.870303 
L 109.562592 289.843701 
L 109.725001 289.98956 
L 109.887409 290.574918 
L 110.049818 289.957842 
L 110.374635 290.636762 
L 110.699452 288.466391 
L 110.86186 289.873832 
L 111.024268 290.088732 
L 111.186677 290.694743 
L 111.349085 289.608397 
L 111.511494 289.676896 
L 111.673902 290.099699 
L 111.836311 289.143298 
L 111.998719 289.377332 
L 112.161128 291.027376 
L 112.485945 290.809164 
L 112.810762 288.570279 
L 112.97317 288.727597 
L 113.135579 291.190842 
L 113.297987 291.474633 
L 113.460396 291.446557 
L 113.622804 290.782373 
L 113.785213 291.119613 
L 113.947621 290.270273 
L 114.434847 291.587175 
L 114.597255 291.54124 
L 114.759663 291.203245 
L 115.08448 288.163474 
L 115.246889 291.409841 
L 115.409297 290.153717 
L 115.571706 291.557541 
L 115.734114 291.306478 
L 115.896523 292.077982 
L 116.058931 292.054071 
L 116.22134 291.562763 
L 116.383748 289.729583 
L 116.546157 290.864238 
L 116.708565 288.772908 
L 117.033382 291.984923 
L 117.195791 291.778653 
L 117.358199 290.795315 
L 117.520608 291.998503 
L 117.683016 291.797371 
L 117.845425 291.900343 
L 118.007833 291.48232 
L 118.170241 290.318239 
L 118.33265 290.111006 
L 118.495058 288.260078 
L 118.657467 287.744394 
L 118.819875 289.829259 
L 118.982284 287.799289 
L 119.144692 289.727826 
L 119.307101 290.094198 
L 119.469509 288.693518 
L 119.794326 290.489156 
L 119.956735 290.191272 
L 120.281552 287.3236 
L 120.44396 286.994142 
L 120.606369 287.799322 
L 120.768777 290.466485 
L 120.931186 289.832993 
L 121.093594 289.856859 
L 121.256003 288.898134 
L 121.418411 289.937223 
L 121.58082 289.917317 
L 121.743228 289.545656 
L 122.230453 285.895231 
L 122.392862 282.279579 
L 122.55527 287.709888 
L 123.042496 290.152554 
L 123.367313 290.186787 
L 123.529721 288.057236 
L 123.69213 290.267859 
L 123.854538 289.479588 
L 124.016947 290.337553 
L 124.179355 290.330215 
L 124.504172 287.966587 
L 124.666581 288.984796 
L 124.828989 287.963878 
L 124.991398 288.685636 
L 125.153806 288.810165 
L 125.316214 289.236549 
L 125.478623 288.152017 
L 125.641031 288.806751 
L 125.80344 287.838322 
L 125.965848 289.18335 
L 126.128257 289.469809 
L 126.290665 288.055677 
L 126.453074 288.388912 
L 126.777891 290.617121 
L 126.940299 290.340074 
L 127.589933 288.359569 
L 127.91475 289.503011 
L 128.077159 289.418136 
L 128.564384 288.028982 
L 128.726792 287.76926 
L 128.889201 287.860855 
L 129.051609 287.150939 
L 129.214018 284.357864 
L 129.376426 283.673276 
L 129.538835 281.450504 
L 130.02606 287.317203 
L 130.350877 288.347198 
L 130.675694 290.188394 
L 130.838103 289.844328 
L 131.000511 289.810288 
L 131.16292 289.179036 
L 131.325328 290.151076 
L 131.487737 288.687065 
L 131.650145 290.993499 
L 131.812554 290.875925 
L 132.624596 288.033919 
L 132.787004 286.224512 
L 132.949413 287.648554 
L 133.111821 287.263532 
L 133.27423 287.275355 
L 133.436638 286.963492 
L 133.599047 287.113576 
L 133.761455 285.690555 
L 133.923864 285.343566 
L 134.086272 280.485535 
L 134.248681 281.954374 
L 134.573498 286.517626 
L 134.735906 287.154938 
L 134.898315 285.740473 
L 135.060723 286.151369 
L 135.223132 285.750175 
L 135.38554 286.178422 
L 135.547949 287.386594 
L 135.872765 288.234607 
L 136.035174 287.621851 
L 136.359991 288.33265 
L 136.522399 286.961567 
L 136.684808 287.604801 
L 136.847216 286.920376 
L 137.009625 286.843921 
L 137.334442 285.203501 
L 137.49685 285.961382 
L 137.821667 283.68423 
L 137.984076 283.816967 
L 138.146484 283.291573 
L 138.308893 284.829765 
L 138.471301 285.029885 
L 138.63371 284.525442 
L 138.796118 284.404782 
L 139.120935 276.332692 
L 139.445752 282.026112 
L 139.770569 284.694937 
L 139.932977 283.433602 
L 140.257794 286.512247 
L 140.420203 285.310536 
L 140.582611 288.581333 
L 140.74502 288.126174 
L 140.907428 288.727293 
L 141.232245 287.678198 
L 141.557062 288.345658 
L 141.719471 287.693485 
L 141.881879 289.036715 
L 142.044288 289.134372 
L 142.206696 289.077135 
L 142.369105 287.499877 
L 142.531513 289.495383 
L 142.693922 289.302708 
L 143.018738 288.19487 
L 143.181147 287.875511 
L 143.343555 288.246334 
L 143.668372 286.5022 
L 143.830781 287.115564 
L 143.993189 285.882246 
L 144.155598 286.254348 
L 144.480415 288.050147 
L 144.642823 287.490674 
L 144.805232 287.54478 
L 145.130049 286.48523 
L 145.617274 288.012356 
L 145.779683 286.483622 
L 146.1045 280.653378 
L 146.266908 286.138958 
L 146.429316 285.398674 
L 146.754133 287.332814 
L 146.916542 286.963397 
L 147.07895 288.153796 
L 147.403767 284.537207 
L 147.728584 286.555403 
L 147.890993 286.988557 
L 148.053401 286.776596 
L 148.378218 288.222213 
L 148.540627 287.593121 
L 148.703035 287.588545 
L 148.865444 287.312693 
L 149.027852 286.802723 
L 149.515078 280.182184 
L 149.677486 273.867626 
L 149.839894 276.371786 
L 150.002303 283.721556 
L 150.164711 284.280248 
L 150.32712 284.353399 
L 150.489528 283.409008 
L 150.651937 283.730451 
L 150.814345 284.337379 
L 150.976754 285.800919 
L 151.139162 284.548342 
L 151.301571 288.815616 
L 151.463979 289.340512 
L 151.788796 289.505017 
L 152.113613 286.559819 
L 152.600839 290.054781 
L 152.763247 289.491646 
L 152.925656 287.987286 
L 153.088064 287.869205 
L 153.250473 286.917741 
L 153.412881 287.421635 
L 153.575289 287.434014 
L 153.900106 289.169614 
L 154.062515 289.401659 
L 154.224923 288.883633 
L 154.387332 288.771884 
L 154.712149 287.974995 
L 154.874557 288.55536 
L 155.036966 288.321726 
L 155.199374 289.287212 
L 155.361783 289.451858 
L 155.524191 289.281602 
L 155.6866 288.391137 
L 155.849008 288.91122 
L 156.011417 288.999507 
L 156.173825 288.92691 
L 156.823459 289.920865 
L 156.985867 289.424038 
L 157.148276 289.560063 
L 157.310684 288.631325 
L 157.473093 289.303838 
L 157.635501 286.814166 
L 157.79791 287.2322 
L 157.960318 288.657633 
L 158.285135 286.703411 
L 158.609952 290.23645 
L 158.772361 290.364935 
L 158.934769 288.280676 
L 159.097178 287.68603 
L 159.259586 287.864043 
L 159.421995 286.096931 
L 159.746812 289.407608 
L 159.90922 289.029781 
L 160.071629 289.676659 
L 160.234037 288.817139 
L 160.396445 288.882289 
L 160.558854 288.586762 
L 160.721262 289.928778 
L 161.370896 291.323173 
L 161.533305 291.345537 
L 161.695713 291.911619 
L 161.858122 289.090184 
L 162.02053 290.890496 
L 162.182939 287.735896 
L 162.345347 287.830666 
L 162.507756 288.854603 
L 162.832573 292.310287 
L 162.994981 291.861331 
L 163.319798 291.64498 
L 163.482207 291.368631 
L 163.969432 291.506795 
L 164.13184 291.380353 
L 164.294249 291.076971 
L 164.456657 291.74287 
L 164.619066 291.140689 
L 164.781474 291.028584 
L 164.943883 291.152041 
L 165.106291 290.595155 
L 165.2687 291.722756 
L 165.431108 290.117211 
L 165.593517 290.383302 
L 165.755925 291.415791 
L 165.918334 291.337636 
L 166.243151 290.278848 
L 166.730376 291.201446 
L 166.892785 290.494118 
L 167.38001 290.143834 
L 167.542418 287.686557 
L 167.867235 289.671794 
L 168.516869 287.446246 
L 168.679278 286.28234 
L 168.841686 287.391317 
L 169.004095 286.646308 
L 169.166503 287.084373 
L 169.49132 285.410619 
L 169.653729 284.043346 
L 169.816137 286.352633 
L 169.978546 286.449916 
L 170.303363 283.046909 
L 170.465771 284.641296 
L 170.952996 285.769385 
L 171.115405 285.819992 
L 171.277813 285.55601 
L 171.440222 284.216645 
L 171.60263 285.076882 
L 171.765039 285.087756 
L 171.927447 284.181824 
L 172.089856 287.299346 
L 172.252264 286.362877 
L 172.414673 287.043075 
L 172.73949 286.0322 
L 172.901898 286.70261 
L 173.064307 283.91485 
L 173.226715 286.349172 
L 173.389124 286.737822 
L 173.713941 288.663752 
L 174.038758 286.250028 
L 174.363575 288.717496 
L 174.525983 288.456144 
L 174.688391 288.733984 
L 174.8508 288.177573 
L 175.013208 288.273102 
L 175.175617 288.554711 
L 175.338025 286.981621 
L 175.500434 287.305498 
L 175.662842 285.471309 
L 175.825251 285.799772 
L 175.987659 284.551179 
L 176.312476 288.887043 
L 176.474885 288.395477 
L 176.637293 288.53778 
L 176.799702 289.315806 
L 176.96211 288.349398 
L 177.124519 288.092139 
L 177.286927 288.720101 
L 177.449336 288.725878 
L 177.611744 288.314746 
L 177.774153 288.385521 
L 177.936561 287.689821 
L 178.098969 289.227915 
L 178.261378 289.038096 
L 178.423786 287.985124 
L 178.586195 289.251271 
L 178.748603 289.07334 
L 178.911012 289.812069 
L 179.07342 289.885128 
L 179.235829 289.368312 
L 179.398237 290.284062 
L 179.560646 290.48527 
L 179.885463 287.386501 
L 180.047871 288.820794 
L 180.21028 287.605189 
L 180.535097 290.313547 
L 180.697505 290.835004 
L 181.022322 288.889204 
L 181.184731 290.629307 
L 181.347139 287.861908 
L 181.509548 290.453721 
L 181.834364 289.876621 
L 181.996773 289.641057 
L 182.646407 284.609409 
L 182.808815 286.550143 
L 182.971224 286.76344 
L 183.296041 289.668069 
L 183.458449 289.810152 
L 183.620858 289.588791 
L 183.783266 290.055578 
L 183.945675 289.989447 
L 184.270492 290.454529 
L 184.4329 288.127466 
L 184.757717 289.996013 
L 185.082534 288.775039 
L 185.244942 290.4557 
L 185.407351 289.857055 
L 185.569759 290.12531 
L 185.732168 290.098972 
L 185.894576 288.051471 
L 186.056985 290.51099 
L 186.219393 290.198359 
L 186.381802 290.210028 
L 186.54421 290.093996 
L 186.869027 291.010211 
L 187.031436 290.69556 
L 187.193844 291.652963 
L 187.518661 291.697965 
L 187.843478 289.635672 
L 188.005887 291.338486 
L 188.168295 290.506117 
L 188.330704 291.395923 
L 188.493112 290.944804 
L 188.65552 290.97666 
L 188.817929 290.083016 
L 188.980337 290.267534 
L 189.305154 292.67993 
L 189.954788 287.980381 
L 190.117197 292.125325 
L 190.604422 288.541261 
L 190.766831 289.075556 
L 191.091648 292.203439 
L 191.416465 291.3473 
L 191.578873 291.51852 
L 191.741282 291.917084 
L 192.066099 291.742215 
L 192.228507 291.248024 
L 192.553324 291.464339 
L 192.715732 291.244838 
L 192.878141 291.282342 
L 193.040549 291.576194 
L 193.202958 290.927352 
L 193.365366 285.893624 
L 193.527775 290.723867 
L 193.690183 291.639132 
L 193.852592 291.842438 
L 194.015 292.365326 
L 194.177409 291.982044 
L 194.339817 289.859699 
L 194.502226 290.837645 
L 194.664634 290.901934 
L 194.827043 292.084538 
L 194.989451 291.83815 
L 195.15186 291.374674 
L 195.639085 288.053862 
L 195.801493 288.805089 
L 195.963902 291.634098 
L 196.12631 288.425693 
L 196.451127 292.500421 
L 196.613536 292.156764 
L 196.775944 292.332097 
L 196.938353 292.334076 
L 197.100761 292.511382 
L 197.425578 291.367647 
L 197.750395 292.263323 
L 198.075212 291.707531 
L 198.237621 291.398316 
L 198.562438 292.403001 
L 198.724846 292.041884 
L 198.887255 292.422592 
L 199.049663 292.517643 
L 199.212071 291.962759 
L 199.37448 292.82528 
L 199.699297 291.840601 
L 199.861705 292.015697 
L 200.186522 292.963457 
L 200.511339 291.995913 
L 200.673748 292.463362 
L 200.836156 292.441556 
L 200.998565 291.558946 
L 201.323382 292.474235 
L 201.48579 291.95412 
L 201.648199 292.326348 
L 201.810607 292.116577 
L 201.973016 292.287803 
L 202.135424 291.875725 
L 202.460241 288.785757 
L 202.62265 289.46561 
L 202.785058 292.018809 
L 202.947466 291.992598 
L 203.109875 291.202887 
L 203.272283 291.899269 
L 203.434692 291.820099 
L 203.759509 292.122776 
L 204.246734 290.590409 
L 204.409143 291.915578 
L 204.571551 291.98641 
L 204.73396 291.479949 
L 204.896368 291.349532 
L 205.058777 292.317589 
L 205.221185 291.44931 
L 205.383594 291.406157 
L 205.546002 291.128331 
L 205.870819 289.2128 
L 206.195636 290.930359 
L 206.358044 289.844458 
L 206.520453 290.387131 
L 206.682861 291.346021 
L 206.84527 291.401788 
L 207.170087 292.190401 
L 207.332495 290.369987 
L 207.494904 290.383141 
L 207.819721 292.748592 
L 207.982129 292.055275 
L 208.144538 290.808528 
L 208.306946 290.623789 
L 208.469355 289.465222 
L 208.631763 289.358325 
L 208.794172 287.112491 
L 208.95658 286.594481 
L 209.118989 290.3255 
L 209.443806 292.362883 
L 209.768622 291.493721 
L 209.931031 292.018276 
L 210.093439 291.031199 
L 210.580665 292.355125 
L 210.743073 291.779395 
L 210.905482 291.86403 
L 211.06789 292.310185 
L 211.230299 292.20461 
L 211.392707 292.236112 
L 211.555116 292.058504 
L 211.717524 292.366551 
L 211.879933 292.054806 
L 212.20475 291.929806 
L 212.367158 291.765671 
L 212.529567 291.925831 
L 212.691975 291.784077 
L 213.016792 289.428673 
L 213.179201 292.108613 
L 213.341609 291.895477 
L 213.504017 291.955613 
L 213.991243 289.623083 
L 214.153651 289.603252 
L 214.478468 287.180313 
L 214.803285 289.467364 
L 214.965694 289.00733 
L 215.290511 289.21679 
L 215.452919 288.509969 
L 215.777736 285.60223 
L 215.940145 283.149657 
L 216.42737 287.978124 
L 216.589779 288.243909 
L 216.752187 289.224494 
L 217.077004 288.305833 
L 217.239412 289.638921 
L 217.401821 284.990007 
L 217.564229 284.114174 
L 217.726638 282.511346 
L 217.889046 284.493846 
L 218.051455 288.420276 
L 218.213863 288.164173 
L 218.53868 285.252808 
L 218.701089 287.680467 
L 218.863497 287.857641 
L 219.025906 286.872225 
L 219.350723 289.678855 
L 219.513131 289.804261 
L 219.67554 289.525636 
L 220.000357 290.30939 
L 220.162765 289.803191 
L 220.325173 290.215702 
L 220.64999 289.228436 
L 220.812399 288.562553 
L 220.974807 287.319805 
L 221.137216 287.092728 
L 221.299624 289.64953 
L 221.462033 288.871442 
L 221.624441 286.828445 
L 221.78685 288.117498 
L 221.949258 287.174461 
L 222.111667 288.111067 
L 222.274075 287.931361 
L 222.436484 286.314609 
L 222.923709 289.721548 
L 223.086118 289.853902 
L 223.248526 286.754694 
L 223.573343 289.580467 
L 223.735752 288.855202 
L 223.89816 289.156308 
L 224.060568 288.56148 
L 224.385385 288.923934 
L 224.547794 288.508177 
L 224.710202 288.872715 
L 224.872611 289.860327 
L 225.035019 289.615727 
L 225.197428 290.571552 
L 225.359836 289.808712 
L 225.522245 289.841904 
L 225.684653 290.269049 
L 225.847062 287.210031 
L 226.00947 286.381621 
L 226.171879 287.001992 
L 226.334287 286.512786 
L 226.496696 287.529295 
L 226.659104 287.315831 
L 226.983921 289.902103 
L 227.14633 288.238836 
L 227.308738 288.150393 
L 227.471146 286.911849 
L 227.633555 288.564048 
L 227.795963 286.639637 
L 228.12078 288.392156 
L 228.445597 289.04198 
L 228.770414 287.606629 
L 229.095231 284.93379 
L 229.25764 279.716786 
L 229.420048 281.042973 
L 229.582457 285.028436 
L 229.744865 285.85852 
L 230.069682 285.157926 
L 230.232091 283.286262 
L 230.394499 288.276802 
L 230.556908 288.307207 
L 230.719316 288.849006 
L 230.881724 288.214182 
L 231.044133 286.839833 
L 231.206541 284.314309 
L 231.36895 284.415291 
L 231.531358 286.363376 
L 231.856175 281.546749 
L 232.180992 285.458308 
L 232.343401 283.565268 
L 232.505809 286.279264 
L 232.668218 286.506443 
L 232.830626 283.84637 
L 232.993035 284.529354 
L 233.155443 283.022474 
L 233.317852 285.81359 
L 233.48026 285.617683 
L 233.642669 287.214687 
L 233.805077 286.335291 
L 234.129894 287.685715 
L 234.292303 286.898425 
L 234.454711 288.357818 
L 234.617119 286.147364 
L 234.779528 288.995977 
L 234.941936 287.557702 
L 235.104345 288.86861 
L 235.266753 288.993796 
L 235.59157 290.490879 
L 235.753979 290.526072 
L 235.916387 290.879262 
L 236.078796 290.938081 
L 236.241204 291.193865 
L 236.403613 290.092922 
L 236.566021 287.633726 
L 236.72843 288.125264 
L 237.053247 291.12281 
L 237.378064 292.451941 
L 237.540472 292.691317 
L 237.702881 292.523858 
L 238.027697 291.56478 
L 238.190106 291.400651 
L 238.352514 290.344973 
L 238.514923 290.803763 
L 238.677331 291.957571 
L 238.83974 292.155189 
L 239.002148 293.569732 
L 239.164557 293.763105 
L 239.326965 293.495528 
L 239.489374 291.825243 
L 239.651782 292.384137 
L 239.814191 294.093311 
L 239.976599 293.630772 
L 240.139008 293.86736 
L 240.301416 293.278021 
L 240.463825 293.424386 
L 240.788642 292.646789 
L 240.95105 293.094428 
L 241.275867 293.0352 
L 241.438276 293.020225 
L 241.600684 292.404099 
L 241.925501 290.66053 
L 242.087909 290.121063 
L 242.250318 291.299825 
L 242.412726 287.980099 
L 242.575135 290.697418 
L 242.737543 291.471845 
L 242.899952 291.611751 
L 243.06236 291.497764 
L 243.549586 290.134578 
L 243.711994 290.956923 
L 243.874403 289.683985 
L 244.036811 290.418405 
L 244.19922 290.188866 
L 244.361628 289.75652 
L 244.524037 291.29122 
L 244.686445 291.178653 
L 244.848854 291.499217 
L 245.011262 292.218274 
L 245.17367 291.76083 
L 245.336079 290.551572 
L 245.498487 290.958497 
L 245.660896 292.93061 
L 245.985713 292.80942 
L 246.472938 291.259445 
L 246.635347 292.181322 
L 246.797755 290.595117 
L 246.960164 292.235207 
L 247.122572 292.371817 
L 247.609798 292.053001 
L 247.772206 292.818465 
L 247.934615 292.675141 
L 248.097023 292.868092 
L 248.259432 292.805128 
L 248.42184 292.875128 
L 248.584248 293.405018 
L 248.746657 293.45361 
L 248.909065 293.385978 
L 249.071474 292.822823 
L 249.396291 292.770308 
L 249.558699 293.215702 
L 249.721108 291.876887 
L 249.883516 291.730477 
L 250.208333 292.25338 
L 250.53315 292.173291 
L 250.695559 292.073472 
L 250.857967 291.783538 
L 251.020376 288.353126 
L 251.345193 291.326198 
L 251.507601 290.421565 
L 251.67001 291.117631 
L 251.832418 289.416732 
L 251.994827 290.22286 
L 252.482052 284.17873 
L 252.806869 290.591544 
L 252.969277 291.291654 
L 253.294094 290.08948 
L 253.618911 292.109891 
L 254.106137 290.302289 
L 254.268545 291.320671 
L 254.918179 292.310235 
L 255.080588 291.038366 
L 255.242996 291.916356 
L 255.405405 292.052945 
L 255.567813 292.04273 
L 255.730221 291.914278 
L 255.89263 292.165539 
L 256.379855 291.72039 
L 256.704672 291.961193 
L 257.029489 286.666301 
L 257.191898 287.373865 
L 257.354306 290.34086 
L 257.516715 291.249118 
L 257.841532 290.690423 
L 258.00394 290.876786 
L 258.166349 291.448472 
L 258.491166 289.349283 
L 258.653574 290.281574 
L 258.815983 288.089205 
L 258.978391 289.919411 
L 259.140799 286.929963 
L 259.303208 291.71449 
L 259.465616 290.102419 
L 259.790433 291.863467 
L 259.952842 291.534419 
L 260.277659 289.620251 
L 260.440067 289.590281 
L 260.764884 291.61922 
L 260.927293 291.777552 
L 261.089701 291.742891 
L 261.25211 291.556051 
L 261.414518 291.174452 
L 261.576927 291.348397 
L 261.739335 292.356648 
L 262.064152 292.839544 
L 262.226561 292.1705 
L 262.551378 292.475652 
L 262.713786 290.045023 
L 262.876194 291.482398 
L 263.038603 291.467249 
L 263.201011 291.579329 
L 263.36342 288.783875 
L 263.525828 289.307308 
L 263.688237 286.260076 
L 263.850645 290.37965 
L 264.013054 291.245856 
L 264.337871 286.985692 
L 264.662688 291.881291 
L 264.987505 292.494905 
L 265.149913 291.710569 
L 265.47473 285.475024 
L 265.637139 286.682129 
L 265.799547 290.309494 
L 265.961956 287.996176 
L 266.449181 291.785432 
L 266.611589 292.278323 
L 266.773998 292.316862 
L 266.936406 292.180892 
L 267.098815 292.612083 
L 267.261223 292.451361 
L 267.423632 293.172929 
L 267.58604 293.264576 
L 267.748449 293.174553 
L 267.910857 292.895285 
L 268.073266 292.013433 
L 268.235674 293.154369 
L 268.398083 290.87657 
L 268.560491 292.015239 
L 268.885308 292.726847 
L 269.047717 293.183865 
L 269.210125 292.696316 
L 269.372534 291.191327 
L 269.534942 291.042845 
L 269.69735 292.752973 
L 270.022167 293.141358 
L 270.184576 292.834426 
L 270.346984 292.823977 
L 270.671801 292.043308 
L 270.83421 291.627047 
L 270.996618 291.795852 
L 271.159027 291.14658 
L 271.321435 291.459221 
L 271.483844 291.147145 
L 271.646252 289.796288 
L 271.971069 291.941663 
L 272.133478 291.189307 
L 272.295886 291.919761 
L 272.620703 291.311926 
L 272.94552 291.940157 
L 273.107929 291.054581 
L 273.270337 291.014475 
L 273.432745 291.886023 
L 273.595154 291.543408 
L 273.757562 291.557036 
L 273.919971 292.222536 
L 274.244788 291.303394 
L 274.732013 290.371547 
L 274.894422 289.233518 
L 275.219239 290.307027 
L 275.381647 290.548782 
L 275.544056 290.054351 
L 275.706464 290.849961 
L 275.868873 290.32526 
L 276.031281 290.500263 
L 276.19369 289.817047 
L 276.518507 291.126711 
L 276.680915 288.746375 
L 276.843323 288.554418 
L 277.005732 287.367713 
L 277.16814 287.885875 
L 277.330549 284.495096 
L 277.492957 289.138185 
L 277.655366 288.899703 
L 277.817774 286.836667 
L 277.980183 287.855958 
L 278.142591 291.040612 
L 278.467408 291.545224 
L 278.792225 290.738362 
L 278.954634 291.331709 
L 279.117042 288.637252 
L 279.279451 292.050321 
L 279.441859 291.410435 
L 279.604268 289.808499 
L 279.766676 290.654589 
L 279.929085 290.38645 
L 280.091493 291.690229 
L 280.253901 291.742333 
L 280.41631 291.373713 
L 280.578718 291.665077 
L 280.741127 291.365406 
L 281.065944 292.018775 
L 281.228352 291.058387 
L 281.390761 292.185684 
L 281.553169 291.468547 
L 282.040395 291.141972 
L 282.202803 291.872598 
L 282.365212 289.671506 
L 282.852437 293.465315 
L 283.014846 292.702839 
L 283.339663 294.089563 
L 283.502071 293.782869 
L 283.66448 292.448996 
L 283.989296 294.079514 
L 284.151705 293.707978 
L 284.476522 293.725238 
L 284.63893 293.046778 
L 284.801339 293.771648 
L 285.126156 292.740139 
L 285.288564 293.38064 
L 285.450973 293.31678 
L 285.613381 293.445831 
L 285.77579 293.225655 
L 286.100607 287.080139 
L 286.425424 292.27361 
L 286.587832 292.955243 
L 286.750241 294.214721 
L 286.912649 294.411934 
L 287.237466 291.212032 
L 287.399874 291.435106 
L 287.8871 283.936808 
L 288.211917 290.545596 
L 288.536734 293.162805 
L 288.699142 293.179219 
L 289.023959 292.800256 
L 289.186368 292.976147 
L 289.511185 294.130907 
L 289.673593 293.873663 
L 289.836002 293.982 
L 289.99841 293.876277 
L 290.160819 294.127863 
L 290.323227 294.059515 
L 290.485636 292.898713 
L 290.648044 293.988694 
L 290.810452 293.937597 
L 290.972861 294.058869 
L 291.297678 293.424061 
L 291.460086 292.628168 
L 291.622495 292.473563 
L 291.947312 288.895531 
L 292.434537 292.226524 
L 292.596946 291.987137 
L 292.759354 290.198296 
L 293.084171 291.507115 
L 293.24658 291.784541 
L 293.571397 286.670873 
L 293.896214 291.104455 
L 294.058622 292.0855 
L 294.383439 292.206062 
L 294.545847 293.044017 
L 294.708256 291.726569 
L 294.870664 291.59705 
L 295.033073 292.641524 
L 295.195481 292.620259 
L 295.35789 292.372783 
L 295.520298 293.111874 
L 295.682707 292.529355 
L 295.845115 291.48848 
L 296.007524 289.659056 
L 296.169932 291.596389 
L 296.332341 291.487984 
L 296.657158 287.818366 
L 296.819566 291.134793 
L 296.981975 288.497811 
L 297.144383 288.713307 
L 297.306792 290.572239 
L 297.4692 289.258252 
L 297.631609 291.408395 
L 297.794017 287.444985 
L 298.118834 290.395538 
L 298.281242 290.225096 
L 298.443651 290.281591 
L 298.606059 290.721494 
L 298.768468 291.983556 
L 298.930876 292.068558 
L 299.255693 291.301901 
L 299.418102 291.324207 
L 299.742919 291.754982 
L 299.905327 291.599534 
L 300.230144 288.722128 
L 300.392553 289.811032 
L 300.554961 289.822612 
L 300.71737 289.373794 
L 300.879778 290.927853 
L 301.042187 290.369794 
L 301.367004 291.333748 
L 301.529412 291.084887 
L 301.69182 292.071967 
L 301.854229 292.189622 
L 302.179046 290.157639 
L 302.341454 293.435777 
L 302.503863 293.426959 
L 302.666271 294.055343 
L 302.82868 293.237962 
L 302.991088 294.455014 
L 303.153497 294.077185 
L 303.478314 294.468889 
L 303.640722 294.331823 
L 303.803131 294.582409 
L 303.965539 294.111297 
L 304.127948 294.623652 
L 304.290356 294.241604 
L 304.452765 295.098579 
L 304.777582 292.91395 
L 304.93999 292.672963 
L 305.102398 293.171847 
L 305.264807 291.872648 
L 305.427215 293.501376 
L 305.589624 292.143648 
L 305.914441 293.693996 
L 306.076849 291.519849 
L 306.239258 292.702239 
L 306.401666 291.51864 
L 306.564075 292.242468 
L 306.888892 292.199928 
L 307.0513 292.497024 
L 307.213709 292.046398 
L 307.376117 292.075052 
L 307.538526 291.900505 
L 307.700934 292.136821 
L 307.863343 291.782342 
L 308.025751 292.127528 
L 308.18816 291.623314 
L 308.350568 292.10029 
L 308.512976 291.417162 
L 308.675385 288.822378 
L 308.837793 291.100929 
L 309.000202 289.399733 
L 309.16261 289.659434 
L 309.325019 291.931021 
L 309.649836 292.640502 
L 309.812244 291.488474 
L 310.137061 293.318707 
L 310.29947 293.186928 
L 310.461878 292.789696 
L 310.624287 291.897733 
L 310.786695 292.999924 
L 310.949104 292.565412 
L 311.111512 292.858976 
L 311.273921 292.88117 
L 311.436329 293.136799 
L 311.761146 290.982579 
L 311.923555 292.703135 
L 312.248371 292.781338 
L 312.41078 292.769666 
L 313.060414 290.6668 
L 313.222822 290.848342 
L 313.385231 291.952784 
L 313.547639 292.291966 
L 313.710048 291.60311 
L 313.872456 292.085004 
L 314.197273 291.927288 
L 314.359682 291.846393 
L 314.52209 291.521093 
L 314.684499 289.799988 
L 314.846907 291.639789 
L 315.009316 291.39266 
L 315.334133 289.275631 
L 315.658949 292.212013 
L 315.821358 290.482938 
L 316.146175 290.116545 
L 316.470992 292.053667 
L 316.6334 291.658226 
L 316.795809 292.107952 
L 316.958217 291.981584 
L 317.120626 291.453209 
L 317.283034 291.875627 
L 317.445443 291.829775 
L 317.77026 290.520102 
L 318.095077 291.002528 
L 318.257485 291.641233 
L 318.419894 291.510087 
L 318.582302 291.586631 
L 318.744711 291.828428 
L 318.907119 291.152557 
L 319.231936 291.91176 
L 319.556753 292.120068 
L 319.88157 292.154841 
L 320.043978 292.707291 
L 320.531204 293.043271 
L 320.693612 289.760007 
L 320.856021 289.841092 
L 321.018429 288.647442 
L 321.343246 290.763472 
L 321.505655 290.817844 
L 321.668063 291.525021 
L 321.830472 290.864215 
L 321.99288 291.942438 
L 322.155289 290.039984 
L 322.317697 292.100736 
L 322.804922 286.3576 
L 322.967331 290.021139 
L 323.129739 290.050701 
L 323.292148 290.465928 
L 323.454556 291.694778 
L 323.616965 291.922734 
L 323.779373 291.374528 
L 323.941782 291.459458 
L 324.10419 291.073153 
L 324.429007 288.349764 
L 324.753824 292.048593 
L 324.916233 292.040369 
L 325.078641 290.052745 
L 325.24105 292.162832 
L 325.565867 290.21863 
L 325.728275 292.126106 
L 325.890684 292.671142 
L 326.053092 292.252461 
L 326.2155 292.690149 
L 326.377909 292.705236 
L 326.540317 293.239269 
L 326.702726 293.219638 
L 327.027543 293.415116 
L 327.189951 293.223312 
L 327.35236 292.685045 
L 327.514768 293.551934 
L 327.677177 293.38797 
L 327.839585 293.454577 
L 328.001994 292.257591 
L 328.164402 292.153883 
L 328.326811 287.507696 
L 328.814036 289.794077 
L 328.976445 289.36803 
L 329.138853 290.704624 
L 329.301262 289.892773 
L 329.626078 293.525709 
L 329.950895 286.586462 
L 330.275712 292.016125 
L 330.600529 294.092238 
L 330.762938 293.72023 
L 330.925346 293.683602 
L 331.087755 290.876861 
L 331.412572 293.500117 
L 331.57498 293.609623 
L 331.737389 293.286993 
L 331.899797 291.936017 
L 332.062206 292.418073 
L 332.224614 291.452092 
L 332.549431 292.844862 
L 332.71184 291.75691 
L 332.874248 291.971766 
L 333.199065 292.662611 
L 333.361473 293.821322 
L 333.523882 293.518278 
L 333.68629 293.983877 
L 333.848699 293.390031 
L 334.011107 294.339853 
L 334.173516 293.944085 
L 334.335924 291.33009 
L 334.498333 293.947324 
L 334.660741 293.368091 
L 334.82315 290.923192 
L 334.985558 290.616164 
L 335.147967 289.372397 
L 335.310375 291.441683 
L 335.472784 291.127198 
L 335.635192 293.835073 
L 335.797601 293.852228 
L 336.122418 293.074023 
L 336.447235 290.929283 
L 336.609643 291.420923 
L 336.772051 292.450323 
L 336.93446 288.130842 
L 337.096868 292.099274 
L 337.421685 291.33613 
L 337.746502 294.469028 
L 337.908911 294.507789 
L 338.233728 295.162613 
L 338.558545 294.722826 
L 338.720953 295.212697 
L 338.883362 294.954597 
L 339.04577 295.338284 
L 339.208179 294.553638 
L 339.532996 292.430485 
L 339.695404 294.126837 
L 339.857813 292.300426 
L 340.020221 293.912109 
L 340.182629 293.671669 
L 340.345038 294.329605 
L 340.832263 294.544237 
L 340.994672 293.806059 
L 341.15708 294.666574 
L 341.644306 294.354305 
L 341.969123 293.329154 
L 342.29394 294.211589 
L 342.456348 293.318528 
L 342.618757 293.966163 
L 342.781165 293.587226 
L 342.943574 289.797196 
L 343.268391 294.131475 
L 343.593208 293.566782 
L 343.755616 291.191188 
L 344.40525 295.20273 
L 344.567658 294.922609 
L 344.730067 294.949143 
L 345.217292 294.195967 
L 345.379701 294.565009 
L 345.542109 292.260268 
L 345.704518 292.46938 
L 346.029335 286.378404 
L 346.191743 290.660844 
L 346.51656 289.391404 
L 346.678969 294.231693 
L 347.003786 290.88336 
L 347.166194 289.784791 
L 347.491011 289.410267 
L 347.815828 294.257608 
L 348.303053 291.403384 
L 348.465462 292.772262 
L 348.62787 290.72139 
L 348.790279 291.192168 
L 349.115096 293.46068 
L 349.277504 293.100868 
L 349.602321 294.850828 
L 349.76473 294.728504 
L 349.927138 294.176125 
L 350.089547 294.861265 
L 350.251955 294.775961 
L 350.576772 293.562921 
L 350.73918 294.663957 
L 350.901589 294.005294 
L 351.063997 293.979879 
L 351.226406 293.572798 
L 351.388814 293.642115 
L 351.713631 295.174007 
L 351.87604 295.077782 
L 352.200857 294.322428 
L 352.363265 295.270546 
L 352.525674 295.163987 
L 352.688082 295.488 
L 352.850491 295.410834 
L 353.012899 295.054226 
L 353.175308 295.216206 
L 353.337716 294.610014 
L 353.500125 294.581151 
L 353.662533 294.170544 
L 353.98735 289.943517 
L 354.149759 290.007783 
L 354.312167 291.200729 
L 354.474575 291.435322 
L 355.124209 294.848584 
L 355.286618 293.460493 
L 355.611435 295.100611 
L 356.09866 294.734517 
L 356.261069 294.365237 
L 356.423477 293.620126 
L 356.585886 293.974636 
L 356.748294 294.676045 
L 357.073111 294.444225 
L 357.23552 295.148021 
L 357.397928 294.438735 
L 357.560337 294.485833 
L 357.885153 293.987044 
L 358.047562 294.390603 
L 358.372379 294.260593 
L 358.534787 293.854353 
L 358.697196 294.484859 
L 358.859604 294.003513 
L 359.022013 294.051357 
L 359.184421 294.294037 
L 359.34683 294.233824 
L 359.509238 294.345725 
L 359.671647 294.192808 
L 359.834055 294.508802 
L 360.158872 293.373344 
L 360.321281 293.435748 
L 360.646098 290.43761 
L 360.808506 292.731008 
L 360.970915 291.382318 
L 361.133323 291.571702 
L 361.295732 292.680303 
L 361.45814 292.89338 
L 361.620548 293.317763 
L 361.782957 292.910156 
L 362.107774 290.291279 
L 362.432591 289.627699 
L 362.757408 292.542426 
L 362.919816 292.324367 
L 363.082225 291.570471 
L 363.244633 292.425169 
L 363.407042 292.389439 
L 363.56945 293.55146 
L 363.731859 293.270885 
L 363.894267 291.91351 
L 364.056676 291.961061 
L 364.219084 292.392238 
L 364.543901 292.163622 
L 365.031126 289.546821 
L 365.193535 292.906941 
L 365.355943 293.008834 
L 365.518352 294.017875 
L 365.68076 294.088902 
L 365.843169 293.889365 
L 366.005577 294.450642 
L 366.167986 294.585707 
L 366.330394 294.517966 
L 366.492803 293.970379 
L 366.81762 291.241269 
L 366.980028 291.154479 
L 367.304845 295.163523 
L 367.467254 294.748233 
L 367.629662 294.769115 
L 367.792071 293.988771 
L 367.954479 295.088933 
L 368.116888 292.166262 
L 368.279296 294.642507 
L 368.441704 294.687187 
L 368.604113 294.542417 
L 368.92893 295.460623 
L 369.253747 295.313533 
L 369.578564 294.196143 
L 369.740972 294.697069 
L 370.065789 294.517353 
L 370.390606 294.866888 
L 370.715423 294.188613 
L 370.877832 293.290658 
L 371.04024 293.206397 
L 371.365057 293.284618 
L 371.689874 293.557945 
L 371.852283 293.648203 
L 372.014691 294.1431 
L 372.339508 294.025813 
L 372.501916 294.555233 
L 372.664325 294.518451 
L 372.826733 294.903351 
L 372.989142 294.82725 
L 373.313959 294.134949 
L 373.801184 290.391657 
L 373.963593 291.458345 
L 374.28841 294.096177 
L 374.775635 286.524462 
L 374.938044 292.215756 
L 375.425269 294.157666 
L 375.912494 294.402917 
L 376.074903 294.314695 
L 376.237311 294.358618 
L 376.562128 293.588039 
L 376.724537 292.81746 
L 376.886945 291.051339 
L 377.049354 292.317144 
L 377.374171 289.448998 
L 377.536579 288.153238 
L 377.698988 292.845011 
L 377.861396 290.760092 
L 378.023805 293.113507 
L 378.186213 291.884092 
L 378.348622 292.921693 
L 378.51103 293.070152 
L 378.673439 291.630422 
L 378.835847 291.617045 
L 378.998255 290.609264 
L 379.160664 291.166044 
L 379.323072 290.626425 
L 379.485481 290.762432 
L 379.647889 292.082983 
L 379.972706 291.101824 
L 380.135115 292.255064 
L 380.297523 292.490599 
L 380.459932 291.909858 
L 380.62234 292.836813 
L 380.784749 292.973175 
L 380.947157 292.747033 
L 381.271974 292.047318 
L 381.434383 291.955223 
L 381.596791 291.488422 
L 381.921608 292.442951 
L 382.246425 289.905867 
L 382.408834 289.83339 
L 382.571242 290.763429 
L 382.73365 290.436453 
L 382.896059 290.385561 
L 383.058467 289.777313 
L 383.383284 289.802169 
L 383.545693 288.800345 
L 383.708101 288.86613 
L 383.87051 288.598705 
L 384.195327 289.282399 
L 384.357735 287.691627 
L 384.520144 288.561882 
L 384.682552 287.448792 
L 384.844961 288.332325 
L 385.007369 286.270388 
L 385.169778 287.364509 
L 385.332186 287.044596 
L 385.494595 285.45429 
L 385.657003 285.888071 
L 385.819412 286.805943 
L 385.98182 287.073716 
L 386.144228 285.745675 
L 386.306637 287.125646 
L 386.631454 287.660781 
L 386.793862 287.589183 
L 386.956271 284.848929 
L 387.118679 287.911634 
L 387.281088 288.623867 
L 387.605905 282.94578 
L 387.930722 289.077581 
L 388.09313 286.952713 
L 388.255539 289.113182 
L 388.580356 289.91926 
L 388.742764 287.998212 
L 388.905173 288.194273 
L 389.067581 288.59971 
L 389.22999 291.37597 
L 389.392398 291.267228 
L 389.554806 291.561319 
L 389.717215 290.865596 
L 389.879623 290.840824 
L 390.042032 290.011831 
L 390.20444 289.900196 
L 390.366849 289.575212 
L 390.529257 291.565267 
L 390.691666 292.115855 
L 391.016483 290.685994 
L 391.178891 290.617814 
L 391.3413 289.997237 
L 391.828525 290.807739 
L 391.990934 291.663572 
L 392.153342 291.522686 
L 392.478159 292.902491 
L 392.640568 292.171064 
L 392.965385 293.236104 
L 393.127793 291.455191 
L 393.290201 291.748796 
L 393.45261 288.156582 
L 393.777427 293.098867 
L 393.939835 292.835652 
L 394.102244 291.881982 
L 394.264652 292.141082 
L 394.427061 290.617489 
L 394.751878 294.504615 
L 394.914286 293.889141 
L 395.076695 294.225992 
L 395.56392 292.510736 
L 395.726329 292.743378 
L 396.213554 291.998061 
L 396.375963 292.373795 
L 396.538371 293.093342 
L 396.700779 292.424209 
L 396.863188 292.820455 
L 397.025596 294.05403 
L 397.188005 292.53083 
L 397.350413 292.513328 
L 397.512822 293.144228 
L 397.67523 293.23381 
L 397.837639 292.698237 
L 398.000047 292.723739 
L 398.487273 290.3517 
L 398.487273 290.3517 
" style="fill:none;stroke:#1f77b4;stroke-linecap:round;stroke-width:1.5;"/>
   </g>
   <g id="patch_3">
    <path d="M 57.6 307.584 
L 57.6 41.472 
" style="fill:none;stroke:#cccccc;stroke-linecap:square;stroke-linejoin:miter;"/>
   </g>
   <g id="patch_4">
    <path d="M 414.72 307.584 
L 414.72 41.472 
" style="fill:none;stroke:#cccccc;stroke-linecap:square;stroke-linejoin:miter;"/>
   </g>
   <g id="patch_5">
    <path d="M 57.6 307.584 
L 414.72 307.584 
" style="fill:none;stroke:#cccccc;stroke-linecap:square;stroke-linejoin:miter;"/>
   </g>
   <g id="patch_6">
    <path d="M 57.6 41.472 
L 414.72 41.472 
" style="fill:none;stroke:#cccccc;stroke-linecap:square;stroke-linejoin:miter;"/>
   </g>
  </g>
 </g>
 <defs>
  <clipPath id="p5320fa2a72">
   <rect height="266.112" width="357.12" x="57.6" y="41.472"/>
  </clipPath>
 </defs>
</svg>
