<?xml version="1.0" encoding="utf-8" standalone="no"?>
<!DOCTYPE svg PUBLIC "-//W3C//DTD SVG 1.1//EN"
  "http://www.w3.org/Graphics/SVG/1.1/DTD/svg11.dtd">
<!-- Created with matplotlib (https://matplotlib.org/) -->
<svg height="345.6pt" version="1.1" viewBox="0 0 460.8 345.6" width="460.8pt" xmlns="http://www.w3.org/2000/svg" xmlns:xlink="http://www.w3.org/1999/xlink">
 <defs>
  <style type="text/css">
*{stroke-linecap:butt;stroke-linejoin:round;}
  </style>
 </defs>
 <g id="figure_1">
  <g id="patch_1">
   <path d="M 0 345.6 
L 460.8 345.6 
L 460.8 0 
L 0 0 
z
" style="fill:#ffffff;"/>
  </g>
  <g id="axes_1">
   <g id="patch_2">
    <path d="M 57.6 307.584 
L 414.72 307.584 
L 414.72 41.472 
L 57.6 41.472 
z
" style="fill:#ffffff;"/>
   </g>
   <g id="matplotlib.axis_1">
    <g id="xtick_1">
     <g id="line2d_1">
      <path clip-path="url(#p149325e147)" d="M 73.832727 307.584 
L 73.832727 41.472 
" style="fill:none;stroke:#cccccc;stroke-linecap:round;stroke-width:0.8;"/>
     </g>
     <g id="line2d_2"/>
     <g id="text_1">
      <!-- 0 -->
      <defs>
       <path d="M 4.15625 35.296875 
Q 4.15625 48 6.765625 55.734375 
Q 9.375 63.484375 14.515625 67.671875 
Q 19.671875 71.875 27.484375 71.875 
Q 33.25 71.875 37.59375 69.546875 
Q 41.9375 67.234375 44.765625 62.859375 
Q 47.609375 58.5 49.21875 52.21875 
Q 50.828125 45.953125 50.828125 35.296875 
Q 50.828125 22.703125 48.234375 14.96875 
Q 45.65625 7.234375 40.5 3 
Q 35.359375 -1.21875 27.484375 -1.21875 
Q 17.140625 -1.21875 11.234375 6.203125 
Q 4.15625 15.140625 4.15625 35.296875 
z
M 13.1875 35.296875 
Q 13.1875 17.671875 17.3125 11.828125 
Q 21.4375 6 27.484375 6 
Q 33.546875 6 37.671875 11.859375 
Q 41.796875 17.71875 41.796875 35.296875 
Q 41.796875 52.984375 37.671875 58.78125 
Q 33.546875 64.59375 27.390625 64.59375 
Q 21.34375 64.59375 17.71875 59.46875 
Q 13.1875 52.9375 13.1875 35.296875 
z
" id="ArialMT-48"/>
      </defs>
      <g style="fill:#262626;" transform="translate(71.052259 318.241812)scale(0.1 -0.1)">
       <use xlink:href="#ArialMT-48"/>
      </g>
     </g>
    </g>
    <g id="xtick_2">
     <g id="line2d_3">
      <path clip-path="url(#p149325e147)" d="M 114.434847 307.584 
L 114.434847 41.472 
" style="fill:none;stroke:#cccccc;stroke-linecap:round;stroke-width:0.8;"/>
     </g>
     <g id="line2d_4"/>
     <g id="text_2">
      <!-- 2500 -->
      <defs>
       <path d="M 50.34375 8.453125 
L 50.34375 0 
L 3.03125 0 
Q 2.9375 3.171875 4.046875 6.109375 
Q 5.859375 10.9375 9.828125 15.625 
Q 13.8125 20.3125 21.34375 26.46875 
Q 33.015625 36.03125 37.109375 41.625 
Q 41.21875 47.21875 41.21875 52.203125 
Q 41.21875 57.421875 37.46875 61 
Q 33.734375 64.59375 27.734375 64.59375 
Q 21.390625 64.59375 17.578125 60.78125 
Q 13.765625 56.984375 13.71875 50.25 
L 4.6875 51.171875 
Q 5.609375 61.28125 11.65625 66.578125 
Q 17.71875 71.875 27.9375 71.875 
Q 38.234375 71.875 44.234375 66.15625 
Q 50.25 60.453125 50.25 52 
Q 50.25 47.703125 48.484375 43.546875 
Q 46.734375 39.40625 42.65625 34.8125 
Q 38.578125 30.21875 29.109375 22.21875 
Q 21.1875 15.578125 18.9375 13.203125 
Q 16.703125 10.84375 15.234375 8.453125 
z
" id="ArialMT-50"/>
       <path d="M 4.15625 18.75 
L 13.375 19.53125 
Q 14.40625 12.796875 18.140625 9.390625 
Q 21.875 6 27.15625 6 
Q 33.5 6 37.890625 10.78125 
Q 42.28125 15.578125 42.28125 23.484375 
Q 42.28125 31 38.0625 35.34375 
Q 33.84375 39.703125 27 39.703125 
Q 22.75 39.703125 19.328125 37.765625 
Q 15.921875 35.84375 13.96875 32.765625 
L 5.71875 33.84375 
L 12.640625 70.609375 
L 48.25 70.609375 
L 48.25 62.203125 
L 19.671875 62.203125 
L 15.828125 42.96875 
Q 22.265625 47.46875 29.34375 47.46875 
Q 38.71875 47.46875 45.15625 40.96875 
Q 51.609375 34.46875 51.609375 24.265625 
Q 51.609375 14.546875 45.953125 7.46875 
Q 39.0625 -1.21875 27.15625 -1.21875 
Q 17.390625 -1.21875 11.203125 4.25 
Q 5.03125 9.71875 4.15625 18.75 
z
" id="ArialMT-53"/>
      </defs>
      <g style="fill:#262626;" transform="translate(103.312972 318.241812)scale(0.1 -0.1)">
       <use xlink:href="#ArialMT-50"/>
       <use x="55.615234" xlink:href="#ArialMT-53"/>
       <use x="111.230469" xlink:href="#ArialMT-48"/>
       <use x="166.845703" xlink:href="#ArialMT-48"/>
      </g>
     </g>
    </g>
    <g id="xtick_3">
     <g id="line2d_5">
      <path clip-path="url(#p149325e147)" d="M 155.036966 307.584 
L 155.036966 41.472 
" style="fill:none;stroke:#cccccc;stroke-linecap:round;stroke-width:0.8;"/>
     </g>
     <g id="line2d_6"/>
     <g id="text_3">
      <!-- 5000 -->
      <g style="fill:#262626;" transform="translate(143.915091 318.241812)scale(0.1 -0.1)">
       <use xlink:href="#ArialMT-53"/>
       <use x="55.615234" xlink:href="#ArialMT-48"/>
       <use x="111.230469" xlink:href="#ArialMT-48"/>
       <use x="166.845703" xlink:href="#ArialMT-48"/>
      </g>
     </g>
    </g>
    <g id="xtick_4">
     <g id="line2d_7">
      <path clip-path="url(#p149325e147)" d="M 195.639085 307.584 
L 195.639085 41.472 
" style="fill:none;stroke:#cccccc;stroke-linecap:round;stroke-width:0.8;"/>
     </g>
     <g id="line2d_8"/>
     <g id="text_4">
      <!-- 7500 -->
      <defs>
       <path d="M 4.734375 62.203125 
L 4.734375 70.65625 
L 51.078125 70.65625 
L 51.078125 63.8125 
Q 44.234375 56.546875 37.515625 44.484375 
Q 30.8125 32.421875 27.15625 19.671875 
Q 24.515625 10.6875 23.78125 0 
L 14.75 0 
Q 14.890625 8.453125 18.0625 20.40625 
Q 21.234375 32.375 27.171875 43.484375 
Q 33.109375 54.59375 39.796875 62.203125 
z
" id="ArialMT-55"/>
      </defs>
      <g style="fill:#262626;" transform="translate(184.51721 318.241812)scale(0.1 -0.1)">
       <use xlink:href="#ArialMT-55"/>
       <use x="55.615234" xlink:href="#ArialMT-53"/>
       <use x="111.230469" xlink:href="#ArialMT-48"/>
       <use x="166.845703" xlink:href="#ArialMT-48"/>
      </g>
     </g>
    </g>
    <g id="xtick_5">
     <g id="line2d_9">
      <path clip-path="url(#p149325e147)" d="M 236.241204 307.584 
L 236.241204 41.472 
" style="fill:none;stroke:#cccccc;stroke-linecap:round;stroke-width:0.8;"/>
     </g>
     <g id="line2d_10"/>
     <g id="text_5">
      <!-- 10000 -->
      <defs>
       <path d="M 37.25 0 
L 28.46875 0 
L 28.46875 56 
Q 25.296875 52.984375 20.140625 49.953125 
Q 14.984375 46.921875 10.890625 45.40625 
L 10.890625 53.90625 
Q 18.265625 57.375 23.78125 62.296875 
Q 29.296875 67.234375 31.59375 71.875 
L 37.25 71.875 
z
" id="ArialMT-49"/>
      </defs>
      <g style="fill:#262626;" transform="translate(222.33886 318.241812)scale(0.1 -0.1)">
       <use xlink:href="#ArialMT-49"/>
       <use x="55.615234" xlink:href="#ArialMT-48"/>
       <use x="111.230469" xlink:href="#ArialMT-48"/>
       <use x="166.845703" xlink:href="#ArialMT-48"/>
       <use x="222.460938" xlink:href="#ArialMT-48"/>
      </g>
     </g>
    </g>
    <g id="xtick_6">
     <g id="line2d_11">
      <path clip-path="url(#p149325e147)" d="M 276.843323 307.584 
L 276.843323 41.472 
" style="fill:none;stroke:#cccccc;stroke-linecap:round;stroke-width:0.8;"/>
     </g>
     <g id="line2d_12"/>
     <g id="text_6">
      <!-- 12500 -->
      <g style="fill:#262626;" transform="translate(262.94098 318.241812)scale(0.1 -0.1)">
       <use xlink:href="#ArialMT-49"/>
       <use x="55.615234" xlink:href="#ArialMT-50"/>
       <use x="111.230469" xlink:href="#ArialMT-53"/>
       <use x="166.845703" xlink:href="#ArialMT-48"/>
       <use x="222.460938" xlink:href="#ArialMT-48"/>
      </g>
     </g>
    </g>
    <g id="xtick_7">
     <g id="line2d_13">
      <path clip-path="url(#p149325e147)" d="M 317.445443 307.584 
L 317.445443 41.472 
" style="fill:none;stroke:#cccccc;stroke-linecap:round;stroke-width:0.8;"/>
     </g>
     <g id="line2d_14"/>
     <g id="text_7">
      <!-- 15000 -->
      <g style="fill:#262626;" transform="translate(303.543099 318.241812)scale(0.1 -0.1)">
       <use xlink:href="#ArialMT-49"/>
       <use x="55.615234" xlink:href="#ArialMT-53"/>
       <use x="111.230469" xlink:href="#ArialMT-48"/>
       <use x="166.845703" xlink:href="#ArialMT-48"/>
       <use x="222.460938" xlink:href="#ArialMT-48"/>
      </g>
     </g>
    </g>
    <g id="xtick_8">
     <g id="line2d_15">
      <path clip-path="url(#p149325e147)" d="M 358.047562 307.584 
L 358.047562 41.472 
" style="fill:none;stroke:#cccccc;stroke-linecap:round;stroke-width:0.8;"/>
     </g>
     <g id="line2d_16"/>
     <g id="text_8">
      <!-- 17500 -->
      <g style="fill:#262626;" transform="translate(344.145218 318.241812)scale(0.1 -0.1)">
       <use xlink:href="#ArialMT-49"/>
       <use x="55.615234" xlink:href="#ArialMT-55"/>
       <use x="111.230469" xlink:href="#ArialMT-53"/>
       <use x="166.845703" xlink:href="#ArialMT-48"/>
       <use x="222.460938" xlink:href="#ArialMT-48"/>
      </g>
     </g>
    </g>
    <g id="xtick_9">
     <g id="line2d_17">
      <path clip-path="url(#p149325e147)" d="M 398.649681 307.584 
L 398.649681 41.472 
" style="fill:none;stroke:#cccccc;stroke-linecap:round;stroke-width:0.8;"/>
     </g>
     <g id="line2d_18"/>
     <g id="text_9">
      <!-- 20000 -->
      <g style="fill:#262626;" transform="translate(384.747337 318.241812)scale(0.1 -0.1)">
       <use xlink:href="#ArialMT-50"/>
       <use x="55.615234" xlink:href="#ArialMT-48"/>
       <use x="111.230469" xlink:href="#ArialMT-48"/>
       <use x="166.845703" xlink:href="#ArialMT-48"/>
       <use x="222.460938" xlink:href="#ArialMT-48"/>
      </g>
     </g>
    </g>
    <g id="text_10">
     <!-- SARSA(Lambda) - episodes -->
     <defs>
      <path d="M 4.5 23 
L 13.421875 23.78125 
Q 14.0625 18.40625 16.375 14.96875 
Q 18.703125 11.53125 23.578125 9.40625 
Q 28.46875 7.28125 34.578125 7.28125 
Q 39.984375 7.28125 44.140625 8.890625 
Q 48.296875 10.5 50.3125 13.296875 
Q 52.34375 16.109375 52.34375 19.4375 
Q 52.34375 22.796875 50.390625 25.3125 
Q 48.4375 27.828125 43.953125 29.546875 
Q 41.0625 30.671875 31.203125 33.03125 
Q 21.34375 35.40625 17.390625 37.5 
Q 12.25 40.1875 9.734375 44.15625 
Q 7.234375 48.140625 7.234375 53.078125 
Q 7.234375 58.5 10.296875 63.203125 
Q 13.375 67.921875 19.28125 70.359375 
Q 25.203125 72.796875 32.421875 72.796875 
Q 40.375 72.796875 46.453125 70.234375 
Q 52.546875 67.671875 55.8125 62.6875 
Q 59.078125 57.71875 59.328125 51.421875 
L 50.25 50.734375 
Q 49.515625 57.515625 45.28125 60.984375 
Q 41.0625 64.453125 32.8125 64.453125 
Q 24.21875 64.453125 20.28125 61.296875 
Q 16.359375 58.15625 16.359375 53.71875 
Q 16.359375 49.859375 19.140625 47.359375 
Q 21.875 44.875 33.421875 42.265625 
Q 44.96875 39.65625 49.265625 37.703125 
Q 55.515625 34.8125 58.484375 30.390625 
Q 61.46875 25.984375 61.46875 20.21875 
Q 61.46875 14.5 58.203125 9.4375 
Q 54.9375 4.390625 48.796875 1.578125 
Q 42.671875 -1.21875 35.015625 -1.21875 
Q 25.296875 -1.21875 18.71875 1.609375 
Q 12.15625 4.4375 8.421875 10.125 
Q 4.6875 15.828125 4.5 23 
z
" id="ArialMT-83"/>
      <path d="M -0.140625 0 
L 27.34375 71.578125 
L 37.546875 71.578125 
L 66.84375 0 
L 56.0625 0 
L 47.703125 21.6875 
L 17.78125 21.6875 
L 9.90625 0 
z
M 20.515625 29.390625 
L 44.78125 29.390625 
L 37.3125 49.21875 
Q 33.890625 58.25 32.234375 64.0625 
Q 30.859375 57.171875 28.375 50.390625 
z
" id="ArialMT-65"/>
      <path d="M 7.859375 0 
L 7.859375 71.578125 
L 39.59375 71.578125 
Q 49.171875 71.578125 54.140625 69.640625 
Q 59.125 67.71875 62.109375 62.828125 
Q 65.09375 57.953125 65.09375 52.046875 
Q 65.09375 44.4375 60.15625 39.203125 
Q 55.21875 33.984375 44.921875 32.5625 
Q 48.6875 30.765625 50.640625 29 
Q 54.78125 25.203125 58.5 19.484375 
L 70.953125 0 
L 59.03125 0 
L 49.5625 14.890625 
Q 45.40625 21.34375 42.71875 24.75 
Q 40.046875 28.171875 37.921875 29.53125 
Q 35.796875 30.90625 33.59375 31.453125 
Q 31.984375 31.78125 28.328125 31.78125 
L 17.328125 31.78125 
L 17.328125 0 
z
M 17.328125 39.984375 
L 37.703125 39.984375 
Q 44.1875 39.984375 47.84375 41.328125 
Q 51.515625 42.671875 53.421875 45.625 
Q 55.328125 48.578125 55.328125 52.046875 
Q 55.328125 57.125 51.640625 60.390625 
Q 47.953125 63.671875 39.984375 63.671875 
L 17.328125 63.671875 
z
" id="ArialMT-82"/>
      <path d="M 23.390625 -21.046875 
Q 16.109375 -11.859375 11.078125 0.4375 
Q 6.0625 12.75 6.0625 25.921875 
Q 6.0625 37.546875 9.8125 48.1875 
Q 14.203125 60.546875 23.390625 72.796875 
L 29.6875 72.796875 
Q 23.78125 62.640625 21.875 58.296875 
Q 18.890625 51.5625 17.1875 44.234375 
Q 15.09375 35.109375 15.09375 25.875 
Q 15.09375 2.390625 29.6875 -21.046875 
z
" id="ArialMT-40"/>
      <path d="M 7.328125 0 
L 7.328125 71.578125 
L 16.796875 71.578125 
L 16.796875 8.453125 
L 52.046875 8.453125 
L 52.046875 0 
z
" id="ArialMT-76"/>
      <path d="M 40.4375 6.390625 
Q 35.546875 2.25 31.03125 0.53125 
Q 26.515625 -1.171875 21.34375 -1.171875 
Q 12.796875 -1.171875 8.203125 3 
Q 3.609375 7.171875 3.609375 13.671875 
Q 3.609375 17.484375 5.34375 20.625 
Q 7.078125 23.78125 9.890625 25.6875 
Q 12.703125 27.59375 16.21875 28.5625 
Q 18.796875 29.25 24.03125 29.890625 
Q 34.671875 31.15625 39.703125 32.90625 
Q 39.75 34.71875 39.75 35.203125 
Q 39.75 40.578125 37.25 42.78125 
Q 33.890625 45.75 27.25 45.75 
Q 21.046875 45.75 18.09375 43.578125 
Q 15.140625 41.40625 13.71875 35.890625 
L 5.125 37.0625 
Q 6.296875 42.578125 8.984375 45.96875 
Q 11.671875 49.359375 16.75 51.1875 
Q 21.828125 53.03125 28.515625 53.03125 
Q 35.15625 53.03125 39.296875 51.46875 
Q 43.453125 49.90625 45.40625 47.53125 
Q 47.359375 45.171875 48.140625 41.546875 
Q 48.578125 39.3125 48.578125 33.453125 
L 48.578125 21.734375 
Q 48.578125 9.46875 49.140625 6.21875 
Q 49.703125 2.984375 51.375 0 
L 42.1875 0 
Q 40.828125 2.734375 40.4375 6.390625 
z
M 39.703125 26.03125 
Q 34.90625 24.078125 25.34375 22.703125 
Q 19.921875 21.921875 17.671875 20.9375 
Q 15.4375 19.96875 14.203125 18.09375 
Q 12.984375 16.21875 12.984375 13.921875 
Q 12.984375 10.40625 15.640625 8.0625 
Q 18.3125 5.71875 23.4375 5.71875 
Q 28.515625 5.71875 32.46875 7.9375 
Q 36.421875 10.15625 38.28125 14.015625 
Q 39.703125 17 39.703125 22.796875 
z
" id="ArialMT-97"/>
      <path d="M 6.59375 0 
L 6.59375 51.859375 
L 14.453125 51.859375 
L 14.453125 44.578125 
Q 16.890625 48.390625 20.9375 50.703125 
Q 25 53.03125 30.171875 53.03125 
Q 35.9375 53.03125 39.625 50.640625 
Q 43.3125 48.25 44.828125 43.953125 
Q 50.984375 53.03125 60.84375 53.03125 
Q 68.5625 53.03125 72.703125 48.75 
Q 76.859375 44.484375 76.859375 35.59375 
L 76.859375 0 
L 68.109375 0 
L 68.109375 32.671875 
Q 68.109375 37.9375 67.25 40.25 
Q 66.40625 42.578125 64.15625 43.984375 
Q 61.921875 45.40625 58.890625 45.40625 
Q 53.421875 45.40625 49.796875 41.765625 
Q 46.1875 38.140625 46.1875 30.125 
L 46.1875 0 
L 37.40625 0 
L 37.40625 33.6875 
Q 37.40625 39.546875 35.25 42.46875 
Q 33.109375 45.40625 28.21875 45.40625 
Q 24.515625 45.40625 21.359375 43.453125 
Q 18.21875 41.5 16.796875 37.734375 
Q 15.375 33.984375 15.375 26.90625 
L 15.375 0 
z
" id="ArialMT-109"/>
      <path d="M 14.703125 0 
L 6.546875 0 
L 6.546875 71.578125 
L 15.328125 71.578125 
L 15.328125 46.046875 
Q 20.90625 53.03125 29.546875 53.03125 
Q 34.328125 53.03125 38.59375 51.09375 
Q 42.875 49.171875 45.625 45.671875 
Q 48.390625 42.1875 49.953125 37.25 
Q 51.515625 32.328125 51.515625 26.703125 
Q 51.515625 13.375 44.921875 6.09375 
Q 38.328125 -1.171875 29.109375 -1.171875 
Q 19.921875 -1.171875 14.703125 6.5 
z
M 14.59375 26.3125 
Q 14.59375 17 17.140625 12.84375 
Q 21.296875 6.0625 28.375 6.0625 
Q 34.125 6.0625 38.328125 11.0625 
Q 42.53125 16.0625 42.53125 25.984375 
Q 42.53125 36.140625 38.5 40.96875 
Q 34.46875 45.796875 28.765625 45.796875 
Q 23 45.796875 18.796875 40.796875 
Q 14.59375 35.796875 14.59375 26.3125 
z
" id="ArialMT-98"/>
      <path d="M 40.234375 0 
L 40.234375 6.546875 
Q 35.296875 -1.171875 25.734375 -1.171875 
Q 19.53125 -1.171875 14.328125 2.25 
Q 9.125 5.671875 6.265625 11.796875 
Q 3.421875 17.921875 3.421875 25.875 
Q 3.421875 33.640625 6 39.96875 
Q 8.59375 46.296875 13.765625 49.65625 
Q 18.953125 53.03125 25.34375 53.03125 
Q 30.03125 53.03125 33.6875 51.046875 
Q 37.359375 49.078125 39.65625 45.90625 
L 39.65625 71.578125 
L 48.390625 71.578125 
L 48.390625 0 
z
M 12.453125 25.875 
Q 12.453125 15.921875 16.640625 10.984375 
Q 20.84375 6.0625 26.5625 6.0625 
Q 32.328125 6.0625 36.34375 10.765625 
Q 40.375 15.484375 40.375 25.140625 
Q 40.375 35.796875 36.265625 40.765625 
Q 32.171875 45.75 26.171875 45.75 
Q 20.3125 45.75 16.375 40.96875 
Q 12.453125 36.1875 12.453125 25.875 
z
" id="ArialMT-100"/>
      <path d="M 12.359375 -21.046875 
L 6.0625 -21.046875 
Q 20.65625 2.390625 20.65625 25.875 
Q 20.65625 35.0625 18.5625 44.09375 
Q 16.890625 51.421875 13.921875 58.15625 
Q 12.015625 62.546875 6.0625 72.796875 
L 12.359375 72.796875 
Q 21.53125 60.546875 25.921875 48.1875 
Q 29.6875 37.546875 29.6875 25.921875 
Q 29.6875 12.75 24.625 0.4375 
Q 19.578125 -11.859375 12.359375 -21.046875 
z
" id="ArialMT-41"/>
      <path id="ArialMT-32"/>
      <path d="M 3.171875 21.484375 
L 3.171875 30.328125 
L 30.171875 30.328125 
L 30.171875 21.484375 
z
" id="ArialMT-45"/>
      <path d="M 42.09375 16.703125 
L 51.171875 15.578125 
Q 49.03125 7.625 43.21875 3.21875 
Q 37.40625 -1.171875 28.375 -1.171875 
Q 17 -1.171875 10.328125 5.828125 
Q 3.65625 12.84375 3.65625 25.484375 
Q 3.65625 38.578125 10.390625 45.796875 
Q 17.140625 53.03125 27.875 53.03125 
Q 38.28125 53.03125 44.875 45.953125 
Q 51.46875 38.875 51.46875 26.03125 
Q 51.46875 25.25 51.421875 23.6875 
L 12.75 23.6875 
Q 13.234375 15.140625 17.578125 10.59375 
Q 21.921875 6.0625 28.421875 6.0625 
Q 33.25 6.0625 36.671875 8.59375 
Q 40.09375 11.140625 42.09375 16.703125 
z
M 13.234375 30.90625 
L 42.1875 30.90625 
Q 41.609375 37.453125 38.875 40.71875 
Q 34.671875 45.796875 27.984375 45.796875 
Q 21.921875 45.796875 17.796875 41.75 
Q 13.671875 37.703125 13.234375 30.90625 
z
" id="ArialMT-101"/>
      <path d="M 6.59375 -19.875 
L 6.59375 51.859375 
L 14.59375 51.859375 
L 14.59375 45.125 
Q 17.4375 49.078125 21 51.046875 
Q 24.5625 53.03125 29.640625 53.03125 
Q 36.28125 53.03125 41.359375 49.609375 
Q 46.4375 46.1875 49.015625 39.953125 
Q 51.609375 33.734375 51.609375 26.3125 
Q 51.609375 18.359375 48.75 11.984375 
Q 45.90625 5.609375 40.453125 2.21875 
Q 35.015625 -1.171875 29 -1.171875 
Q 24.609375 -1.171875 21.109375 0.6875 
Q 17.625 2.546875 15.375 5.375 
L 15.375 -19.875 
z
M 14.546875 25.640625 
Q 14.546875 15.625 18.59375 10.84375 
Q 22.65625 6.0625 28.421875 6.0625 
Q 34.28125 6.0625 38.453125 11.015625 
Q 42.625 15.96875 42.625 26.375 
Q 42.625 36.28125 38.546875 41.203125 
Q 34.46875 46.140625 28.8125 46.140625 
Q 23.1875 46.140625 18.859375 40.890625 
Q 14.546875 35.640625 14.546875 25.640625 
z
" id="ArialMT-112"/>
      <path d="M 6.640625 61.46875 
L 6.640625 71.578125 
L 15.4375 71.578125 
L 15.4375 61.46875 
z
M 6.640625 0 
L 6.640625 51.859375 
L 15.4375 51.859375 
L 15.4375 0 
z
" id="ArialMT-105"/>
      <path d="M 3.078125 15.484375 
L 11.765625 16.84375 
Q 12.5 11.625 15.84375 8.84375 
Q 19.1875 6.0625 25.203125 6.0625 
Q 31.25 6.0625 34.171875 8.515625 
Q 37.109375 10.984375 37.109375 14.3125 
Q 37.109375 17.28125 34.515625 19 
Q 32.71875 20.171875 25.53125 21.96875 
Q 15.875 24.421875 12.140625 26.203125 
Q 8.40625 27.984375 6.46875 31.125 
Q 4.546875 34.28125 4.546875 38.09375 
Q 4.546875 41.546875 6.125 44.5 
Q 7.71875 47.46875 10.453125 49.421875 
Q 12.5 50.921875 16.03125 51.96875 
Q 19.578125 53.03125 23.640625 53.03125 
Q 29.734375 53.03125 34.34375 51.265625 
Q 38.96875 49.515625 41.15625 46.5 
Q 43.359375 43.5 44.1875 38.484375 
L 35.59375 37.3125 
Q 35.015625 41.3125 32.203125 43.546875 
Q 29.390625 45.796875 24.265625 45.796875 
Q 18.21875 45.796875 15.625 43.796875 
Q 13.03125 41.796875 13.03125 39.109375 
Q 13.03125 37.40625 14.109375 36.03125 
Q 15.1875 34.625 17.484375 33.6875 
Q 18.796875 33.203125 25.25 31.453125 
Q 34.578125 28.953125 38.25 27.359375 
Q 41.9375 25.78125 44.03125 22.75 
Q 46.140625 19.734375 46.140625 15.234375 
Q 46.140625 10.84375 43.578125 6.953125 
Q 41.015625 3.078125 36.171875 0.953125 
Q 31.34375 -1.171875 25.25 -1.171875 
Q 15.140625 -1.171875 9.84375 3.03125 
Q 4.546875 7.234375 3.078125 15.484375 
z
" id="ArialMT-115"/>
      <path d="M 3.328125 25.921875 
Q 3.328125 40.328125 11.328125 47.265625 
Q 18.015625 53.03125 27.640625 53.03125 
Q 38.328125 53.03125 45.109375 46.015625 
Q 51.90625 39.015625 51.90625 26.65625 
Q 51.90625 16.65625 48.90625 10.90625 
Q 45.90625 5.171875 40.15625 2 
Q 34.421875 -1.171875 27.640625 -1.171875 
Q 16.75 -1.171875 10.03125 5.8125 
Q 3.328125 12.796875 3.328125 25.921875 
z
M 12.359375 25.921875 
Q 12.359375 15.96875 16.703125 11.015625 
Q 21.046875 6.0625 27.640625 6.0625 
Q 34.1875 6.0625 38.53125 11.03125 
Q 42.875 16.015625 42.875 26.21875 
Q 42.875 35.84375 38.5 40.796875 
Q 34.125 45.75 27.640625 45.75 
Q 21.046875 45.75 16.703125 40.8125 
Q 12.359375 35.890625 12.359375 25.921875 
z
" id="ArialMT-111"/>
     </defs>
     <g style="fill:#262626;" transform="translate(173.355312 331.509)scale(0.1 -0.1)">
      <use xlink:href="#ArialMT-83"/>
      <use x="66.699219" xlink:href="#ArialMT-65"/>
      <use x="133.398438" xlink:href="#ArialMT-82"/>
      <use x="205.615234" xlink:href="#ArialMT-83"/>
      <use x="272.314453" xlink:href="#ArialMT-65"/>
      <use x="339.013672" xlink:href="#ArialMT-40"/>
      <use x="372.314453" xlink:href="#ArialMT-76"/>
      <use x="427.929688" xlink:href="#ArialMT-97"/>
      <use x="483.544922" xlink:href="#ArialMT-109"/>
      <use x="566.845703" xlink:href="#ArialMT-98"/>
      <use x="622.460938" xlink:href="#ArialMT-100"/>
      <use x="678.076172" xlink:href="#ArialMT-97"/>
      <use x="733.691406" xlink:href="#ArialMT-41"/>
      <use x="766.992188" xlink:href="#ArialMT-32"/>
      <use x="794.775391" xlink:href="#ArialMT-45"/>
      <use x="828.076172" xlink:href="#ArialMT-32"/>
      <use x="855.859375" xlink:href="#ArialMT-101"/>
      <use x="911.474609" xlink:href="#ArialMT-112"/>
      <use x="967.089844" xlink:href="#ArialMT-105"/>
      <use x="989.306641" xlink:href="#ArialMT-115"/>
      <use x="1039.306641" xlink:href="#ArialMT-111"/>
      <use x="1094.921875" xlink:href="#ArialMT-100"/>
      <use x="1150.537109" xlink:href="#ArialMT-101"/>
      <use x="1206.152344" xlink:href="#ArialMT-115"/>
     </g>
    </g>
   </g>
   <g id="matplotlib.axis_2">
    <g id="ytick_1">
     <g id="line2d_19">
      <path clip-path="url(#p149325e147)" d="M 57.6 279.071244 
L 414.72 279.071244 
" style="fill:none;stroke:#cccccc;stroke-linecap:round;stroke-width:0.8;"/>
     </g>
     <g id="line2d_20"/>
     <g id="text_11">
      <!-- 0.05 -->
      <defs>
       <path d="M 9.078125 0 
L 9.078125 10.015625 
L 19.09375 10.015625 
L 19.09375 0 
z
" id="ArialMT-46"/>
      </defs>
      <g style="fill:#262626;" transform="translate(34.639063 282.65015)scale(0.1 -0.1)">
       <use xlink:href="#ArialMT-48"/>
       <use x="55.615234" xlink:href="#ArialMT-46"/>
       <use x="83.398438" xlink:href="#ArialMT-48"/>
       <use x="139.013672" xlink:href="#ArialMT-53"/>
      </g>
     </g>
    </g>
    <g id="ytick_2">
     <g id="line2d_21">
      <path clip-path="url(#p149325e147)" d="M 57.6 237.042933 
L 414.72 237.042933 
" style="fill:none;stroke:#cccccc;stroke-linecap:round;stroke-width:0.8;"/>
     </g>
     <g id="line2d_22"/>
     <g id="text_12">
      <!-- 0.10 -->
      <g style="fill:#262626;" transform="translate(34.639063 240.621839)scale(0.1 -0.1)">
       <use xlink:href="#ArialMT-48"/>
       <use x="55.615234" xlink:href="#ArialMT-46"/>
       <use x="83.398438" xlink:href="#ArialMT-49"/>
       <use x="139.013672" xlink:href="#ArialMT-48"/>
      </g>
     </g>
    </g>
    <g id="ytick_3">
     <g id="line2d_23">
      <path clip-path="url(#p149325e147)" d="M 57.6 195.014621 
L 414.72 195.014621 
" style="fill:none;stroke:#cccccc;stroke-linecap:round;stroke-width:0.8;"/>
     </g>
     <g id="line2d_24"/>
     <g id="text_13">
      <!-- 0.15 -->
      <g style="fill:#262626;" transform="translate(34.639063 198.593528)scale(0.1 -0.1)">
       <use xlink:href="#ArialMT-48"/>
       <use x="55.615234" xlink:href="#ArialMT-46"/>
       <use x="83.398438" xlink:href="#ArialMT-49"/>
       <use x="139.013672" xlink:href="#ArialMT-53"/>
      </g>
     </g>
    </g>
    <g id="ytick_4">
     <g id="line2d_25">
      <path clip-path="url(#p149325e147)" d="M 57.6 152.98631 
L 414.72 152.98631 
" style="fill:none;stroke:#cccccc;stroke-linecap:round;stroke-width:0.8;"/>
     </g>
     <g id="line2d_26"/>
     <g id="text_14">
      <!-- 0.20 -->
      <g style="fill:#262626;" transform="translate(34.639063 156.565216)scale(0.1 -0.1)">
       <use xlink:href="#ArialMT-48"/>
       <use x="55.615234" xlink:href="#ArialMT-46"/>
       <use x="83.398438" xlink:href="#ArialMT-50"/>
       <use x="139.013672" xlink:href="#ArialMT-48"/>
      </g>
     </g>
    </g>
    <g id="ytick_5">
     <g id="line2d_27">
      <path clip-path="url(#p149325e147)" d="M 57.6 110.957999 
L 414.72 110.957999 
" style="fill:none;stroke:#cccccc;stroke-linecap:round;stroke-width:0.8;"/>
     </g>
     <g id="line2d_28"/>
     <g id="text_15">
      <!-- 0.25 -->
      <g style="fill:#262626;" transform="translate(34.639063 114.536905)scale(0.1 -0.1)">
       <use xlink:href="#ArialMT-48"/>
       <use x="55.615234" xlink:href="#ArialMT-46"/>
       <use x="83.398438" xlink:href="#ArialMT-50"/>
       <use x="139.013672" xlink:href="#ArialMT-53"/>
      </g>
     </g>
    </g>
    <g id="ytick_6">
     <g id="line2d_29">
      <path clip-path="url(#p149325e147)" d="M 57.6 68.929688 
L 414.72 68.929688 
" style="fill:none;stroke:#cccccc;stroke-linecap:round;stroke-width:0.8;"/>
     </g>
     <g id="line2d_30"/>
     <g id="text_16">
      <!-- 0.30 -->
      <defs>
       <path d="M 4.203125 18.890625 
L 12.984375 20.0625 
Q 14.5 12.59375 18.140625 9.296875 
Q 21.78125 6 27 6 
Q 33.203125 6 37.46875 10.296875 
Q 41.75 14.59375 41.75 20.953125 
Q 41.75 27 37.796875 30.921875 
Q 33.84375 34.859375 27.734375 34.859375 
Q 25.25 34.859375 21.53125 33.890625 
L 22.515625 41.609375 
Q 23.390625 41.5 23.921875 41.5 
Q 29.546875 41.5 34.03125 44.421875 
Q 38.53125 47.359375 38.53125 53.46875 
Q 38.53125 58.296875 35.25 61.46875 
Q 31.984375 64.65625 26.8125 64.65625 
Q 21.6875 64.65625 18.265625 61.421875 
Q 14.84375 58.203125 13.875 51.765625 
L 5.078125 53.328125 
Q 6.6875 62.15625 12.390625 67.015625 
Q 18.109375 71.875 26.609375 71.875 
Q 32.46875 71.875 37.390625 69.359375 
Q 42.328125 66.84375 44.9375 62.5 
Q 47.5625 58.15625 47.5625 53.265625 
Q 47.5625 48.640625 45.0625 44.828125 
Q 42.578125 41.015625 37.703125 38.765625 
Q 44.046875 37.3125 47.5625 32.6875 
Q 51.078125 28.078125 51.078125 21.140625 
Q 51.078125 11.765625 44.234375 5.25 
Q 37.40625 -1.265625 26.953125 -1.265625 
Q 17.53125 -1.265625 11.296875 4.34375 
Q 5.078125 9.96875 4.203125 18.890625 
z
" id="ArialMT-51"/>
      </defs>
      <g style="fill:#262626;" transform="translate(34.639063 72.508594)scale(0.1 -0.1)">
       <use xlink:href="#ArialMT-48"/>
       <use x="55.615234" xlink:href="#ArialMT-46"/>
       <use x="83.398438" xlink:href="#ArialMT-51"/>
       <use x="139.013672" xlink:href="#ArialMT-48"/>
      </g>
     </g>
    </g>
    <g id="text_17">
     <!-- MSE -->
     <defs>
      <path d="M 7.421875 0 
L 7.421875 71.578125 
L 21.6875 71.578125 
L 38.625 20.90625 
Q 40.96875 13.8125 42.046875 10.296875 
Q 43.265625 14.203125 45.84375 21.78125 
L 62.984375 71.578125 
L 75.734375 71.578125 
L 75.734375 0 
L 66.609375 0 
L 66.609375 59.90625 
L 45.796875 0 
L 37.25 0 
L 16.546875 60.9375 
L 16.546875 0 
z
" id="ArialMT-77"/>
      <path d="M 7.90625 0 
L 7.90625 71.578125 
L 59.671875 71.578125 
L 59.671875 63.140625 
L 17.390625 63.140625 
L 17.390625 41.21875 
L 56.984375 41.21875 
L 56.984375 32.8125 
L 17.390625 32.8125 
L 17.390625 8.453125 
L 61.328125 8.453125 
L 61.328125 0 
z
" id="ArialMT-69"/>
     </defs>
     <g style="fill:#262626;" transform="translate(28.651563 185.363156)rotate(-90)scale(0.1 -0.1)">
      <use xlink:href="#ArialMT-77"/>
      <use x="83.300781" xlink:href="#ArialMT-83"/>
      <use x="150" xlink:href="#ArialMT-69"/>
     </g>
    </g>
   </g>
   <g id="line2d_31">
    <path clip-path="url(#p149325e147)" d="M 73.832727 203.784955 
L 74.482361 141.770942 
L 74.64477 137.689305 
L 74.807178 138.463941 
L 75.456812 101.753536 
L 75.619221 103.699482 
L 75.944037 84.014044 
L 76.106446 85.868723 
L 76.268854 76.998622 
L 76.431263 76.013842 
L 76.593671 72.924092 
L 76.75608 73.035537 
L 76.918488 63.988146 
L 77.080897 74.319368 
L 77.243305 74.73221 
L 77.892939 60.238527 
L 78.055348 59.665156 
L 78.217756 61.234417 
L 78.704982 57.951773 
L 78.86739 53.568 
L 79.029799 55.903063 
L 79.192207 64.068457 
L 79.354615 60.547498 
L 79.679432 71.059126 
L 79.841841 78.373219 
L 80.166658 67.544764 
L 80.329066 67.112254 
L 80.491475 71.95071 
L 80.653883 67.909561 
L 80.816292 66.85718 
L 80.9787 71.893501 
L 81.141109 69.417333 
L 81.303517 72.242745 
L 81.628334 80.698827 
L 81.790743 81.833239 
L 81.953151 85.203415 
L 82.277968 85.790825 
L 82.440377 81.942312 
L 82.602785 82.952571 
L 82.765194 79.340363 
L 83.252419 93.867228 
L 83.414827 92.455519 
L 83.577236 96.243507 
L 83.739644 91.845531 
L 83.902053 99.609707 
L 84.064461 100.022574 
L 84.22687 99.309495 
L 84.389278 101.058261 
L 84.714095 97.875223 
L 84.876504 101.107216 
L 85.038912 101.806607 
L 85.201321 97.182809 
L 85.363729 100.322034 
L 85.688546 110.401446 
L 85.850955 113.850236 
L 86.013363 112.261458 
L 86.175772 112.906791 
L 86.662997 120.201483 
L 86.825405 120.429665 
L 86.987814 121.733988 
L 87.150222 125.067663 
L 87.312631 123.131412 
L 87.475039 125.410129 
L 87.637448 123.879341 
L 87.799856 123.570438 
L 87.962265 120.140042 
L 88.124673 119.793811 
L 88.287082 119.945208 
L 88.44949 120.49731 
L 88.611899 120.443592 
L 88.774307 121.693043 
L 88.936716 119.859097 
L 89.099124 119.661372 
L 89.261533 119.733118 
L 89.58635 121.235278 
L 89.748758 121.238032 
L 89.911166 123.953454 
L 90.073575 124.738377 
L 90.235983 123.684842 
L 90.398392 123.563031 
L 90.5608 121.945966 
L 90.885617 125.4621 
L 91.048026 129.240806 
L 91.210434 128.968244 
L 91.372843 129.009511 
L 91.535251 127.730124 
L 91.860068 129.655535 
L 92.184885 135.893136 
L 92.509702 141.986811 
L 92.672111 141.890401 
L 92.996928 142.66661 
L 93.321745 144.780134 
L 93.484153 143.259682 
L 93.80897 145.278817 
L 93.971378 148.502807 
L 94.133787 148.462714 
L 94.296195 143.824724 
L 94.458604 144.635254 
L 94.621012 144.331543 
L 94.783421 145.209637 
L 94.945829 145.15725 
L 95.108238 144.642242 
L 95.270646 142.519517 
L 95.595463 148.848157 
L 95.757872 148.264781 
L 95.92028 149.153328 
L 96.082689 149.417454 
L 96.245097 153.067988 
L 96.407506 153.611106 
L 96.569914 154.678301 
L 96.732323 154.678856 
L 97.057139 154.152519 
L 97.219548 153.262932 
L 97.381956 156.168385 
L 97.544365 156.870343 
L 97.706773 157.000942 
L 97.869182 159.008764 
L 98.03159 158.664197 
L 98.193999 158.76822 
L 98.356407 159.063423 
L 98.518816 159.086198 
L 98.843633 155.538022 
L 99.006041 157.027084 
L 99.330858 156.942675 
L 99.493267 157.357714 
L 99.655675 156.760852 
L 99.818084 157.323102 
L 99.980492 157.467435 
L 100.142901 156.781042 
L 100.305309 157.509264 
L 100.630126 160.344241 
L 100.792534 160.531203 
L 101.117351 163.534758 
L 101.27976 163.096212 
L 101.604577 164.327079 
L 101.766985 164.462922 
L 101.929394 165.931432 
L 102.091802 171.972954 
L 102.254211 172.462984 
L 102.416619 173.970916 
L 102.741436 174.547161 
L 102.903845 174.209672 
L 103.066253 174.745882 
L 103.228662 177.626469 
L 103.553479 178.295393 
L 103.715887 178.007261 
L 104.040704 180.885836 
L 104.203112 180.979924 
L 104.365521 180.770373 
L 104.690338 180.715037 
L 105.339972 184.044528 
L 105.50238 183.602582 
L 105.664789 183.780866 
L 105.827197 185.016899 
L 105.989606 185.139063 
L 106.152014 185.463046 
L 106.314423 187.088812 
L 106.801648 187.209226 
L 106.964057 187.075145 
L 107.126465 189.018081 
L 107.451282 190.299811 
L 107.61369 189.816824 
L 107.776099 189.797529 
L 108.100916 190.069715 
L 108.425733 194.241325 
L 108.588141 194.451843 
L 108.75055 194.109535 
L 108.912958 196.475484 
L 109.075367 197.028493 
L 109.400184 196.988384 
L 109.562592 196.936689 
L 109.725001 198.52311 
L 109.887409 198.561448 
L 110.049818 201.181284 
L 110.212226 200.881099 
L 110.374635 201.41246 
L 110.537043 205.138207 
L 110.699452 205.592675 
L 110.86186 205.218298 
L 111.186677 205.815517 
L 111.349085 206.04222 
L 111.511494 206.049397 
L 111.836311 206.802697 
L 112.323536 206.894972 
L 112.485945 207.35435 
L 112.810762 210.185267 
L 113.135579 211.657003 
L 113.297987 215.465088 
L 113.785213 215.928518 
L 113.947621 216.279878 
L 114.11003 215.928172 
L 114.434847 215.766987 
L 114.597255 215.43301 
L 114.759663 215.434242 
L 114.922072 215.604912 
L 115.246889 217.030853 
L 115.409297 217.119911 
L 115.571706 217.496957 
L 115.896523 217.444919 
L 116.058931 217.268001 
L 116.22134 217.339297 
L 116.546157 220.127945 
L 116.708565 219.82632 
L 116.870974 219.835618 
L 117.033382 219.660886 
L 117.195791 221.071968 
L 117.683016 220.536426 
L 117.845425 221.994122 
L 118.007833 222.094542 
L 118.170241 221.829185 
L 118.33265 223.343922 
L 118.495058 223.210981 
L 118.657467 224.397828 
L 118.819875 224.754503 
L 118.982284 224.607462 
L 119.144692 225.764623 
L 119.469509 225.471185 
L 119.631918 226.34709 
L 119.794326 226.452456 
L 120.119143 226.440746 
L 120.281552 226.530136 
L 120.44396 227.32881 
L 120.768777 227.981817 
L 120.931186 230.246338 
L 121.093594 230.579231 
L 121.256003 230.55181 
L 121.418411 230.363226 
L 121.58082 229.631489 
L 121.905636 230.113287 
L 122.068045 229.962123 
L 122.392862 229.321339 
L 122.55527 227.348228 
L 122.717679 227.18958 
L 122.880087 227.354432 
L 123.042496 227.780606 
L 123.204904 227.733799 
L 123.367313 227.973148 
L 123.529721 227.972865 
L 123.854538 228.505496 
L 124.179355 228.122037 
L 124.341764 228.70143 
L 124.666581 228.733951 
L 124.991398 228.927636 
L 125.153806 228.832984 
L 125.316214 231.151948 
L 125.478623 231.583439 
L 125.641031 231.689389 
L 125.965848 231.340786 
L 126.128257 231.5277 
L 126.290665 230.648907 
L 126.615482 232.459646 
L 126.777891 232.455344 
L 126.940299 233.841841 
L 127.102708 232.536141 
L 127.265116 232.829801 
L 127.427525 232.703182 
L 127.589933 234.774728 
L 127.91475 234.043374 
L 128.401976 234.363513 
L 128.726792 239.169055 
L 128.889201 239.325831 
L 129.214018 239.227801 
L 129.376426 239.179064 
L 129.538835 242.182689 
L 129.701243 242.282269 
L 130.188469 243.544901 
L 130.350877 243.666082 
L 130.838103 245.701439 
L 131.16292 249.280047 
L 131.325328 248.524781 
L 131.650145 248.52906 
L 131.812554 247.649134 
L 131.974962 247.728585 
L 132.299779 247.199795 
L 132.462187 247.234827 
L 132.624596 247.403208 
L 132.787004 248.23069 
L 132.949413 248.250368 
L 133.111821 248.410143 
L 133.27423 248.341581 
L 133.436638 249.345293 
L 134.573498 249.714473 
L 134.898315 250.15328 
L 135.060723 250.051913 
L 135.223132 250.255752 
L 135.38554 250.815455 
L 135.710357 250.900887 
L 136.197582 250.601717 
L 136.522399 249.97794 
L 136.684808 250.049052 
L 136.847216 251.929246 
L 137.334442 252.035665 
L 137.49685 252.178643 
L 137.659259 252.151388 
L 137.984076 252.413465 
L 138.146484 252.415519 
L 138.308893 252.627834 
L 138.471301 252.633269 
L 138.63371 251.902246 
L 138.796118 251.859217 
L 138.958527 252.055678 
L 139.120935 251.823718 
L 139.283343 251.909619 
L 139.445752 252.408202 
L 139.60816 249.094467 
L 139.932977 250.289055 
L 140.257794 250.353018 
L 140.582611 251.143519 
L 140.74502 251.484917 
L 140.907428 251.501233 
L 141.069837 251.308939 
L 141.232245 251.429535 
L 141.394654 251.313585 
L 141.557062 251.931666 
L 141.719471 251.949742 
L 142.044288 252.405727 
L 142.206696 252.339679 
L 142.531513 253.016013 
L 142.85633 252.87022 
L 143.505964 253.682051 
L 143.668372 253.597728 
L 143.993189 254.440293 
L 144.155598 254.362231 
L 144.480415 255.104292 
L 144.642823 254.836753 
L 145.292457 254.743477 
L 145.617274 255.192062 
L 145.779683 254.684004 
L 145.942091 255.048746 
L 146.1045 255.128528 
L 146.266908 255.029796 
L 146.429316 254.707202 
L 146.754133 255.46987 
L 147.07895 255.385072 
L 147.241359 255.650504 
L 147.403767 255.53858 
L 147.566176 255.652275 
L 147.728584 255.613538 
L 147.890993 255.409236 
L 148.053401 255.434755 
L 148.540627 255.206959 
L 148.703035 255.517162 
L 148.865444 255.553401 
L 149.027852 255.32362 
L 149.190261 255.296626 
L 149.352669 255.141427 
L 149.515078 255.219495 
L 149.677486 255.115232 
L 149.839894 255.38801 
L 150.32712 255.318894 
L 150.651937 255.042945 
L 150.814345 255.034103 
L 150.976754 254.821002 
L 151.463979 254.835878 
L 151.626388 254.966155 
L 151.788796 254.886777 
L 151.951205 255.086253 
L 152.113613 256.262581 
L 152.276022 256.228753 
L 152.43843 257.382942 
L 152.600839 257.314135 
L 152.925656 257.655614 
L 153.088064 257.497298 
L 153.250473 257.726637 
L 153.575289 257.690629 
L 153.737698 257.949991 
L 153.900106 257.790204 
L 154.224923 257.941509 
L 154.387332 258.32797 
L 154.712149 258.334216 
L 154.874557 258.41147 
L 155.524191 258.28535 
L 155.849008 258.835066 
L 156.011417 258.855915 
L 156.173825 258.755228 
L 156.336234 259.716635 
L 156.498642 259.745831 
L 156.661051 259.602022 
L 156.985867 259.777461 
L 157.473093 259.316495 
L 157.79791 259.937627 
L 157.960318 259.567173 
L 158.285135 259.759062 
L 158.772361 259.693837 
L 159.259586 259.725277 
L 159.746812 260.513321 
L 160.071629 260.449325 
L 160.234037 260.208628 
L 160.396445 260.264528 
L 160.558854 260.658486 
L 161.370896 260.848061 
L 161.533305 260.802476 
L 161.695713 261.141279 
L 162.182939 261.055147 
L 162.345347 261.283704 
L 162.832573 261.281682 
L 163.15739 261.055792 
L 163.319798 261.046522 
L 163.482207 261.306012 
L 163.644615 261.347063 
L 163.969432 261.234959 
L 164.13184 261.143055 
L 164.456657 261.266027 
L 164.619066 262.05871 
L 164.781474 262.016489 
L 164.943883 262.23781 
L 165.106291 262.120284 
L 165.2687 262.398376 
L 165.593517 263.582169 
L 165.755925 263.870469 
L 166.405559 263.881443 
L 166.567968 264.04458 
L 167.704827 264.078015 
L 168.516869 264.149318 
L 168.679278 263.911709 
L 169.49132 263.738575 
L 169.653729 264.558656 
L 170.140954 264.563982 
L 170.303363 264.923665 
L 170.62818 264.795681 
L 171.115405 264.869584 
L 171.765039 264.797348 
L 172.089856 265.285758 
L 172.414673 265.707534 
L 172.901898 265.835137 
L 173.064307 265.71931 
L 173.713941 265.70659 
L 174.363575 265.644041 
L 174.688391 265.720436 
L 175.338025 265.183404 
L 176.312476 265.188708 
L 176.474885 265.140415 
L 176.637293 265.250951 
L 176.96211 265.082698 
L 177.124519 265.268809 
L 177.449336 265.054908 
L 178.261378 265.073554 
L 178.748603 264.890026 
L 179.235829 265.345208 
L 179.398237 265.349742 
L 179.560646 266.403984 
L 179.723054 266.20284 
L 180.047871 266.213568 
L 180.21028 266.495098 
L 180.372688 266.541863 
L 180.535097 266.160312 
L 180.859914 266.128726 
L 181.022322 266.711327 
L 182.159181 266.484629 
L 182.483998 266.432684 
L 182.646407 266.859172 
L 182.971224 266.746929 
L 183.296041 266.82854 
L 183.458449 266.774051 
L 183.783266 266.985195 
L 183.945675 266.81428 
L 184.108083 266.856142 
L 184.270492 267.765862 
L 184.757717 267.857121 
L 184.920126 267.705784 
L 185.244942 267.697491 
L 185.407351 267.980354 
L 185.732168 268.03084 
L 185.894576 268.311514 
L 186.056985 268.307809 
L 186.219393 268.421758 
L 186.381802 268.911333 
L 186.54421 268.884142 
L 187.193844 268.316194 
L 187.356253 268.572364 
L 187.518661 268.49927 
L 187.843478 268.747869 
L 188.005887 268.720386 
L 188.330704 268.967303 
L 188.65552 268.91911 
L 188.817929 269.010225 
L 189.142746 269.387328 
L 189.305154 269.486271 
L 189.467563 269.405669 
L 190.279605 270.273034 
L 190.442014 270.284522 
L 190.604422 270.101432 
L 191.091648 269.980357 
L 191.416465 269.881251 
L 191.578873 269.59148 
L 191.90369 269.823579 
L 192.066099 269.734153 
L 192.553324 270.026719 
L 193.202958 269.917183 
L 193.527775 270.001061 
L 194.664634 269.952459 
L 194.827043 269.667853 
L 195.15186 269.669714 
L 195.314268 269.647515 
L 195.476677 269.851148 
L 196.613536 269.790726 
L 196.938353 270.182903 
L 197.100761 270.003217 
L 197.587987 270.144169 
L 197.912804 270.131188 
L 198.400029 269.982562 
L 198.562438 270.829566 
L 198.724846 270.807871 
L 199.212071 271.194563 
L 199.536888 271.779768 
L 199.699297 271.770982 
L 199.861705 271.611059 
L 200.024114 271.676326 
L 200.186522 271.872456 
L 200.511339 271.507053 
L 201.648199 271.59031 
L 201.810607 271.933322 
L 202.135424 272.018562 
L 202.297833 271.944939 
L 202.62265 272.222254 
L 202.785058 272.405089 
L 202.947466 272.244664 
L 203.272283 272.208281 
L 203.759509 271.997409 
L 203.921917 272.810486 
L 204.409143 272.702818 
L 204.571551 272.512688 
L 205.058777 272.429221 
L 205.383594 272.260484 
L 206.520453 272.463145 
L 207.007678 272.691702 
L 207.170087 272.684955 
L 207.332495 272.809696 
L 207.494904 273.083968 
L 207.657312 273.103978 
L 208.144538 273.746898 
L 208.469355 273.925892 
L 208.631763 274.359964 
L 208.95658 274.407349 
L 209.118989 274.363119 
L 209.281397 274.484463 
L 209.606214 274.513352 
L 209.768622 274.674414 
L 209.931031 274.454797 
L 210.093439 274.480932 
L 210.418256 274.370636 
L 210.905482 274.615101 
L 211.230299 274.516843 
L 211.392707 274.735702 
L 211.555116 274.67049 
L 211.717524 274.775089 
L 212.367158 274.559305 
L 213.179201 274.478317 
L 213.504017 274.723092 
L 213.991243 274.761017 
L 214.153651 275.172927 
L 214.31606 275.089388 
L 214.640877 275.390745 
L 214.803285 275.42125 
L 214.965694 275.949047 
L 215.290511 275.946256 
L 215.615328 275.884667 
L 215.777736 275.898754 
L 215.940145 276.078849 
L 216.42737 276.043712 
L 216.752187 276.268598 
L 217.564229 276.566128 
L 217.889046 276.559542 
L 218.213863 276.654651 
L 218.53868 276.688789 
L 218.863497 276.937971 
L 219.188314 276.873317 
L 219.350723 277.115002 
L 220.325173 277.121193 
L 220.487582 277.144153 
L 220.64999 276.919749 
L 220.974807 277.066757 
L 221.137216 277.347568 
L 221.462033 277.346403 
L 222.274075 277.356064 
L 222.598892 277.50732 
L 222.923709 277.41047 
L 223.086118 277.241105 
L 223.89816 277.326808 
L 224.060568 277.631127 
L 224.547794 277.580527 
L 224.872611 277.671515 
L 225.035019 277.528415 
L 225.359836 277.525916 
L 225.847062 277.320802 
L 226.171879 277.306947 
L 226.659104 277.143548 
L 228.445597 277.284215 
L 228.770414 277.204837 
L 229.25764 277.051272 
L 229.420048 276.864114 
L 230.069682 276.951691 
L 230.232091 277.134658 
L 230.394499 277.077963 
L 230.881724 277.213227 
L 231.206541 277.234219 
L 231.531358 277.430107 
L 231.693767 277.32267 
L 231.856175 277.462612 
L 232.018584 277.438985 
L 232.180992 277.599189 
L 232.993035 277.588528 
L 233.317852 277.472554 
L 234.292303 277.278815 
L 234.454711 277.574821 
L 234.941936 277.426635 
L 235.59157 277.57168 
L 236.078796 277.499445 
L 236.241204 277.756107 
L 236.403613 277.579157 
L 236.72843 277.611472 
L 237.215655 277.599028 
L 237.378064 277.72198 
L 237.540472 277.655771 
L 237.865289 277.730093 
L 238.190106 277.762535 
L 238.352514 277.828952 
L 238.514923 277.560536 
L 239.326965 277.503488 
L 239.651782 277.826648 
L 239.814191 277.785976 
L 239.976599 277.946842 
L 241.438276 277.812419 
L 241.763092 277.90922 
L 242.737543 278.043497 
L 242.899952 278.066147 
L 243.224769 277.938384 
L 243.549586 277.973449 
L 243.874403 277.929521 
L 244.19922 277.849984 
L 245.011262 277.786644 
L 245.17367 276.839634 
L 245.336079 276.799134 
L 245.660896 276.919135 
L 246.148121 276.915827 
L 246.635347 276.670027 
L 246.797755 276.92639 
L 247.284981 276.864587 
L 247.447389 277.344902 
L 248.259432 277.320014 
L 248.42184 277.560152 
L 248.746657 277.42131 
L 249.071474 277.353593 
L 249.396291 277.732989 
L 250.208333 277.954129 
L 251.507601 277.924264 
L 251.67001 277.904488 
L 251.832418 278.027441 
L 252.157235 277.997226 
L 253.131686 278.246592 
L 254.918179 278.308663 
L 255.080588 278.471987 
L 255.405405 278.407174 
L 255.567813 278.491253 
L 255.89263 278.358742 
L 256.704672 278.410376 
L 256.867081 278.227035 
L 257.191898 278.305538 
L 257.354306 278.310968 
L 257.679123 278.519345 
L 259.140799 278.542103 
L 259.628025 278.483043 
L 259.790433 278.861155 
L 260.11525 278.930875 
L 260.277659 279.089035 
L 260.602476 279.069923 
L 260.764884 279.157031 
L 260.927293 279.11155 
L 261.089701 282.486466 
L 262.388969 282.545059 
L 262.551378 282.567012 
L 263.038603 283.055235 
L 263.36342 283.010939 
L 263.688237 283.160807 
L 264.662688 283.080322 
L 265.149913 283.224241 
L 265.47473 283.386444 
L 265.799547 283.825394 
L 266.286772 283.994944 
L 266.449181 283.871497 
L 266.936406 284.001768 
L 267.098815 283.900079 
L 267.423632 283.935999 
L 267.910857 283.915201 
L 268.398083 284.067683 
L 269.210125 284.042124 
L 269.372534 284.351779 
L 270.346984 284.258471 
L 270.83421 284.191774 
L 271.159027 284.307529 
L 271.483844 284.329119 
L 271.646252 284.586862 
L 272.94552 284.510647 
L 273.270337 284.747687 
L 273.595154 284.67826 
L 273.757562 284.912793 
L 273.919971 284.935371 
L 274.082379 286.513403 
L 274.569605 286.66841 
L 274.732013 286.913034 
L 275.219239 286.784376 
L 275.544056 286.773429 
L 276.19369 286.778309 
L 276.356098 286.703453 
L 277.005732 286.809437 
L 277.655366 286.742942 
L 280.253901 286.892079 
L 282.202803 287.238198 
L 282.52762 287.228079 
L 282.690029 287.45688 
L 283.014846 287.364552 
L 283.826888 287.365788 
L 283.989296 287.323891 
L 284.151705 287.126287 
L 284.476522 287.249603 
L 285.126156 287.19001 
L 285.450973 287.089652 
L 289.023959 286.792096 
L 289.186368 286.920627 
L 289.673593 286.889655 
L 290.648044 287.084865 
L 291.135269 287.034231 
L 291.297678 287.289354 
L 293.24658 287.123722 
L 293.896214 287.117362 
L 294.221031 286.98676 
L 295.35789 286.991819 
L 295.520298 287.149214 
L 295.845115 287.153407 
L 296.169932 287.264142 
L 297.4692 287.214109 
L 297.631609 287.404449 
L 298.930876 287.368528 
L 299.905327 287.65321 
L 300.230144 287.964841 
L 300.392553 287.974148 
L 300.71737 288.356511 
L 301.529412 288.293968 
L 302.666271 288.347478 
L 302.991088 288.389857 
L 303.478314 288.359724 
L 304.615173 288.344888 
L 304.93999 288.608702 
L 306.726483 288.601729 
L 307.376117 288.627356 
L 307.700934 288.705849 
L 308.025751 288.677033 
L 309.000202 288.643598 
L 309.16261 289.151205 
L 310.949104 289.198914 
L 311.111512 289.362781 
L 311.436329 289.279972 
L 312.41078 289.332236 
L 312.573188 289.177336 
L 313.385231 289.206909 
L 313.710048 289.198133 
L 313.872456 289.345737 
L 314.197273 289.271488 
L 314.52209 289.260764 
L 314.684499 289.46387 
L 315.496541 289.46073 
L 315.658949 289.23557 
L 315.983766 289.240638 
L 316.146175 289.399972 
L 318.582302 289.400845 
L 318.744711 289.498145 
L 318.907119 289.359485 
L 319.069527 289.900057 
L 320.043978 289.895933 
L 320.206387 289.964327 
L 320.368795 290.309586 
L 321.018429 290.324677 
L 321.505655 290.206206 
L 323.616965 290.097376 
L 323.779373 289.745905 
L 326.053092 289.762179 
L 328.651628 289.877698 
L 329.301262 289.978276 
L 330.600529 289.955628 
L 330.762938 289.971306 
L 330.925346 290.629554 
L 332.549431 290.717289 
L 333.361473 290.771928 
L 333.848699 290.72564 
L 336.772051 291.008863 
L 337.096868 290.841229 
L 337.746502 290.916365 
L 338.396136 290.955862 
L 338.558545 291.135641 
L 338.720953 290.747116 
L 339.208179 290.856006 
L 339.532996 290.96059 
L 340.507446 290.958601 
L 341.15708 291.081601 
L 342.618757 291.228941 
L 342.943574 291.335735 
L 344.080433 291.378391 
L 344.242841 291.735491 
L 344.567658 291.827914 
L 345.704518 291.785272 
L 346.029335 291.811324 
L 346.354152 292.026568 
L 347.815828 291.928216 
L 347.978236 291.848711 
L 348.303053 291.948775 
L 348.62787 291.873637 
L 349.602321 291.860519 
L 350.901589 291.725488 
L 351.713631 291.87499 
L 351.87604 292.503323 
L 352.363265 292.53182 
L 352.525674 292.93573 
L 353.175308 293.082151 
L 353.98735 293.221956 
L 354.799392 293.265471 
L 355.773843 293.56175 
L 356.261069 293.545499 
L 357.073111 293.505955 
L 357.560337 293.566086 
L 358.372379 293.55377 
L 359.34683 293.68385 
L 359.996464 293.690323 
L 360.808506 293.7797 
L 368.116888 293.835287 
L 368.441704 294.024772 
L 368.766521 294.043513 
L 368.92893 294.323402 
L 370.877832 294.292638 
L 371.202649 294.391906 
L 371.527466 294.430907 
L 372.014691 294.397278 
L 373.15155 294.426197 
L 373.963593 294.507422 
L 375.262861 294.536385 
L 375.750086 294.477573 
L 376.237311 294.441294 
L 376.39972 294.513621 
L 376.724537 294.453106 
L 377.211762 294.466561 
L 377.698988 294.392726 
L 380.135115 294.403356 
L 381.596791 294.45288 
L 381.7592 294.635019 
L 382.084017 294.680213 
L 382.246425 294.92199 
L 384.357735 294.994824 
L 385.494595 295.032481 
L 386.956271 295.016952 
L 387.605905 295.052422 
L 387.930722 295.037778 
L 388.255539 295.173046 
L 393.777427 295.214584 
L 393.939835 295.484926 
L 394.427061 295.412596 
L 395.076695 295.450423 
L 396.213554 295.395149 
L 396.538371 295.28955 
L 397.350413 295.275523 
L 397.512822 295.452177 
L 398.487273 295.486127 
L 398.487273 295.486127 
" style="fill:none;stroke:#1f77b4;stroke-linecap:round;stroke-width:1.5;"/>
   </g>
   <g id="patch_3">
    <path d="M 57.6 307.584 
L 57.6 41.472 
" style="fill:none;stroke:#cccccc;stroke-linecap:square;stroke-linejoin:miter;"/>
   </g>
   <g id="patch_4">
    <path d="M 414.72 307.584 
L 414.72 41.472 
" style="fill:none;stroke:#cccccc;stroke-linecap:square;stroke-linejoin:miter;"/>
   </g>
   <g id="patch_5">
    <path d="M 57.6 307.584 
L 414.72 307.584 
" style="fill:none;stroke:#cccccc;stroke-linecap:square;stroke-linejoin:miter;"/>
   </g>
   <g id="patch_6">
    <path d="M 57.6 41.472 
L 414.72 41.472 
" style="fill:none;stroke:#cccccc;stroke-linecap:square;stroke-linejoin:miter;"/>
   </g>
  </g>
 </g>
 <defs>
  <clipPath id="p149325e147">
   <rect height="266.112" width="357.12" x="57.6" y="41.472"/>
  </clipPath>
 </defs>
</svg>
