<?xml version="1.0" encoding="utf-8" standalone="no"?>
<!DOCTYPE svg PUBLIC "-//W3C//DTD SVG 1.1//EN"
  "http://www.w3.org/Graphics/SVG/1.1/DTD/svg11.dtd">
<!-- Created with matplotlib (https://matplotlib.org/) -->
<svg height="345.6pt" version="1.1" viewBox="0 0 460.8 345.6" width="460.8pt" xmlns="http://www.w3.org/2000/svg" xmlns:xlink="http://www.w3.org/1999/xlink">
 <defs>
  <style type="text/css">
*{stroke-linecap:butt;stroke-linejoin:round;}
  </style>
 </defs>
 <g id="figure_1">
  <g id="patch_1">
   <path d="M 0 345.6 
L 460.8 345.6 
L 460.8 0 
L 0 0 
z
" style="fill:#ffffff;"/>
  </g>
  <g id="axes_1">
   <g id="patch_2">
    <path d="M 57.6 307.584 
L 414.72 307.584 
L 414.72 41.472 
L 57.6 41.472 
z
" style="fill:#ffffff;"/>
   </g>
   <g id="matplotlib.axis_1">
    <g id="xtick_1">
     <g id="line2d_1">
      <path clip-path="url(#p920362ab30)" d="M 73.832727 307.584 
L 73.832727 41.472 
" style="fill:none;stroke:#cccccc;stroke-linecap:round;stroke-width:0.8;"/>
     </g>
     <g id="line2d_2"/>
     <g id="text_1">
      <!-- 0 -->
      <defs>
       <path d="M 4.15625 35.296875 
Q 4.15625 48 6.765625 55.734375 
Q 9.375 63.484375 14.515625 67.671875 
Q 19.671875 71.875 27.484375 71.875 
Q 33.25 71.875 37.59375 69.546875 
Q 41.9375 67.234375 44.765625 62.859375 
Q 47.609375 58.5 49.21875 52.21875 
Q 50.828125 45.953125 50.828125 35.296875 
Q 50.828125 22.703125 48.234375 14.96875 
Q 45.65625 7.234375 40.5 3 
Q 35.359375 -1.21875 27.484375 -1.21875 
Q 17.140625 -1.21875 11.234375 6.203125 
Q 4.15625 15.140625 4.15625 35.296875 
z
M 13.1875 35.296875 
Q 13.1875 17.671875 17.3125 11.828125 
Q 21.4375 6 27.484375 6 
Q 33.546875 6 37.671875 11.859375 
Q 41.796875 17.71875 41.796875 35.296875 
Q 41.796875 52.984375 37.671875 58.78125 
Q 33.546875 64.59375 27.390625 64.59375 
Q 21.34375 64.59375 17.71875 59.46875 
Q 13.1875 52.9375 13.1875 35.296875 
z
" id="ArialMT-48"/>
      </defs>
      <g style="fill:#262626;" transform="translate(71.052259 318.241812)scale(0.1 -0.1)">
       <use xlink:href="#ArialMT-48"/>
      </g>
     </g>
    </g>
    <g id="xtick_2">
     <g id="line2d_3">
      <path clip-path="url(#p920362ab30)" d="M 114.434847 307.584 
L 114.434847 41.472 
" style="fill:none;stroke:#cccccc;stroke-linecap:round;stroke-width:0.8;"/>
     </g>
     <g id="line2d_4"/>
     <g id="text_2">
      <!-- 2500 -->
      <defs>
       <path d="M 50.34375 8.453125 
L 50.34375 0 
L 3.03125 0 
Q 2.9375 3.171875 4.046875 6.109375 
Q 5.859375 10.9375 9.828125 15.625 
Q 13.8125 20.3125 21.34375 26.46875 
Q 33.015625 36.03125 37.109375 41.625 
Q 41.21875 47.21875 41.21875 52.203125 
Q 41.21875 57.421875 37.46875 61 
Q 33.734375 64.59375 27.734375 64.59375 
Q 21.390625 64.59375 17.578125 60.78125 
Q 13.765625 56.984375 13.71875 50.25 
L 4.6875 51.171875 
Q 5.609375 61.28125 11.65625 66.578125 
Q 17.71875 71.875 27.9375 71.875 
Q 38.234375 71.875 44.234375 66.15625 
Q 50.25 60.453125 50.25 52 
Q 50.25 47.703125 48.484375 43.546875 
Q 46.734375 39.40625 42.65625 34.8125 
Q 38.578125 30.21875 29.109375 22.21875 
Q 21.1875 15.578125 18.9375 13.203125 
Q 16.703125 10.84375 15.234375 8.453125 
z
" id="ArialMT-50"/>
       <path d="M 4.15625 18.75 
L 13.375 19.53125 
Q 14.40625 12.796875 18.140625 9.390625 
Q 21.875 6 27.15625 6 
Q 33.5 6 37.890625 10.78125 
Q 42.28125 15.578125 42.28125 23.484375 
Q 42.28125 31 38.0625 35.34375 
Q 33.84375 39.703125 27 39.703125 
Q 22.75 39.703125 19.328125 37.765625 
Q 15.921875 35.84375 13.96875 32.765625 
L 5.71875 33.84375 
L 12.640625 70.609375 
L 48.25 70.609375 
L 48.25 62.203125 
L 19.671875 62.203125 
L 15.828125 42.96875 
Q 22.265625 47.46875 29.34375 47.46875 
Q 38.71875 47.46875 45.15625 40.96875 
Q 51.609375 34.46875 51.609375 24.265625 
Q 51.609375 14.546875 45.953125 7.46875 
Q 39.0625 -1.21875 27.15625 -1.21875 
Q 17.390625 -1.21875 11.203125 4.25 
Q 5.03125 9.71875 4.15625 18.75 
z
" id="ArialMT-53"/>
      </defs>
      <g style="fill:#262626;" transform="translate(103.312972 318.241812)scale(0.1 -0.1)">
       <use xlink:href="#ArialMT-50"/>
       <use x="55.615234" xlink:href="#ArialMT-53"/>
       <use x="111.230469" xlink:href="#ArialMT-48"/>
       <use x="166.845703" xlink:href="#ArialMT-48"/>
      </g>
     </g>
    </g>
    <g id="xtick_3">
     <g id="line2d_5">
      <path clip-path="url(#p920362ab30)" d="M 155.036966 307.584 
L 155.036966 41.472 
" style="fill:none;stroke:#cccccc;stroke-linecap:round;stroke-width:0.8;"/>
     </g>
     <g id="line2d_6"/>
     <g id="text_3">
      <!-- 5000 -->
      <g style="fill:#262626;" transform="translate(143.915091 318.241812)scale(0.1 -0.1)">
       <use xlink:href="#ArialMT-53"/>
       <use x="55.615234" xlink:href="#ArialMT-48"/>
       <use x="111.230469" xlink:href="#ArialMT-48"/>
       <use x="166.845703" xlink:href="#ArialMT-48"/>
      </g>
     </g>
    </g>
    <g id="xtick_4">
     <g id="line2d_7">
      <path clip-path="url(#p920362ab30)" d="M 195.639085 307.584 
L 195.639085 41.472 
" style="fill:none;stroke:#cccccc;stroke-linecap:round;stroke-width:0.8;"/>
     </g>
     <g id="line2d_8"/>
     <g id="text_4">
      <!-- 7500 -->
      <defs>
       <path d="M 4.734375 62.203125 
L 4.734375 70.65625 
L 51.078125 70.65625 
L 51.078125 63.8125 
Q 44.234375 56.546875 37.515625 44.484375 
Q 30.8125 32.421875 27.15625 19.671875 
Q 24.515625 10.6875 23.78125 0 
L 14.75 0 
Q 14.890625 8.453125 18.0625 20.40625 
Q 21.234375 32.375 27.171875 43.484375 
Q 33.109375 54.59375 39.796875 62.203125 
z
" id="ArialMT-55"/>
      </defs>
      <g style="fill:#262626;" transform="translate(184.51721 318.241812)scale(0.1 -0.1)">
       <use xlink:href="#ArialMT-55"/>
       <use x="55.615234" xlink:href="#ArialMT-53"/>
       <use x="111.230469" xlink:href="#ArialMT-48"/>
       <use x="166.845703" xlink:href="#ArialMT-48"/>
      </g>
     </g>
    </g>
    <g id="xtick_5">
     <g id="line2d_9">
      <path clip-path="url(#p920362ab30)" d="M 236.241204 307.584 
L 236.241204 41.472 
" style="fill:none;stroke:#cccccc;stroke-linecap:round;stroke-width:0.8;"/>
     </g>
     <g id="line2d_10"/>
     <g id="text_5">
      <!-- 10000 -->
      <defs>
       <path d="M 37.25 0 
L 28.46875 0 
L 28.46875 56 
Q 25.296875 52.984375 20.140625 49.953125 
Q 14.984375 46.921875 10.890625 45.40625 
L 10.890625 53.90625 
Q 18.265625 57.375 23.78125 62.296875 
Q 29.296875 67.234375 31.59375 71.875 
L 37.25 71.875 
z
" id="ArialMT-49"/>
      </defs>
      <g style="fill:#262626;" transform="translate(222.33886 318.241812)scale(0.1 -0.1)">
       <use xlink:href="#ArialMT-49"/>
       <use x="55.615234" xlink:href="#ArialMT-48"/>
       <use x="111.230469" xlink:href="#ArialMT-48"/>
       <use x="166.845703" xlink:href="#ArialMT-48"/>
       <use x="222.460938" xlink:href="#ArialMT-48"/>
      </g>
     </g>
    </g>
    <g id="xtick_6">
     <g id="line2d_11">
      <path clip-path="url(#p920362ab30)" d="M 276.843323 307.584 
L 276.843323 41.472 
" style="fill:none;stroke:#cccccc;stroke-linecap:round;stroke-width:0.8;"/>
     </g>
     <g id="line2d_12"/>
     <g id="text_6">
      <!-- 12500 -->
      <g style="fill:#262626;" transform="translate(262.94098 318.241812)scale(0.1 -0.1)">
       <use xlink:href="#ArialMT-49"/>
       <use x="55.615234" xlink:href="#ArialMT-50"/>
       <use x="111.230469" xlink:href="#ArialMT-53"/>
       <use x="166.845703" xlink:href="#ArialMT-48"/>
       <use x="222.460938" xlink:href="#ArialMT-48"/>
      </g>
     </g>
    </g>
    <g id="xtick_7">
     <g id="line2d_13">
      <path clip-path="url(#p920362ab30)" d="M 317.445443 307.584 
L 317.445443 41.472 
" style="fill:none;stroke:#cccccc;stroke-linecap:round;stroke-width:0.8;"/>
     </g>
     <g id="line2d_14"/>
     <g id="text_7">
      <!-- 15000 -->
      <g style="fill:#262626;" transform="translate(303.543099 318.241812)scale(0.1 -0.1)">
       <use xlink:href="#ArialMT-49"/>
       <use x="55.615234" xlink:href="#ArialMT-53"/>
       <use x="111.230469" xlink:href="#ArialMT-48"/>
       <use x="166.845703" xlink:href="#ArialMT-48"/>
       <use x="222.460938" xlink:href="#ArialMT-48"/>
      </g>
     </g>
    </g>
    <g id="xtick_8">
     <g id="line2d_15">
      <path clip-path="url(#p920362ab30)" d="M 358.047562 307.584 
L 358.047562 41.472 
" style="fill:none;stroke:#cccccc;stroke-linecap:round;stroke-width:0.8;"/>
     </g>
     <g id="line2d_16"/>
     <g id="text_8">
      <!-- 17500 -->
      <g style="fill:#262626;" transform="translate(344.145218 318.241812)scale(0.1 -0.1)">
       <use xlink:href="#ArialMT-49"/>
       <use x="55.615234" xlink:href="#ArialMT-55"/>
       <use x="111.230469" xlink:href="#ArialMT-53"/>
       <use x="166.845703" xlink:href="#ArialMT-48"/>
       <use x="222.460938" xlink:href="#ArialMT-48"/>
      </g>
     </g>
    </g>
    <g id="xtick_9">
     <g id="line2d_17">
      <path clip-path="url(#p920362ab30)" d="M 398.649681 307.584 
L 398.649681 41.472 
" style="fill:none;stroke:#cccccc;stroke-linecap:round;stroke-width:0.8;"/>
     </g>
     <g id="line2d_18"/>
     <g id="text_9">
      <!-- 20000 -->
      <g style="fill:#262626;" transform="translate(384.747337 318.241812)scale(0.1 -0.1)">
       <use xlink:href="#ArialMT-50"/>
       <use x="55.615234" xlink:href="#ArialMT-48"/>
       <use x="111.230469" xlink:href="#ArialMT-48"/>
       <use x="166.845703" xlink:href="#ArialMT-48"/>
       <use x="222.460938" xlink:href="#ArialMT-48"/>
      </g>
     </g>
    </g>
    <g id="text_10">
     <!-- SARSA(Lambda) - episodes -->
     <defs>
      <path d="M 4.5 23 
L 13.421875 23.78125 
Q 14.0625 18.40625 16.375 14.96875 
Q 18.703125 11.53125 23.578125 9.40625 
Q 28.46875 7.28125 34.578125 7.28125 
Q 39.984375 7.28125 44.140625 8.890625 
Q 48.296875 10.5 50.3125 13.296875 
Q 52.34375 16.109375 52.34375 19.4375 
Q 52.34375 22.796875 50.390625 25.3125 
Q 48.4375 27.828125 43.953125 29.546875 
Q 41.0625 30.671875 31.203125 33.03125 
Q 21.34375 35.40625 17.390625 37.5 
Q 12.25 40.1875 9.734375 44.15625 
Q 7.234375 48.140625 7.234375 53.078125 
Q 7.234375 58.5 10.296875 63.203125 
Q 13.375 67.921875 19.28125 70.359375 
Q 25.203125 72.796875 32.421875 72.796875 
Q 40.375 72.796875 46.453125 70.234375 
Q 52.546875 67.671875 55.8125 62.6875 
Q 59.078125 57.71875 59.328125 51.421875 
L 50.25 50.734375 
Q 49.515625 57.515625 45.28125 60.984375 
Q 41.0625 64.453125 32.8125 64.453125 
Q 24.21875 64.453125 20.28125 61.296875 
Q 16.359375 58.15625 16.359375 53.71875 
Q 16.359375 49.859375 19.140625 47.359375 
Q 21.875 44.875 33.421875 42.265625 
Q 44.96875 39.65625 49.265625 37.703125 
Q 55.515625 34.8125 58.484375 30.390625 
Q 61.46875 25.984375 61.46875 20.21875 
Q 61.46875 14.5 58.203125 9.4375 
Q 54.9375 4.390625 48.796875 1.578125 
Q 42.671875 -1.21875 35.015625 -1.21875 
Q 25.296875 -1.21875 18.71875 1.609375 
Q 12.15625 4.4375 8.421875 10.125 
Q 4.6875 15.828125 4.5 23 
z
" id="ArialMT-83"/>
      <path d="M -0.140625 0 
L 27.34375 71.578125 
L 37.546875 71.578125 
L 66.84375 0 
L 56.0625 0 
L 47.703125 21.6875 
L 17.78125 21.6875 
L 9.90625 0 
z
M 20.515625 29.390625 
L 44.78125 29.390625 
L 37.3125 49.21875 
Q 33.890625 58.25 32.234375 64.0625 
Q 30.859375 57.171875 28.375 50.390625 
z
" id="ArialMT-65"/>
      <path d="M 7.859375 0 
L 7.859375 71.578125 
L 39.59375 71.578125 
Q 49.171875 71.578125 54.140625 69.640625 
Q 59.125 67.71875 62.109375 62.828125 
Q 65.09375 57.953125 65.09375 52.046875 
Q 65.09375 44.4375 60.15625 39.203125 
Q 55.21875 33.984375 44.921875 32.5625 
Q 48.6875 30.765625 50.640625 29 
Q 54.78125 25.203125 58.5 19.484375 
L 70.953125 0 
L 59.03125 0 
L 49.5625 14.890625 
Q 45.40625 21.34375 42.71875 24.75 
Q 40.046875 28.171875 37.921875 29.53125 
Q 35.796875 30.90625 33.59375 31.453125 
Q 31.984375 31.78125 28.328125 31.78125 
L 17.328125 31.78125 
L 17.328125 0 
z
M 17.328125 39.984375 
L 37.703125 39.984375 
Q 44.1875 39.984375 47.84375 41.328125 
Q 51.515625 42.671875 53.421875 45.625 
Q 55.328125 48.578125 55.328125 52.046875 
Q 55.328125 57.125 51.640625 60.390625 
Q 47.953125 63.671875 39.984375 63.671875 
L 17.328125 63.671875 
z
" id="ArialMT-82"/>
      <path d="M 23.390625 -21.046875 
Q 16.109375 -11.859375 11.078125 0.4375 
Q 6.0625 12.75 6.0625 25.921875 
Q 6.0625 37.546875 9.8125 48.1875 
Q 14.203125 60.546875 23.390625 72.796875 
L 29.6875 72.796875 
Q 23.78125 62.640625 21.875 58.296875 
Q 18.890625 51.5625 17.1875 44.234375 
Q 15.09375 35.109375 15.09375 25.875 
Q 15.09375 2.390625 29.6875 -21.046875 
z
" id="ArialMT-40"/>
      <path d="M 7.328125 0 
L 7.328125 71.578125 
L 16.796875 71.578125 
L 16.796875 8.453125 
L 52.046875 8.453125 
L 52.046875 0 
z
" id="ArialMT-76"/>
      <path d="M 40.4375 6.390625 
Q 35.546875 2.25 31.03125 0.53125 
Q 26.515625 -1.171875 21.34375 -1.171875 
Q 12.796875 -1.171875 8.203125 3 
Q 3.609375 7.171875 3.609375 13.671875 
Q 3.609375 17.484375 5.34375 20.625 
Q 7.078125 23.78125 9.890625 25.6875 
Q 12.703125 27.59375 16.21875 28.5625 
Q 18.796875 29.25 24.03125 29.890625 
Q 34.671875 31.15625 39.703125 32.90625 
Q 39.75 34.71875 39.75 35.203125 
Q 39.75 40.578125 37.25 42.78125 
Q 33.890625 45.75 27.25 45.75 
Q 21.046875 45.75 18.09375 43.578125 
Q 15.140625 41.40625 13.71875 35.890625 
L 5.125 37.0625 
Q 6.296875 42.578125 8.984375 45.96875 
Q 11.671875 49.359375 16.75 51.1875 
Q 21.828125 53.03125 28.515625 53.03125 
Q 35.15625 53.03125 39.296875 51.46875 
Q 43.453125 49.90625 45.40625 47.53125 
Q 47.359375 45.171875 48.140625 41.546875 
Q 48.578125 39.3125 48.578125 33.453125 
L 48.578125 21.734375 
Q 48.578125 9.46875 49.140625 6.21875 
Q 49.703125 2.984375 51.375 0 
L 42.1875 0 
Q 40.828125 2.734375 40.4375 6.390625 
z
M 39.703125 26.03125 
Q 34.90625 24.078125 25.34375 22.703125 
Q 19.921875 21.921875 17.671875 20.9375 
Q 15.4375 19.96875 14.203125 18.09375 
Q 12.984375 16.21875 12.984375 13.921875 
Q 12.984375 10.40625 15.640625 8.0625 
Q 18.3125 5.71875 23.4375 5.71875 
Q 28.515625 5.71875 32.46875 7.9375 
Q 36.421875 10.15625 38.28125 14.015625 
Q 39.703125 17 39.703125 22.796875 
z
" id="ArialMT-97"/>
      <path d="M 6.59375 0 
L 6.59375 51.859375 
L 14.453125 51.859375 
L 14.453125 44.578125 
Q 16.890625 48.390625 20.9375 50.703125 
Q 25 53.03125 30.171875 53.03125 
Q 35.9375 53.03125 39.625 50.640625 
Q 43.3125 48.25 44.828125 43.953125 
Q 50.984375 53.03125 60.84375 53.03125 
Q 68.5625 53.03125 72.703125 48.75 
Q 76.859375 44.484375 76.859375 35.59375 
L 76.859375 0 
L 68.109375 0 
L 68.109375 32.671875 
Q 68.109375 37.9375 67.25 40.25 
Q 66.40625 42.578125 64.15625 43.984375 
Q 61.921875 45.40625 58.890625 45.40625 
Q 53.421875 45.40625 49.796875 41.765625 
Q 46.1875 38.140625 46.1875 30.125 
L 46.1875 0 
L 37.40625 0 
L 37.40625 33.6875 
Q 37.40625 39.546875 35.25 42.46875 
Q 33.109375 45.40625 28.21875 45.40625 
Q 24.515625 45.40625 21.359375 43.453125 
Q 18.21875 41.5 16.796875 37.734375 
Q 15.375 33.984375 15.375 26.90625 
L 15.375 0 
z
" id="ArialMT-109"/>
      <path d="M 14.703125 0 
L 6.546875 0 
L 6.546875 71.578125 
L 15.328125 71.578125 
L 15.328125 46.046875 
Q 20.90625 53.03125 29.546875 53.03125 
Q 34.328125 53.03125 38.59375 51.09375 
Q 42.875 49.171875 45.625 45.671875 
Q 48.390625 42.1875 49.953125 37.25 
Q 51.515625 32.328125 51.515625 26.703125 
Q 51.515625 13.375 44.921875 6.09375 
Q 38.328125 -1.171875 29.109375 -1.171875 
Q 19.921875 -1.171875 14.703125 6.5 
z
M 14.59375 26.3125 
Q 14.59375 17 17.140625 12.84375 
Q 21.296875 6.0625 28.375 6.0625 
Q 34.125 6.0625 38.328125 11.0625 
Q 42.53125 16.0625 42.53125 25.984375 
Q 42.53125 36.140625 38.5 40.96875 
Q 34.46875 45.796875 28.765625 45.796875 
Q 23 45.796875 18.796875 40.796875 
Q 14.59375 35.796875 14.59375 26.3125 
z
" id="ArialMT-98"/>
      <path d="M 40.234375 0 
L 40.234375 6.546875 
Q 35.296875 -1.171875 25.734375 -1.171875 
Q 19.53125 -1.171875 14.328125 2.25 
Q 9.125 5.671875 6.265625 11.796875 
Q 3.421875 17.921875 3.421875 25.875 
Q 3.421875 33.640625 6 39.96875 
Q 8.59375 46.296875 13.765625 49.65625 
Q 18.953125 53.03125 25.34375 53.03125 
Q 30.03125 53.03125 33.6875 51.046875 
Q 37.359375 49.078125 39.65625 45.90625 
L 39.65625 71.578125 
L 48.390625 71.578125 
L 48.390625 0 
z
M 12.453125 25.875 
Q 12.453125 15.921875 16.640625 10.984375 
Q 20.84375 6.0625 26.5625 6.0625 
Q 32.328125 6.0625 36.34375 10.765625 
Q 40.375 15.484375 40.375 25.140625 
Q 40.375 35.796875 36.265625 40.765625 
Q 32.171875 45.75 26.171875 45.75 
Q 20.3125 45.75 16.375 40.96875 
Q 12.453125 36.1875 12.453125 25.875 
z
" id="ArialMT-100"/>
      <path d="M 12.359375 -21.046875 
L 6.0625 -21.046875 
Q 20.65625 2.390625 20.65625 25.875 
Q 20.65625 35.0625 18.5625 44.09375 
Q 16.890625 51.421875 13.921875 58.15625 
Q 12.015625 62.546875 6.0625 72.796875 
L 12.359375 72.796875 
Q 21.53125 60.546875 25.921875 48.1875 
Q 29.6875 37.546875 29.6875 25.921875 
Q 29.6875 12.75 24.625 0.4375 
Q 19.578125 -11.859375 12.359375 -21.046875 
z
" id="ArialMT-41"/>
      <path id="ArialMT-32"/>
      <path d="M 3.171875 21.484375 
L 3.171875 30.328125 
L 30.171875 30.328125 
L 30.171875 21.484375 
z
" id="ArialMT-45"/>
      <path d="M 42.09375 16.703125 
L 51.171875 15.578125 
Q 49.03125 7.625 43.21875 3.21875 
Q 37.40625 -1.171875 28.375 -1.171875 
Q 17 -1.171875 10.328125 5.828125 
Q 3.65625 12.84375 3.65625 25.484375 
Q 3.65625 38.578125 10.390625 45.796875 
Q 17.140625 53.03125 27.875 53.03125 
Q 38.28125 53.03125 44.875 45.953125 
Q 51.46875 38.875 51.46875 26.03125 
Q 51.46875 25.25 51.421875 23.6875 
L 12.75 23.6875 
Q 13.234375 15.140625 17.578125 10.59375 
Q 21.921875 6.0625 28.421875 6.0625 
Q 33.25 6.0625 36.671875 8.59375 
Q 40.09375 11.140625 42.09375 16.703125 
z
M 13.234375 30.90625 
L 42.1875 30.90625 
Q 41.609375 37.453125 38.875 40.71875 
Q 34.671875 45.796875 27.984375 45.796875 
Q 21.921875 45.796875 17.796875 41.75 
Q 13.671875 37.703125 13.234375 30.90625 
z
" id="ArialMT-101"/>
      <path d="M 6.59375 -19.875 
L 6.59375 51.859375 
L 14.59375 51.859375 
L 14.59375 45.125 
Q 17.4375 49.078125 21 51.046875 
Q 24.5625 53.03125 29.640625 53.03125 
Q 36.28125 53.03125 41.359375 49.609375 
Q 46.4375 46.1875 49.015625 39.953125 
Q 51.609375 33.734375 51.609375 26.3125 
Q 51.609375 18.359375 48.75 11.984375 
Q 45.90625 5.609375 40.453125 2.21875 
Q 35.015625 -1.171875 29 -1.171875 
Q 24.609375 -1.171875 21.109375 0.6875 
Q 17.625 2.546875 15.375 5.375 
L 15.375 -19.875 
z
M 14.546875 25.640625 
Q 14.546875 15.625 18.59375 10.84375 
Q 22.65625 6.0625 28.421875 6.0625 
Q 34.28125 6.0625 38.453125 11.015625 
Q 42.625 15.96875 42.625 26.375 
Q 42.625 36.28125 38.546875 41.203125 
Q 34.46875 46.140625 28.8125 46.140625 
Q 23.1875 46.140625 18.859375 40.890625 
Q 14.546875 35.640625 14.546875 25.640625 
z
" id="ArialMT-112"/>
      <path d="M 6.640625 61.46875 
L 6.640625 71.578125 
L 15.4375 71.578125 
L 15.4375 61.46875 
z
M 6.640625 0 
L 6.640625 51.859375 
L 15.4375 51.859375 
L 15.4375 0 
z
" id="ArialMT-105"/>
      <path d="M 3.078125 15.484375 
L 11.765625 16.84375 
Q 12.5 11.625 15.84375 8.84375 
Q 19.1875 6.0625 25.203125 6.0625 
Q 31.25 6.0625 34.171875 8.515625 
Q 37.109375 10.984375 37.109375 14.3125 
Q 37.109375 17.28125 34.515625 19 
Q 32.71875 20.171875 25.53125 21.96875 
Q 15.875 24.421875 12.140625 26.203125 
Q 8.40625 27.984375 6.46875 31.125 
Q 4.546875 34.28125 4.546875 38.09375 
Q 4.546875 41.546875 6.125 44.5 
Q 7.71875 47.46875 10.453125 49.421875 
Q 12.5 50.921875 16.03125 51.96875 
Q 19.578125 53.03125 23.640625 53.03125 
Q 29.734375 53.03125 34.34375 51.265625 
Q 38.96875 49.515625 41.15625 46.5 
Q 43.359375 43.5 44.1875 38.484375 
L 35.59375 37.3125 
Q 35.015625 41.3125 32.203125 43.546875 
Q 29.390625 45.796875 24.265625 45.796875 
Q 18.21875 45.796875 15.625 43.796875 
Q 13.03125 41.796875 13.03125 39.109375 
Q 13.03125 37.40625 14.109375 36.03125 
Q 15.1875 34.625 17.484375 33.6875 
Q 18.796875 33.203125 25.25 31.453125 
Q 34.578125 28.953125 38.25 27.359375 
Q 41.9375 25.78125 44.03125 22.75 
Q 46.140625 19.734375 46.140625 15.234375 
Q 46.140625 10.84375 43.578125 6.953125 
Q 41.015625 3.078125 36.171875 0.953125 
Q 31.34375 -1.171875 25.25 -1.171875 
Q 15.140625 -1.171875 9.84375 3.03125 
Q 4.546875 7.234375 3.078125 15.484375 
z
" id="ArialMT-115"/>
      <path d="M 3.328125 25.921875 
Q 3.328125 40.328125 11.328125 47.265625 
Q 18.015625 53.03125 27.640625 53.03125 
Q 38.328125 53.03125 45.109375 46.015625 
Q 51.90625 39.015625 51.90625 26.65625 
Q 51.90625 16.65625 48.90625 10.90625 
Q 45.90625 5.171875 40.15625 2 
Q 34.421875 -1.171875 27.640625 -1.171875 
Q 16.75 -1.171875 10.03125 5.8125 
Q 3.328125 12.796875 3.328125 25.921875 
z
M 12.359375 25.921875 
Q 12.359375 15.96875 16.703125 11.015625 
Q 21.046875 6.0625 27.640625 6.0625 
Q 34.1875 6.0625 38.53125 11.03125 
Q 42.875 16.015625 42.875 26.21875 
Q 42.875 35.84375 38.5 40.796875 
Q 34.125 45.75 27.640625 45.75 
Q 21.046875 45.75 16.703125 40.8125 
Q 12.359375 35.890625 12.359375 25.921875 
z
" id="ArialMT-111"/>
     </defs>
     <g style="fill:#262626;" transform="translate(173.355312 331.509)scale(0.1 -0.1)">
      <use xlink:href="#ArialMT-83"/>
      <use x="66.699219" xlink:href="#ArialMT-65"/>
      <use x="133.398438" xlink:href="#ArialMT-82"/>
      <use x="205.615234" xlink:href="#ArialMT-83"/>
      <use x="272.314453" xlink:href="#ArialMT-65"/>
      <use x="339.013672" xlink:href="#ArialMT-40"/>
      <use x="372.314453" xlink:href="#ArialMT-76"/>
      <use x="427.929688" xlink:href="#ArialMT-97"/>
      <use x="483.544922" xlink:href="#ArialMT-109"/>
      <use x="566.845703" xlink:href="#ArialMT-98"/>
      <use x="622.460938" xlink:href="#ArialMT-100"/>
      <use x="678.076172" xlink:href="#ArialMT-97"/>
      <use x="733.691406" xlink:href="#ArialMT-41"/>
      <use x="766.992188" xlink:href="#ArialMT-32"/>
      <use x="794.775391" xlink:href="#ArialMT-45"/>
      <use x="828.076172" xlink:href="#ArialMT-32"/>
      <use x="855.859375" xlink:href="#ArialMT-101"/>
      <use x="911.474609" xlink:href="#ArialMT-112"/>
      <use x="967.089844" xlink:href="#ArialMT-105"/>
      <use x="989.306641" xlink:href="#ArialMT-115"/>
      <use x="1039.306641" xlink:href="#ArialMT-111"/>
      <use x="1094.921875" xlink:href="#ArialMT-100"/>
      <use x="1150.537109" xlink:href="#ArialMT-101"/>
      <use x="1206.152344" xlink:href="#ArialMT-115"/>
     </g>
    </g>
   </g>
   <g id="matplotlib.axis_2">
    <g id="ytick_1">
     <g id="line2d_19">
      <path clip-path="url(#p920362ab30)" d="M 57.6 306.950408 
L 414.72 306.950408 
" style="fill:none;stroke:#cccccc;stroke-linecap:round;stroke-width:0.8;"/>
     </g>
     <g id="line2d_20"/>
     <g id="text_11">
      <!-- 0.0 -->
      <defs>
       <path d="M 9.078125 0 
L 9.078125 10.015625 
L 19.09375 10.015625 
L 19.09375 0 
z
" id="ArialMT-46"/>
      </defs>
      <g style="fill:#262626;" transform="translate(40.2 310.529314)scale(0.1 -0.1)">
       <use xlink:href="#ArialMT-48"/>
       <use x="55.615234" xlink:href="#ArialMT-46"/>
       <use x="83.398438" xlink:href="#ArialMT-48"/>
      </g>
     </g>
    </g>
    <g id="ytick_2">
     <g id="line2d_21">
      <path clip-path="url(#p920362ab30)" d="M 57.6 274.736069 
L 414.72 274.736069 
" style="fill:none;stroke:#cccccc;stroke-linecap:round;stroke-width:0.8;"/>
     </g>
     <g id="line2d_22"/>
     <g id="text_12">
      <!-- 0.2 -->
      <g style="fill:#262626;" transform="translate(40.2 278.314975)scale(0.1 -0.1)">
       <use xlink:href="#ArialMT-48"/>
       <use x="55.615234" xlink:href="#ArialMT-46"/>
       <use x="83.398438" xlink:href="#ArialMT-50"/>
      </g>
     </g>
    </g>
    <g id="ytick_3">
     <g id="line2d_23">
      <path clip-path="url(#p920362ab30)" d="M 57.6 242.521729 
L 414.72 242.521729 
" style="fill:none;stroke:#cccccc;stroke-linecap:round;stroke-width:0.8;"/>
     </g>
     <g id="line2d_24"/>
     <g id="text_13">
      <!-- 0.4 -->
      <defs>
       <path d="M 32.328125 0 
L 32.328125 17.140625 
L 1.265625 17.140625 
L 1.265625 25.203125 
L 33.9375 71.578125 
L 41.109375 71.578125 
L 41.109375 25.203125 
L 50.78125 25.203125 
L 50.78125 17.140625 
L 41.109375 17.140625 
L 41.109375 0 
z
M 32.328125 25.203125 
L 32.328125 57.46875 
L 9.90625 25.203125 
z
" id="ArialMT-52"/>
      </defs>
      <g style="fill:#262626;" transform="translate(40.2 246.100636)scale(0.1 -0.1)">
       <use xlink:href="#ArialMT-48"/>
       <use x="55.615234" xlink:href="#ArialMT-46"/>
       <use x="83.398438" xlink:href="#ArialMT-52"/>
      </g>
     </g>
    </g>
    <g id="ytick_4">
     <g id="line2d_25">
      <path clip-path="url(#p920362ab30)" d="M 57.6 210.30739 
L 414.72 210.30739 
" style="fill:none;stroke:#cccccc;stroke-linecap:round;stroke-width:0.8;"/>
     </g>
     <g id="line2d_26"/>
     <g id="text_14">
      <!-- 0.6 -->
      <defs>
       <path d="M 49.75 54.046875 
L 41.015625 53.375 
Q 39.84375 58.546875 37.703125 60.890625 
Q 34.125 64.65625 28.90625 64.65625 
Q 24.703125 64.65625 21.53125 62.3125 
Q 17.390625 59.28125 14.984375 53.46875 
Q 12.59375 47.65625 12.5 36.921875 
Q 15.671875 41.75 20.265625 44.09375 
Q 24.859375 46.4375 29.890625 46.4375 
Q 38.671875 46.4375 44.84375 39.96875 
Q 51.03125 33.5 51.03125 23.25 
Q 51.03125 16.5 48.125 10.71875 
Q 45.21875 4.9375 40.140625 1.859375 
Q 35.0625 -1.21875 28.609375 -1.21875 
Q 17.625 -1.21875 10.6875 6.859375 
Q 3.765625 14.9375 3.765625 33.5 
Q 3.765625 54.25 11.421875 63.671875 
Q 18.109375 71.875 29.4375 71.875 
Q 37.890625 71.875 43.28125 67.140625 
Q 48.6875 62.40625 49.75 54.046875 
z
M 13.875 23.1875 
Q 13.875 18.65625 15.796875 14.5 
Q 17.71875 10.359375 21.1875 8.171875 
Q 24.65625 6 28.46875 6 
Q 34.03125 6 38.03125 10.484375 
Q 42.046875 14.984375 42.046875 22.703125 
Q 42.046875 30.125 38.078125 34.390625 
Q 34.125 38.671875 28.125 38.671875 
Q 22.171875 38.671875 18.015625 34.390625 
Q 13.875 30.125 13.875 23.1875 
z
" id="ArialMT-54"/>
      </defs>
      <g style="fill:#262626;" transform="translate(40.2 213.886296)scale(0.1 -0.1)">
       <use xlink:href="#ArialMT-48"/>
       <use x="55.615234" xlink:href="#ArialMT-46"/>
       <use x="83.398438" xlink:href="#ArialMT-54"/>
      </g>
     </g>
    </g>
    <g id="ytick_5">
     <g id="line2d_27">
      <path clip-path="url(#p920362ab30)" d="M 57.6 178.093051 
L 414.72 178.093051 
" style="fill:none;stroke:#cccccc;stroke-linecap:round;stroke-width:0.8;"/>
     </g>
     <g id="line2d_28"/>
     <g id="text_15">
      <!-- 0.8 -->
      <defs>
       <path d="M 17.671875 38.8125 
Q 12.203125 40.828125 9.5625 44.53125 
Q 6.9375 48.25 6.9375 53.421875 
Q 6.9375 61.234375 12.546875 66.546875 
Q 18.171875 71.875 27.484375 71.875 
Q 36.859375 71.875 42.578125 66.421875 
Q 48.296875 60.984375 48.296875 53.171875 
Q 48.296875 48.1875 45.671875 44.5 
Q 43.0625 40.828125 37.75 38.8125 
Q 44.34375 36.671875 47.78125 31.875 
Q 51.21875 27.09375 51.21875 20.453125 
Q 51.21875 11.28125 44.71875 5.03125 
Q 38.234375 -1.21875 27.640625 -1.21875 
Q 17.046875 -1.21875 10.546875 5.046875 
Q 4.046875 11.328125 4.046875 20.703125 
Q 4.046875 27.6875 7.59375 32.390625 
Q 11.140625 37.109375 17.671875 38.8125 
z
M 15.921875 53.71875 
Q 15.921875 48.640625 19.1875 45.40625 
Q 22.46875 42.1875 27.6875 42.1875 
Q 32.765625 42.1875 36.015625 45.375 
Q 39.265625 48.578125 39.265625 53.21875 
Q 39.265625 58.0625 35.90625 61.359375 
Q 32.5625 64.65625 27.59375 64.65625 
Q 22.5625 64.65625 19.234375 61.421875 
Q 15.921875 58.203125 15.921875 53.71875 
z
M 13.09375 20.65625 
Q 13.09375 16.890625 14.875 13.375 
Q 16.65625 9.859375 20.171875 7.921875 
Q 23.6875 6 27.734375 6 
Q 34.03125 6 38.125 10.046875 
Q 42.234375 14.109375 42.234375 20.359375 
Q 42.234375 26.703125 38.015625 30.859375 
Q 33.796875 35.015625 27.4375 35.015625 
Q 21.234375 35.015625 17.15625 30.90625 
Q 13.09375 26.8125 13.09375 20.65625 
z
" id="ArialMT-56"/>
      </defs>
      <g style="fill:#262626;" transform="translate(40.2 181.671957)scale(0.1 -0.1)">
       <use xlink:href="#ArialMT-48"/>
       <use x="55.615234" xlink:href="#ArialMT-46"/>
       <use x="83.398438" xlink:href="#ArialMT-56"/>
      </g>
     </g>
    </g>
    <g id="ytick_6">
     <g id="line2d_29">
      <path clip-path="url(#p920362ab30)" d="M 57.6 145.878712 
L 414.72 145.878712 
" style="fill:none;stroke:#cccccc;stroke-linecap:round;stroke-width:0.8;"/>
     </g>
     <g id="line2d_30"/>
     <g id="text_16">
      <!-- 1.0 -->
      <g style="fill:#262626;" transform="translate(40.2 149.457618)scale(0.1 -0.1)">
       <use xlink:href="#ArialMT-49"/>
       <use x="55.615234" xlink:href="#ArialMT-46"/>
       <use x="83.398438" xlink:href="#ArialMT-48"/>
      </g>
     </g>
    </g>
    <g id="ytick_7">
     <g id="line2d_31">
      <path clip-path="url(#p920362ab30)" d="M 57.6 113.664372 
L 414.72 113.664372 
" style="fill:none;stroke:#cccccc;stroke-linecap:round;stroke-width:0.8;"/>
     </g>
     <g id="line2d_32"/>
     <g id="text_17">
      <!-- 1.2 -->
      <g style="fill:#262626;" transform="translate(40.2 117.243278)scale(0.1 -0.1)">
       <use xlink:href="#ArialMT-49"/>
       <use x="55.615234" xlink:href="#ArialMT-46"/>
       <use x="83.398438" xlink:href="#ArialMT-50"/>
      </g>
     </g>
    </g>
    <g id="ytick_8">
     <g id="line2d_33">
      <path clip-path="url(#p920362ab30)" d="M 57.6 81.450033 
L 414.72 81.450033 
" style="fill:none;stroke:#cccccc;stroke-linecap:round;stroke-width:0.8;"/>
     </g>
     <g id="line2d_34"/>
     <g id="text_18">
      <!-- 1.4 -->
      <g style="fill:#262626;" transform="translate(40.2 85.028939)scale(0.1 -0.1)">
       <use xlink:href="#ArialMT-49"/>
       <use x="55.615234" xlink:href="#ArialMT-46"/>
       <use x="83.398438" xlink:href="#ArialMT-52"/>
      </g>
     </g>
    </g>
    <g id="ytick_9">
     <g id="line2d_35">
      <path clip-path="url(#p920362ab30)" d="M 57.6 49.235694 
L 414.72 49.235694 
" style="fill:none;stroke:#cccccc;stroke-linecap:round;stroke-width:0.8;"/>
     </g>
     <g id="line2d_36"/>
     <g id="text_19">
      <!-- 1.6 -->
      <g style="fill:#262626;" transform="translate(40.2 52.8146)scale(0.1 -0.1)">
       <use xlink:href="#ArialMT-49"/>
       <use x="55.615234" xlink:href="#ArialMT-46"/>
       <use x="83.398438" xlink:href="#ArialMT-54"/>
      </g>
     </g>
    </g>
    <g id="text_20">
     <!-- MSE -->
     <defs>
      <path d="M 7.421875 0 
L 7.421875 71.578125 
L 21.6875 71.578125 
L 38.625 20.90625 
Q 40.96875 13.8125 42.046875 10.296875 
Q 43.265625 14.203125 45.84375 21.78125 
L 62.984375 71.578125 
L 75.734375 71.578125 
L 75.734375 0 
L 66.609375 0 
L 66.609375 59.90625 
L 45.796875 0 
L 37.25 0 
L 16.546875 60.9375 
L 16.546875 0 
z
" id="ArialMT-77"/>
      <path d="M 7.90625 0 
L 7.90625 71.578125 
L 59.671875 71.578125 
L 59.671875 63.140625 
L 17.390625 63.140625 
L 17.390625 41.21875 
L 56.984375 41.21875 
L 56.984375 32.8125 
L 17.390625 32.8125 
L 17.390625 8.453125 
L 61.328125 8.453125 
L 61.328125 0 
z
" id="ArialMT-69"/>
     </defs>
     <g style="fill:#262626;" transform="translate(34.2125 185.363156)rotate(-90)scale(0.1 -0.1)">
      <use xlink:href="#ArialMT-77"/>
      <use x="83.300781" xlink:href="#ArialMT-83"/>
      <use x="150" xlink:href="#ArialMT-69"/>
     </g>
    </g>
   </g>
   <g id="line2d_37">
    <path clip-path="url(#p920362ab30)" d="M 73.832727 53.568 
L 73.995136 150.215271 
L 74.157544 176.622079 
L 74.319953 181.755048 
L 74.482361 233.497599 
L 74.64477 227.025856 
L 74.807178 227.403753 
L 75.131995 262.706045 
L 75.456812 263.990484 
L 75.781629 280.074003 
L 75.944037 281.235241 
L 76.106446 281.306897 
L 76.431263 282.967662 
L 76.593671 282.548297 
L 76.75608 283.895571 
L 76.918488 283.052003 
L 77.080897 281.588793 
L 77.243305 281.262637 
L 77.405714 279.43149 
L 77.568122 282.404511 
L 77.730531 280.474192 
L 78.055348 284.436989 
L 78.217756 285.793291 
L 78.542573 284.712754 
L 78.86739 286.431645 
L 79.029799 286.852063 
L 79.192207 287.954639 
L 79.354615 288.134143 
L 79.517024 287.819057 
L 79.841841 288.697093 
L 80.004249 288.498877 
L 80.166658 289.004703 
L 80.329066 289.132232 
L 80.491475 289.025387 
L 80.653883 289.814697 
L 80.9787 289.304965 
L 81.141109 287.77846 
L 81.303517 287.759536 
L 81.465926 288.312724 
L 81.628334 288.086182 
L 81.953151 286.696186 
L 82.11556 289.312959 
L 82.277968 287.186805 
L 82.602785 289.284177 
L 82.765194 288.042443 
L 82.927602 287.839675 
L 83.09001 289.614612 
L 83.252419 289.721997 
L 83.414827 290.239291 
L 83.739644 287.622301 
L 84.064461 288.975285 
L 84.22687 288.613006 
L 84.389278 288.549434 
L 84.714095 287.754151 
L 85.038912 287.256069 
L 85.201321 287.621788 
L 85.363729 286.965522 
L 85.526138 286.80933 
L 85.688546 288.765032 
L 85.850955 287.471828 
L 86.013363 288.976386 
L 86.175772 289.297906 
L 86.500588 288.876816 
L 86.662997 287.525463 
L 86.825405 287.162598 
L 86.987814 287.321674 
L 87.312631 290.202701 
L 87.475039 288.252265 
L 87.637448 288.719272 
L 87.799856 288.438445 
L 87.962265 286.565205 
L 88.124673 288.293614 
L 88.287082 288.286504 
L 88.44949 289.109107 
L 88.774307 286.509617 
L 88.936716 287.324352 
L 89.099124 286.717768 
L 89.261533 285.247803 
L 89.423941 285.788886 
L 89.58635 288.82566 
L 89.748758 287.885291 
L 89.911166 289.714172 
L 90.073575 288.497792 
L 90.5608 290.453674 
L 90.723209 290.194265 
L 90.885617 289.153846 
L 91.048026 289.298602 
L 91.210434 290.125956 
L 91.372843 290.302036 
L 91.535251 289.925428 
L 91.69766 288.012288 
L 91.860068 289.539352 
L 92.184885 287.739192 
L 92.347294 287.884367 
L 92.672111 291.587787 
L 92.834519 291.835509 
L 92.996928 291.305568 
L 93.159336 292.790914 
L 93.321745 292.656723 
L 93.646561 293.223307 
L 93.971378 293.038092 
L 94.296195 291.456276 
L 94.621012 293.265551 
L 94.783421 293.596778 
L 94.945829 293.290073 
L 95.108238 293.439298 
L 95.270646 292.893285 
L 95.433055 291.558106 
L 95.595463 292.206619 
L 95.757872 293.345151 
L 96.082689 286.363233 
L 96.407506 289.008682 
L 96.569914 291.074425 
L 96.732323 290.936626 
L 96.894731 288.952642 
L 97.057139 289.820916 
L 97.219548 293.219702 
L 97.381956 290.819003 
L 97.544365 290.321132 
L 97.706773 290.910475 
L 97.869182 290.227299 
L 98.03159 291.725056 
L 98.193999 291.065614 
L 98.518816 292.243661 
L 98.681224 293.398399 
L 98.843633 292.261508 
L 99.006041 292.590643 
L 99.16845 292.359444 
L 99.330858 293.616487 
L 99.493267 293.681532 
L 99.655675 292.93234 
L 99.818084 293.176916 
L 99.980492 292.929827 
L 100.305309 290.093293 
L 100.467717 287.881093 
L 100.630126 289.723891 
L 100.792534 290.241459 
L 100.954943 289.598347 
L 101.117351 290.485464 
L 101.27976 290.024641 
L 101.442168 291.121702 
L 101.766985 290.15894 
L 101.929394 287.826846 
L 102.254211 291.728561 
L 102.579028 292.173342 
L 102.741436 293.240654 
L 102.903845 292.894466 
L 103.066253 292.820438 
L 103.228662 293.046556 
L 103.39107 292.735159 
L 103.553479 292.041716 
L 103.715887 292.763108 
L 103.878296 291.524165 
L 104.365521 293.063122 
L 104.527929 292.703796 
L 104.852746 293.697497 
L 105.015155 292.572 
L 105.177563 292.56337 
L 105.339972 293.191447 
L 105.50238 290.252674 
L 105.664789 290.918971 
L 105.827197 290.74616 
L 105.989606 293.309102 
L 106.314423 291.383401 
L 106.476831 291.604375 
L 106.63924 292.438088 
L 106.801648 292.210365 
L 106.964057 293.11327 
L 107.126465 293.021029 
L 107.288874 291.797534 
L 107.451282 292.196308 
L 107.61369 293.337802 
L 107.776099 291.828617 
L 107.938507 291.884366 
L 108.100916 291.687977 
L 108.263324 291.675224 
L 108.425733 291.842019 
L 108.588141 292.677655 
L 108.75055 290.090365 
L 108.912958 291.744475 
L 109.075367 288.0939 
L 109.237775 290.443252 
L 109.400184 288.66006 
L 109.562592 288.789199 
L 109.725001 291.68743 
L 110.049818 291.201201 
L 110.212226 292.293985 
L 110.374635 291.745573 
L 110.537043 292.687863 
L 110.699452 292.156974 
L 110.86186 292.37783 
L 111.024268 292.854024 
L 111.349085 290.894677 
L 111.511494 290.683895 
L 111.673902 289.690107 
L 111.836311 289.623756 
L 111.998719 288.478057 
L 112.485945 291.618801 
L 112.648353 291.234449 
L 112.810762 291.851239 
L 112.97317 291.790367 
L 113.135579 291.227629 
L 113.297987 291.789839 
L 113.460396 291.527376 
L 113.785213 290.307692 
L 113.947621 290.664725 
L 114.11003 291.305672 
L 114.434847 290.368843 
L 114.597255 291.304505 
L 115.08448 285.458014 
L 115.246889 287.354098 
L 115.409297 285.103766 
L 115.571706 288.280114 
L 115.734114 288.560691 
L 115.896523 291.207996 
L 116.058931 292.028181 
L 116.546157 292.590336 
L 116.708565 291.764487 
L 116.870974 291.971137 
L 117.195791 291.916531 
L 117.358199 292.151104 
L 117.683016 291.948895 
L 117.845425 292.5819 
L 118.170241 292.080773 
L 118.33265 290.150375 
L 118.495058 292.362281 
L 118.657467 292.327245 
L 118.982284 293.011377 
L 119.144692 292.518967 
L 119.307101 293.139415 
L 119.469509 293.194301 
L 119.631918 293.515623 
L 119.794326 292.79209 
L 119.956735 292.735093 
L 120.119143 293.288499 
L 120.281552 290.417937 
L 120.768777 294.27861 
L 120.931186 292.064541 
L 121.093594 293.720535 
L 121.256003 292.200654 
L 121.418411 293.595043 
L 121.58082 293.951873 
L 121.743228 290.715782 
L 122.230453 293.193692 
L 122.392862 293.362549 
L 122.55527 292.775676 
L 122.717679 291.278827 
L 123.042496 292.63919 
L 123.204904 292.296626 
L 123.367313 292.675209 
L 123.529721 292.166648 
L 123.69213 292.712644 
L 123.854538 292.459794 
L 124.016947 291.921329 
L 124.179355 292.674569 
L 124.341764 292.546232 
L 124.504172 291.560967 
L 124.666581 291.629561 
L 124.828989 292.661442 
L 125.153806 290.798348 
L 125.478623 291.694877 
L 125.641031 291.807396 
L 125.965848 291.756159 
L 126.128257 291.794049 
L 126.290665 291.523216 
L 126.453074 290.136896 
L 126.940299 291.870339 
L 127.102708 291.402394 
L 127.265116 291.631129 
L 127.589933 292.449381 
L 127.752342 291.139197 
L 127.91475 292.567788 
L 128.239567 292.885894 
L 128.401976 292.463184 
L 128.564384 292.674502 
L 128.726792 292.358395 
L 128.889201 292.503453 
L 129.051609 292.393571 
L 129.214018 292.902429 
L 129.376426 292.907693 
L 129.538835 292.660701 
L 129.701243 292.643815 
L 129.863652 290.426621 
L 130.188469 293.487008 
L 130.513286 292.830915 
L 130.838103 292.096549 
L 131.000511 293.271479 
L 131.16292 293.569943 
L 131.487737 293.183952 
L 131.650145 292.242108 
L 131.812554 292.223504 
L 131.974962 290.357101 
L 132.137371 292.760662 
L 132.299779 291.452202 
L 132.462187 291.726164 
L 132.624596 291.532773 
L 132.787004 292.399171 
L 132.949413 293.93122 
L 133.111821 293.931824 
L 133.436638 293.376679 
L 133.599047 293.206871 
L 133.761455 292.319268 
L 133.923864 292.870159 
L 134.248681 294.436178 
L 134.411089 294.101781 
L 134.573498 293.188724 
L 134.735906 293.779513 
L 134.898315 293.409037 
L 135.223132 294.371593 
L 135.710357 293.711009 
L 135.872765 293.202482 
L 136.035174 293.568775 
L 136.359991 291.89899 
L 136.522399 294.056757 
L 136.684808 293.747899 
L 136.847216 293.6887 
L 137.009625 292.522163 
L 137.172033 293.307883 
L 137.334442 292.732813 
L 137.659259 294.399402 
L 137.984076 293.440404 
L 138.146484 294.239728 
L 138.308893 294.371921 
L 138.471301 294.2565 
L 138.63371 293.401664 
L 138.958527 293.875134 
L 139.120935 294.008644 
L 139.283343 290.432709 
L 139.60816 293.802941 
L 139.770569 293.244613 
L 139.932977 290.082605 
L 140.095386 292.290689 
L 140.257794 290.328143 
L 140.420203 286.557523 
L 140.582611 292.916445 
L 140.907428 293.765286 
L 141.394654 292.372825 
L 141.557062 293.390685 
L 141.719471 292.639992 
L 141.881879 292.418841 
L 142.044288 292.402726 
L 142.531513 290.423116 
L 142.693922 293.101223 
L 142.85633 293.131271 
L 143.018738 290.493372 
L 143.181147 291.195608 
L 143.343555 286.807177 
L 143.505964 286.343293 
L 143.668372 286.515576 
L 143.830781 288.795004 
L 143.993189 288.52996 
L 144.155598 292.012242 
L 144.480415 287.055777 
L 144.642823 290.808206 
L 144.805232 291.292091 
L 144.96764 290.550255 
L 145.130049 292.703795 
L 145.454866 291.969207 
L 145.617274 292.43801 
L 145.779683 292.375697 
L 145.942091 292.479655 
L 146.1045 292.215556 
L 146.266908 292.895576 
L 146.429316 293.095379 
L 146.591725 290.148403 
L 146.754133 290.680205 
L 147.07895 288.801694 
L 147.241359 286.951477 
L 147.403767 290.765442 
L 147.566176 290.912838 
L 147.728584 289.90265 
L 147.890993 290.808036 
L 148.21581 285.766408 
L 148.378218 286.091825 
L 148.540627 286.74665 
L 148.865444 290.545528 
L 149.027852 290.322472 
L 149.190261 285.933257 
L 149.352669 286.844603 
L 149.515078 284.344553 
L 149.677486 287.389188 
L 149.839894 286.04502 
L 150.002303 287.024167 
L 150.164711 283.94606 
L 150.32712 286.378429 
L 150.489528 286.201025 
L 150.651937 285.292804 
L 150.976754 280.778406 
L 151.139162 282.641347 
L 151.301571 286.537564 
L 151.463979 287.440505 
L 151.788796 281.951926 
L 152.113613 288.523177 
L 152.276022 287.956841 
L 152.43843 290.325246 
L 152.600839 290.387329 
L 152.763247 290.693454 
L 153.088064 286.948719 
L 153.412881 292.430215 
L 153.575289 291.917032 
L 153.900106 292.398539 
L 154.224923 291.478796 
L 154.387332 292.42323 
L 154.54974 289.995995 
L 154.712149 290.052554 
L 154.874557 292.282798 
L 155.036966 291.915138 
L 155.199374 292.225621 
L 155.524191 291.284616 
L 155.6866 290.995084 
L 155.849008 292.436744 
L 156.011417 292.488761 
L 156.336234 290.245692 
L 156.498642 290.587869 
L 156.823459 283.580555 
L 156.985867 282.314501 
L 157.310684 283.719818 
L 157.473093 287.24992 
L 157.635501 287.842182 
L 157.79791 287.784039 
L 157.960318 287.953239 
L 158.122727 286.518998 
L 158.447544 289.129298 
L 158.609952 284.842334 
L 158.772361 286.646693 
L 158.934769 286.946227 
L 159.097178 284.13392 
L 159.259586 284.0895 
L 159.421995 287.27819 
L 159.584403 288.087197 
L 159.746812 287.270367 
L 159.90922 287.126315 
L 160.071629 285.913394 
L 160.234037 291.537252 
L 160.558854 292.331579 
L 160.721262 290.305668 
L 160.883671 292.805899 
L 161.046079 293.349075 
L 161.370896 289.211746 
L 161.533305 287.709444 
L 161.695713 288.299856 
L 161.858122 286.0792 
L 162.02053 286.614343 
L 162.182939 290.667639 
L 162.345347 288.948793 
L 162.507756 288.579669 
L 162.670164 288.586265 
L 162.832573 286.047344 
L 162.994981 291.255203 
L 163.482207 292.753826 
L 163.644615 292.687333 
L 163.969432 292.15448 
L 164.456657 293.365328 
L 164.619066 292.792967 
L 164.943883 294.013899 
L 165.106291 293.052851 
L 165.2687 293.513906 
L 165.431108 292.842729 
L 165.755925 293.412463 
L 165.918334 293.268289 
L 166.080742 293.494981 
L 166.405559 291.043726 
L 166.567968 293.144213 
L 166.730376 293.202707 
L 167.055193 294.388838 
L 167.217602 293.598154 
L 167.38001 290.973276 
L 167.542418 290.176889 
L 167.704827 292.716864 
L 167.867235 292.931154 
L 168.029644 293.562412 
L 168.192052 292.087347 
L 168.354461 293.029207 
L 168.516869 292.812961 
L 168.841686 294.159866 
L 169.166503 293.49289 
L 169.49132 292.904828 
L 169.653729 293.173151 
L 169.816137 292.553081 
L 169.978546 292.777385 
L 170.303363 287.58836 
L 170.465771 292.87857 
L 170.62818 290.231281 
L 170.952996 293.92875 
L 171.115405 293.056511 
L 171.277813 292.848439 
L 171.440222 294.271375 
L 171.60263 294.454989 
L 171.765039 293.839059 
L 171.927447 293.855117 
L 172.252264 293.050606 
L 172.577081 290.489455 
L 172.73949 293.435664 
L 172.901898 293.549251 
L 173.064307 293.069545 
L 173.226715 293.109046 
L 173.389124 290.453124 
L 173.551532 290.452694 
L 173.713941 291.519164 
L 173.876349 291.500914 
L 174.038758 290.059311 
L 174.201166 292.152339 
L 174.363575 291.695753 
L 174.525983 289.307533 
L 174.688391 289.049549 
L 175.013208 292.434367 
L 175.175617 292.361968 
L 175.338025 288.955356 
L 175.500434 290.951211 
L 175.662842 289.786861 
L 175.825251 290.224134 
L 175.987659 293.780408 
L 176.312476 292.814431 
L 176.637293 291.769061 
L 176.799702 292.434197 
L 176.96211 288.251934 
L 177.124519 292.962181 
L 177.449336 288.044489 
L 177.611744 286.720364 
L 177.774153 292.540621 
L 178.098969 293.162983 
L 178.261378 291.996053 
L 178.423786 293.795979 
L 178.586195 291.549826 
L 178.748603 291.876651 
L 179.07342 295.333632 
L 179.235829 294.315081 
L 179.398237 294.903512 
L 179.560646 294.555593 
L 179.723054 294.677013 
L 179.885463 293.086589 
L 180.047871 294.717354 
L 180.21028 293.162452 
L 180.372688 292.726727 
L 180.535097 293.668789 
L 180.859914 287.360086 
L 181.022322 289.33738 
L 181.347139 284.841667 
L 181.509548 289.973971 
L 181.671956 289.960086 
L 182.159181 286.739809 
L 182.32159 291.534298 
L 182.483998 290.9014 
L 182.646407 293.145935 
L 182.808815 293.549988 
L 182.971224 293.39571 
L 183.133632 293.396041 
L 183.458449 293.497855 
L 183.620858 293.423827 
L 183.783266 293.62333 
L 183.945675 292.854243 
L 184.108083 289.462178 
L 184.270492 291.53536 
L 184.4329 291.923517 
L 184.757717 294.224793 
L 184.920126 292.995235 
L 185.082534 293.65948 
L 185.244942 293.535693 
L 185.732168 292.546651 
L 185.894576 292.71058 
L 186.219393 291.422538 
L 186.54421 293.203724 
L 186.706619 292.424628 
L 186.869027 293.0682 
L 187.031436 293.049312 
L 187.193844 294.040844 
L 187.356253 292.940805 
L 187.518661 293.866763 
L 187.68107 294.144958 
L 187.843478 293.957384 
L 188.005887 293.995739 
L 188.168295 293.548873 
L 188.493112 293.505054 
L 188.817929 291.545625 
L 188.980337 292.785994 
L 189.142746 292.664047 
L 189.467563 290.618177 
L 189.629971 292.484313 
L 189.79238 292.519226 
L 189.954788 286.599442 
L 190.117197 291.976641 
L 190.279605 287.177261 
L 190.442014 287.621756 
L 190.766831 291.387841 
L 191.091648 287.528179 
L 191.254056 289.227802 
L 191.416465 289.171997 
L 191.741282 293.16413 
L 191.90369 292.801158 
L 192.066099 292.889858 
L 192.390915 292.276838 
L 192.553324 292.014618 
L 192.715732 290.719382 
L 192.878141 290.43274 
L 193.202958 291.830786 
L 193.527775 291.115184 
L 193.852592 289.591586 
L 194.015 289.667952 
L 194.177409 293.875271 
L 194.339817 293.947519 
L 194.664634 292.124386 
L 194.827043 293.674033 
L 194.989451 290.977055 
L 195.15186 292.566068 
L 195.314268 291.672174 
L 195.639085 293.013212 
L 195.801493 291.509414 
L 195.963902 291.713102 
L 196.12631 292.906406 
L 196.288719 292.386882 
L 196.613536 293.277585 
L 196.775944 292.873589 
L 196.938353 293.485079 
L 197.26317 293.215081 
L 197.425578 293.609452 
L 197.587987 293.453367 
L 197.750395 293.471057 
L 197.912804 290.686953 
L 198.075212 289.816514 
L 198.237621 292.991411 
L 198.400029 293.64544 
L 198.562438 293.600534 
L 198.887255 293.338785 
L 199.049663 293.368504 
L 199.212071 293.278546 
L 199.37448 293.02061 
L 199.861705 291.316832 
L 200.024114 293.669597 
L 200.186522 293.114902 
L 200.348931 293.119741 
L 200.511339 293.644713 
L 200.673748 293.589134 
L 200.998565 292.283561 
L 201.160973 293.984569 
L 201.323382 294.288502 
L 201.648199 293.800062 
L 201.810607 294.710668 
L 202.297833 294.305759 
L 202.62265 293.421823 
L 202.785058 293.574671 
L 202.947466 293.07776 
L 203.109875 293.061865 
L 203.272283 292.788197 
L 203.5971 293.561994 
L 203.759509 293.560015 
L 203.921917 293.712319 
L 204.084326 291.51933 
L 204.409143 293.327333 
L 204.571551 293.128897 
L 204.73396 292.100168 
L 204.896368 293.595753 
L 205.058777 293.490632 
L 205.221185 293.712378 
L 205.383594 292.97441 
L 205.546002 291.125157 
L 205.708411 290.889006 
L 205.870819 290.892308 
L 206.033228 290.026416 
L 206.195636 288.334262 
L 206.358044 289.483282 
L 206.682861 286.64056 
L 207.007678 281.262294 
L 207.170087 287.521524 
L 207.494904 288.941125 
L 207.657312 291.574451 
L 207.819721 290.094216 
L 207.982129 290.815675 
L 208.144538 291.020607 
L 208.306946 286.735972 
L 208.469355 286.130489 
L 208.631763 287.25166 
L 208.794172 285.495032 
L 208.95658 289.623713 
L 209.118989 289.469496 
L 209.281397 289.674682 
L 209.443806 289.693975 
L 209.768622 283.165738 
L 209.931031 283.803607 
L 210.255848 282.967402 
L 210.418256 287.237907 
L 210.743073 284.237281 
L 211.06789 288.743738 
L 211.230299 286.717233 
L 211.392707 287.603289 
L 211.879933 291.858508 
L 212.042341 291.116028 
L 212.20475 291.104228 
L 212.367158 291.587727 
L 212.529567 293.009361 
L 212.691975 292.661057 
L 212.854384 291.997344 
L 213.016792 292.302433 
L 213.179201 292.258817 
L 213.504017 291.170676 
L 213.666426 289.469206 
L 213.828834 291.488585 
L 213.991243 292.112579 
L 214.153651 292.230165 
L 214.31606 291.59426 
L 214.478468 291.428814 
L 214.803285 292.404504 
L 214.965694 292.576602 
L 215.290511 291.124096 
L 215.452919 292.821899 
L 215.615328 292.935309 
L 215.777736 292.420421 
L 215.940145 293.067039 
L 216.102553 292.358114 
L 216.264962 289.595754 
L 216.42737 290.836887 
L 216.589779 288.074268 
L 216.752187 287.850074 
L 216.914595 288.46884 
L 217.077004 286.626199 
L 217.401821 290.646074 
L 217.564229 292.173215 
L 217.726638 292.511116 
L 217.889046 293.754928 
L 218.051455 293.022691 
L 218.213863 293.945847 
L 218.376272 292.189597 
L 218.701089 294.851035 
L 218.863497 292.21018 
L 219.025906 292.299529 
L 219.350723 293.440634 
L 219.67554 288.912699 
L 219.837948 291.535465 
L 220.000357 291.843447 
L 220.162765 294.579836 
L 220.325173 293.86273 
L 220.64999 294.246009 
L 220.974807 292.189876 
L 221.137216 292.308131 
L 221.299624 289.662538 
L 221.624441 293.921187 
L 221.78685 293.505161 
L 221.949258 292.497844 
L 222.111667 290.169853 
L 222.274075 285.406516 
L 222.436484 288.169077 
L 222.598892 284.154897 
L 222.761301 284.635954 
L 222.923709 284.094801 
L 223.086118 289.597003 
L 223.410935 292.28848 
L 223.573343 292.295145 
L 223.735752 292.105057 
L 223.89816 290.972348 
L 224.060568 291.234092 
L 224.222977 290.771303 
L 224.385385 290.805863 
L 224.547794 290.67288 
L 225.035019 292.502796 
L 225.197428 291.046581 
L 225.359836 291.617189 
L 225.522245 291.328945 
L 225.684653 291.98461 
L 226.00947 290.506547 
L 226.334287 290.950989 
L 226.496696 291.884303 
L 226.659104 291.694196 
L 226.821513 292.526963 
L 226.983921 292.665264 
L 227.14633 291.498922 
L 227.308738 291.154626 
L 227.633555 288.478165 
L 227.795963 288.066076 
L 227.958372 287.100299 
L 228.283189 289.042589 
L 228.445597 289.897389 
L 228.608006 291.577861 
L 228.770414 291.852393 
L 229.25764 287.947706 
L 229.420048 290.989082 
L 229.582457 287.426255 
L 229.744865 287.312923 
L 229.907274 291.074743 
L 230.069682 287.27013 
L 230.232091 286.546213 
L 230.556908 288.913935 
L 230.719316 288.66509 
L 230.881724 291.143686 
L 231.044133 286.985257 
L 231.206541 286.660146 
L 231.36895 287.320949 
L 231.531358 291.069844 
L 231.693767 291.107578 
L 231.856175 291.351199 
L 232.018584 291.363443 
L 232.180992 291.609099 
L 232.343401 289.954606 
L 232.505809 291.112641 
L 232.668218 290.886613 
L 232.830626 288.906886 
L 233.155443 291.153308 
L 233.317852 291.160093 
L 233.48026 292.097731 
L 233.642669 291.312107 
L 233.967486 291.529109 
L 234.129894 290.674145 
L 234.292303 292.195818 
L 234.454711 288.617377 
L 234.617119 291.02349 
L 234.779528 290.65313 
L 234.941936 290.667228 
L 235.104345 287.303547 
L 235.266753 289.547354 
L 235.429162 287.490019 
L 235.753979 291.330258 
L 235.916387 285.607353 
L 236.078796 288.608018 
L 236.241204 286.916388 
L 236.566021 291.163171 
L 236.72843 292.541697 
L 236.890838 292.795745 
L 237.053247 292.767838 
L 237.215655 291.95415 
L 237.378064 292.571431 
L 237.702881 292.273937 
L 237.865289 292.580323 
L 238.027697 291.215298 
L 238.352514 292.18835 
L 238.677331 293.243394 
L 238.83974 293.765401 
L 239.002148 293.183906 
L 239.164557 293.105328 
L 239.326965 291.47235 
L 239.489374 287.871166 
L 239.651782 290.922671 
L 239.976599 286.145963 
L 240.301416 289.684021 
L 240.463825 289.477999 
L 240.626233 292.499924 
L 240.788642 292.761057 
L 240.95105 292.631532 
L 241.438276 293.356752 
L 241.600684 293.081721 
L 241.763092 293.445383 
L 241.925501 293.427864 
L 242.087909 292.804207 
L 242.412726 294.057093 
L 242.575135 293.239654 
L 242.737543 294.060094 
L 242.899952 293.769685 
L 243.06236 294.603403 
L 243.224769 294.409267 
L 243.387177 294.526918 
L 243.549586 293.14105 
L 243.711994 293.822118 
L 244.19922 292.91629 
L 244.361628 292.980156 
L 244.524037 291.711131 
L 244.686445 293.113829 
L 245.011262 293.272237 
L 245.17367 293.510088 
L 245.336079 292.551297 
L 245.498487 292.739384 
L 245.660896 292.255073 
L 245.823304 293.096533 
L 245.985713 293.036169 
L 246.148121 292.404946 
L 246.472938 292.783326 
L 246.635347 292.337963 
L 246.797755 289.877677 
L 246.960164 289.352993 
L 247.122572 292.051839 
L 247.447389 290.868684 
L 247.609798 292.361268 
L 247.934615 292.811674 
L 248.097023 290.95023 
L 248.259432 290.546691 
L 248.584248 291.196398 
L 248.746657 290.988821 
L 248.909065 290.522455 
L 249.071474 293.305897 
L 249.233882 293.644314 
L 249.396291 293.669425 
L 249.558699 293.550974 
L 249.721108 292.99783 
L 250.208333 293.53934 
L 250.370742 293.563662 
L 250.695559 293.316179 
L 250.857967 292.029264 
L 251.020376 292.91658 
L 251.182784 292.86473 
L 251.345193 292.492096 
L 251.67001 292.808545 
L 251.832418 292.767184 
L 252.157235 291.962459 
L 252.319643 291.569135 
L 252.482052 292.410392 
L 252.64446 292.484731 
L 252.969277 290.741135 
L 253.131686 292.314904 
L 253.294094 291.211152 
L 253.456503 287.646447 
L 253.618911 287.424533 
L 253.78132 290.929016 
L 253.943728 291.732813 
L 254.106137 291.600937 
L 254.268545 290.413725 
L 254.430954 290.511436 
L 254.593362 289.849366 
L 254.918179 291.468068 
L 255.080588 291.629206 
L 255.242996 291.530502 
L 255.405405 291.605756 
L 255.567813 291.40078 
L 255.730221 290.547406 
L 255.89263 290.514987 
L 256.217447 287.768855 
L 256.542264 289.438873 
L 256.704672 288.967491 
L 256.867081 288.974586 
L 257.191898 290.065122 
L 257.354306 289.282988 
L 257.516715 290.126132 
L 257.679123 291.947566 
L 257.841532 289.55074 
L 258.166349 291.057785 
L 258.328757 291.409035 
L 258.491166 288.664654 
L 258.653574 293.385687 
L 258.815983 292.151337 
L 258.978391 292.276522 
L 259.303208 290.272864 
L 259.465616 289.878886 
L 259.628025 290.788453 
L 259.790433 290.414279 
L 259.952842 288.802437 
L 260.11525 289.114624 
L 260.440067 290.5867 
L 260.764884 289.011027 
L 260.927293 289.807917 
L 261.089701 289.020895 
L 261.25211 287.22428 
L 261.576927 289.401829 
L 261.739335 289.839627 
L 262.064152 289.7584 
L 262.226561 288.632943 
L 262.388969 289.134229 
L 262.551378 290.758148 
L 262.713786 290.813574 
L 262.876194 290.441882 
L 263.201011 290.383269 
L 263.36342 290.594157 
L 263.525828 289.99467 
L 263.688237 289.929719 
L 263.850645 289.405089 
L 264.013054 293.039984 
L 264.175462 293.7166 
L 264.337871 293.33734 
L 264.500279 293.896747 
L 264.662688 291.982657 
L 264.825096 293.642048 
L 264.987505 293.782052 
L 265.47473 292.917918 
L 265.637139 293.935886 
L 266.124364 292.803047 
L 266.286772 292.097482 
L 266.449181 292.797099 
L 266.936406 291.799201 
L 267.098815 292.338371 
L 267.261223 293.413959 
L 267.423632 293.156519 
L 267.58604 293.174666 
L 267.748449 292.901559 
L 267.910857 292.876986 
L 268.560491 294.518545 
L 268.7229 294.504246 
L 268.885308 292.593998 
L 269.047717 293.891773 
L 269.210125 293.775459 
L 269.372534 293.965974 
L 269.534942 293.540439 
L 269.859759 293.848887 
L 270.022167 292.877164 
L 270.184576 293.986006 
L 270.346984 293.888925 
L 270.509393 293.598839 
L 270.671801 293.041934 
L 270.83421 292.92131 
L 270.996618 293.603605 
L 271.159027 293.280031 
L 271.321435 292.671199 
L 271.646252 293.10991 
L 271.808661 292.919115 
L 271.971069 291.441308 
L 272.295886 292.983659 
L 272.458295 292.582163 
L 272.620703 293.857052 
L 272.783112 293.883209 
L 272.94552 293.596024 
L 273.107929 293.926132 
L 273.270337 293.819093 
L 273.432745 294.033222 
L 273.757562 293.946252 
L 273.919971 293.273261 
L 274.082379 294.111547 
L 274.244788 294.204123 
L 274.407196 293.511103 
L 274.732013 293.772883 
L 274.894422 292.354465 
L 275.05683 291.91399 
L 275.219239 293.230394 
L 275.381647 292.648103 
L 275.544056 293.597057 
L 275.706464 293.80431 
L 276.031281 294.685608 
L 276.356098 295.300424 
L 276.518507 295.404333 
L 276.680915 295.024555 
L 276.843323 294.989788 
L 277.16814 294.445835 
L 277.330549 294.853296 
L 277.655366 293.546849 
L 277.980183 294.462792 
L 278.142591 294.364732 
L 278.305 293.716009 
L 278.467408 294.457867 
L 278.792225 293.221312 
L 278.954634 292.645901 
L 279.117042 292.905511 
L 279.279451 291.792964 
L 279.441859 293.076262 
L 279.604268 292.851833 
L 279.929085 291.784785 
L 280.091493 291.815583 
L 280.41631 291.60873 
L 280.578718 291.591877 
L 280.741127 291.223359 
L 280.903535 291.2188 
L 281.228352 292.053516 
L 281.553169 291.553964 
L 281.715578 291.196555 
L 281.877986 291.286844 
L 282.040395 292.244379 
L 282.202803 291.612557 
L 282.365212 292.433557 
L 282.52762 291.125456 
L 282.690029 286.306402 
L 282.852437 286.509391 
L 283.014846 285.650322 
L 283.177254 291.550475 
L 283.339663 290.860683 
L 283.502071 293.22763 
L 283.66448 293.441566 
L 283.826888 294.763932 
L 284.151705 293.442954 
L 284.314113 294.247426 
L 284.63893 292.859568 
L 284.963747 294.411402 
L 285.126156 293.204228 
L 285.288564 294.763385 
L 285.450973 293.049253 
L 285.613381 293.316835 
L 285.77579 289.942391 
L 285.938198 293.600834 
L 286.100607 294.441606 
L 286.425424 294.102097 
L 286.587832 294.312997 
L 286.912649 293.327324 
L 287.075058 290.635829 
L 287.237466 290.491956 
L 287.399874 289.493427 
L 287.724691 293.699763 
L 287.8871 293.586451 
L 288.049508 293.719854 
L 288.211917 294.044259 
L 288.374325 293.002041 
L 288.536734 292.838149 
L 288.699142 293.159758 
L 288.861551 292.425401 
L 289.023959 293.211672 
L 289.186368 292.454682 
L 289.348776 293.642312 
L 289.673593 292.540986 
L 289.836002 294.571409 
L 290.160819 293.97919 
L 290.485636 294.052512 
L 290.648044 293.139395 
L 290.810452 293.638824 
L 290.972861 293.325108 
L 291.135269 292.220116 
L 291.297678 292.242916 
L 291.460086 290.882965 
L 291.622495 291.561372 
L 291.947312 291.525034 
L 292.10972 291.836388 
L 292.272129 293.044248 
L 292.434537 290.775358 
L 292.596946 292.244377 
L 292.759354 292.657064 
L 292.921763 292.518447 
L 293.084171 291.524494 
L 293.24658 292.32675 
L 294.058622 288.699937 
L 294.221031 289.847981 
L 294.383439 290.091553 
L 294.545847 289.975025 
L 294.708256 290.810757 
L 294.870664 292.347426 
L 295.033073 292.061707 
L 295.195481 291.254151 
L 295.35789 286.629238 
L 295.520298 291.905569 
L 295.682707 291.732172 
L 295.845115 293.941152 
L 296.007524 293.495887 
L 296.169932 292.335294 
L 296.332341 292.568969 
L 296.494749 290.915761 
L 296.657158 292.835507 
L 296.819566 293.059937 
L 296.981975 294.780738 
L 297.144383 294.613544 
L 297.4692 294.966051 
L 297.631609 294.865135 
L 297.956425 294.176202 
L 298.118834 294.648596 
L 298.281242 294.506387 
L 298.443651 294.752011 
L 298.606059 294.466659 
L 298.930876 292.41736 
L 299.093285 294.003449 
L 299.255693 293.576086 
L 299.418102 293.838877 
L 299.58051 293.441415 
L 299.742919 293.8033 
L 299.905327 294.745655 
L 300.067736 294.420869 
L 300.230144 294.675577 
L 300.392553 294.211963 
L 300.554961 294.713289 
L 300.71737 294.741766 
L 301.042187 294.214298 
L 301.204595 294.402607 
L 301.367004 294.000921 
L 301.529412 289.376722 
L 301.69182 289.682436 
L 301.854229 293.419146 
L 302.016637 292.990775 
L 302.179046 293.253916 
L 302.666271 292.758837 
L 302.82868 292.770979 
L 302.991088 291.821859 
L 303.153497 291.574775 
L 303.315905 292.363607 
L 303.478314 290.507092 
L 303.640722 290.423399 
L 303.803131 291.175042 
L 304.127948 293.505373 
L 304.452765 292.738926 
L 304.777582 293.166812 
L 305.102398 289.506461 
L 305.427215 293.398914 
L 305.589624 293.220664 
L 305.752032 293.419819 
L 305.914441 293.01671 
L 306.076849 293.026401 
L 306.239258 293.237621 
L 306.564075 294.475158 
L 306.726483 293.629654 
L 306.888892 291.576278 
L 307.0513 293.868675 
L 307.213709 291.655263 
L 307.538526 293.005681 
L 307.700934 293.167256 
L 308.025751 295.30495 
L 308.350568 295.072079 
L 308.512976 293.060269 
L 308.675385 292.670324 
L 309.000202 294.332396 
L 309.16261 292.751914 
L 309.325019 294.362669 
L 309.649836 294.004859 
L 309.812244 294.630589 
L 309.974653 293.682514 
L 310.137061 291.129381 
L 310.29947 286.699524 
L 310.461878 290.878614 
L 310.786695 289.028798 
L 310.949104 289.82009 
L 311.111512 292.285781 
L 311.273921 291.983732 
L 311.436329 293.672402 
L 311.923555 291.42385 
L 312.085963 291.060421 
L 312.41078 291.734591 
L 312.735597 292.414219 
L 312.898005 292.340387 
L 313.060414 290.732604 
L 313.222822 290.620276 
L 313.547639 291.668316 
L 313.710048 292.51657 
L 313.872456 292.441483 
L 314.034865 293.105661 
L 314.359682 290.796116 
L 314.684499 293.739436 
L 314.846907 294.678646 
L 315.009316 294.312317 
L 315.171724 294.641138 
L 315.496541 294.38399 
L 315.658949 292.968194 
L 315.821358 293.835252 
L 316.146175 289.432717 
L 316.308583 290.723674 
L 316.470992 287.572851 
L 316.795809 290.229491 
L 316.958217 291.062772 
L 317.120626 290.859631 
L 317.283034 293.03113 
L 317.445443 293.039073 
L 317.607851 292.595336 
L 317.77026 292.52432 
L 317.932668 291.322609 
L 318.257485 293.353007 
L 318.744711 291.629991 
L 318.907119 291.800454 
L 319.069527 291.433424 
L 319.231936 292.172703 
L 319.394344 291.632463 
L 319.556753 289.718669 
L 319.719161 290.642446 
L 319.88157 286.577323 
L 320.043978 286.022356 
L 320.368795 280.387094 
L 321.018429 291.262206 
L 321.180838 290.998394 
L 321.343246 291.615026 
L 321.505655 292.879912 
L 321.668063 290.850438 
L 321.830472 292.410876 
L 321.99288 288.208264 
L 322.155289 289.237434 
L 322.317697 291.972615 
L 322.480106 292.685726 
L 322.642514 291.431722 
L 322.804922 292.553464 
L 323.129739 292.674223 
L 323.292148 292.573259 
L 323.779373 284.552357 
L 323.941782 290.30709 
L 324.10419 290.920735 
L 324.266599 287.487837 
L 324.591416 291.998604 
L 324.753824 291.668022 
L 324.916233 293.022515 
L 325.078641 292.161385 
L 325.24105 290.209137 
L 325.403458 290.302943 
L 325.565867 292.37051 
L 325.728275 292.941235 
L 325.890684 292.923381 
L 326.053092 293.100574 
L 326.2155 291.97212 
L 326.377909 292.803231 
L 326.540317 292.545828 
L 326.702726 291.389762 
L 326.865134 291.759019 
L 327.027543 293.334166 
L 327.189951 292.61985 
L 327.35236 290.236894 
L 327.514768 291.811657 
L 327.677177 290.263567 
L 328.164402 292.181954 
L 328.326811 292.465198 
L 328.651628 290.622874 
L 328.976445 294.128476 
L 329.138853 293.767695 
L 329.301262 293.862161 
L 329.46367 292.779558 
L 329.788487 293.963887 
L 329.950895 293.914045 
L 330.113304 293.223154 
L 330.275712 294.72527 
L 330.438121 292.957714 
L 330.600529 294.386125 
L 330.762938 294.742354 
L 330.925346 294.196868 
L 331.087755 294.661434 
L 331.250163 294.477552 
L 331.412572 293.937267 
L 331.737389 291.122427 
L 331.899797 291.203067 
L 332.224614 288.256988 
L 332.387023 291.388633 
L 332.549431 291.840189 
L 332.71184 293.07293 
L 332.874248 291.938555 
L 333.036657 293.24137 
L 333.199065 292.683605 
L 333.361473 292.762591 
L 333.523882 292.633205 
L 333.68629 293.082087 
L 333.848699 290.947733 
L 334.011107 292.44099 
L 334.173516 290.420537 
L 334.498333 293.333767 
L 334.660741 293.13271 
L 334.82315 293.13075 
L 334.985558 293.760107 
L 335.147967 293.933289 
L 335.472784 294.783695 
L 335.635192 294.244731 
L 335.797601 294.194661 
L 335.960009 293.924988 
L 336.122418 294.155313 
L 336.284826 294.128252 
L 336.447235 293.467306 
L 336.772051 294.03377 
L 336.93446 293.878373 
L 337.096868 294.073858 
L 337.259277 293.538883 
L 337.421685 292.028882 
L 337.584094 294.270684 
L 337.746502 293.759268 
L 337.908911 294.260958 
L 338.071319 292.635705 
L 338.233728 293.162129 
L 338.396136 292.901357 
L 338.720953 293.568897 
L 338.883362 295.194636 
L 339.208179 294.930175 
L 339.370587 293.733472 
L 339.532996 293.981083 
L 339.695404 294.440496 
L 339.857813 294.43795 
L 340.020221 293.553797 
L 340.182629 294.502185 
L 340.345038 294.742151 
L 340.507446 294.522623 
L 340.669855 292.121535 
L 340.994672 294.370788 
L 341.15708 293.545127 
L 341.319489 293.479258 
L 341.481897 294.842104 
L 341.644306 295.170624 
L 342.131531 294.253996 
L 342.618757 294.852427 
L 342.781165 294.692079 
L 343.105982 295.031629 
L 343.430799 293.537617 
L 343.593208 293.837229 
L 343.755616 295.441918 
L 344.080433 295.293749 
L 344.242841 295.488 
L 344.40525 295.369692 
L 344.892475 294.271013 
L 345.217292 293.761033 
L 345.379701 292.694413 
L 345.542109 293.523343 
L 345.704518 293.016969 
L 345.866926 292.88154 
L 346.191743 293.779403 
L 346.51656 289.40414 
L 346.678969 292.212795 
L 346.841377 292.061664 
L 347.003786 291.669852 
L 347.166194 293.235908 
L 347.328602 291.436554 
L 347.491011 292.623008 
L 347.653419 292.733296 
L 347.815828 292.348949 
L 347.978236 292.911577 
L 348.303053 292.645983 
L 348.465462 292.694234 
L 348.790279 290.414973 
L 348.952687 290.699719 
L 349.115096 289.492 
L 349.277504 291.579301 
L 349.439913 291.268133 
L 349.76473 288.003959 
L 349.927138 290.105257 
L 350.089547 289.989512 
L 350.251955 290.237586 
L 350.414364 288.825909 
L 350.576772 290.600935 
L 350.73918 289.672627 
L 350.901589 289.816604 
L 351.063997 290.442275 
L 351.226406 290.548831 
L 351.388814 290.218815 
L 351.713631 291.153035 
L 352.038448 290.735408 
L 352.200857 290.589969 
L 352.363265 290.695519 
L 352.688082 290.466104 
L 352.850491 292.131954 
L 353.012899 291.350597 
L 353.175308 291.739278 
L 353.337716 291.245 
L 353.500125 291.382893 
L 353.824942 290.674249 
L 354.149759 293.183935 
L 354.474575 292.651245 
L 354.636984 292.976616 
L 354.799392 292.736634 
L 355.124209 293.351025 
L 355.286618 291.643499 
L 355.449026 292.029451 
L 355.611435 291.244976 
L 355.936252 288.260335 
L 356.09866 291.80297 
L 356.585886 293.186364 
L 356.748294 292.161983 
L 357.23552 292.67245 
L 357.397928 290.412461 
L 357.560337 292.629911 
L 357.722745 292.70248 
L 357.885153 289.817067 
L 358.047562 291.560639 
L 358.20997 288.820291 
L 358.372379 289.398688 
L 358.534787 288.381085 
L 359.022013 292.855832 
L 359.184421 291.871348 
L 359.34683 292.843069 
L 359.509238 293.041383 
L 359.671647 292.956399 
L 359.834055 290.819508 
L 359.996464 290.55759 
L 360.321281 291.80993 
L 360.483689 291.12832 
L 360.646098 292.602351 
L 360.808506 292.209423 
L 360.970915 291.082898 
L 361.133323 291.520032 
L 361.45814 286.546011 
L 361.620548 288.088204 
L 361.782957 290.835458 
L 361.945365 286.931728 
L 362.107774 286.404124 
L 362.270182 291.119988 
L 362.594999 292.837116 
L 362.757408 292.211525 
L 363.082225 291.886325 
L 363.244633 291.070593 
L 363.56945 292.062615 
L 363.894267 291.898163 
L 364.219084 292.267354 
L 364.543901 291.096152 
L 364.70631 290.578468 
L 365.031126 291.608229 
L 365.355943 290.632212 
L 365.518352 289.443254 
L 365.68076 289.262581 
L 365.843169 286.300733 
L 366.005577 285.700144 
L 366.167986 280.27903 
L 366.330394 282.130058 
L 366.492803 281.053878 
L 366.655211 287.825388 
L 366.81762 288.265599 
L 366.980028 286.757805 
L 367.142437 287.027453 
L 367.629662 285.576221 
L 367.792071 288.599619 
L 367.954479 282.096354 
L 368.116888 281.751109 
L 368.279296 285.347772 
L 368.441704 285.313667 
L 368.604113 284.687607 
L 369.091338 286.577298 
L 369.416155 285.431311 
L 369.578564 286.623152 
L 369.740972 286.9208 
L 370.065789 290.541907 
L 370.228198 290.61728 
L 370.390606 289.385449 
L 370.715423 290.683557 
L 370.877832 290.813734 
L 371.202649 289.775472 
L 371.365057 290.829017 
L 371.527466 290.653062 
L 371.689874 289.650319 
L 372.014691 292.282309 
L 372.177099 291.891809 
L 372.339508 292.003974 
L 372.664325 291.983317 
L 372.989142 290.747103 
L 373.313959 290.613095 
L 373.476367 290.103239 
L 373.638776 288.180659 
L 373.801184 289.688356 
L 373.963593 289.970714 
L 374.126001 289.192275 
L 374.613227 291.367572 
L 374.775635 291.402829 
L 374.938044 291.053135 
L 375.262861 291.757272 
L 375.587677 289.144757 
L 375.912494 292.880212 
L 376.074903 292.342448 
L 376.237311 291.322041 
L 376.39972 291.741496 
L 376.562128 290.807325 
L 376.724537 292.274808 
L 376.886945 290.152648 
L 377.049354 293.014369 
L 377.211762 292.274031 
L 377.374171 293.578545 
L 378.023805 290.429164 
L 378.186213 290.331908 
L 378.348622 291.817715 
L 378.51103 289.95843 
L 378.835847 292.802502 
L 378.998255 292.606908 
L 379.160664 293.04481 
L 379.647889 291.020377 
L 379.810298 288.290916 
L 379.972706 288.846968 
L 380.135115 290.129846 
L 380.459932 289.388737 
L 380.784749 286.133564 
L 380.947157 289.7502 
L 381.109566 290.076162 
L 381.271974 290.905977 
L 381.434383 291.036677 
L 381.596791 291.7404 
L 381.7592 290.721348 
L 381.921608 291.429816 
L 382.084017 289.190882 
L 382.408834 288.622091 
L 382.571242 283.729647 
L 382.73365 283.382931 
L 382.896059 287.491874 
L 383.220876 284.072122 
L 383.545693 290.931067 
L 383.708101 290.638132 
L 383.87051 290.717301 
L 384.032918 291.57171 
L 384.195327 291.571497 
L 384.357735 290.550476 
L 384.520144 290.488952 
L 384.682552 291.252672 
L 384.844961 291.176412 
L 385.007369 289.716227 
L 385.169778 291.464038 
L 385.332186 291.456066 
L 385.494595 291.920918 
L 385.819412 291.894831 
L 386.144228 289.945516 
L 386.631454 292.17048 
L 386.793862 290.181282 
L 386.956271 290.799512 
L 387.118679 292.433184 
L 387.281088 292.626933 
L 387.605905 291.411925 
L 387.768313 290.142565 
L 387.930722 291.239847 
L 388.09313 291.099765 
L 388.417947 286.894484 
L 388.580356 288.10472 
L 388.742764 287.60413 
L 388.905173 288.471358 
L 389.067581 287.228259 
L 389.22999 286.89308 
L 389.392398 284.117783 
L 389.554806 288.208637 
L 389.717215 289.414738 
L 389.879623 289.626168 
L 390.042032 288.341016 
L 390.20444 288.658805 
L 390.691666 287.119717 
L 390.854074 287.642994 
L 391.178891 290.384652 
L 391.3413 290.263365 
L 391.666117 291.104044 
L 391.828525 291.885444 
L 392.153342 291.493248 
L 392.315751 290.447289 
L 392.478159 291.901959 
L 392.640568 291.543296 
L 392.802976 291.914136 
L 392.965385 290.711917 
L 393.290201 291.562048 
L 393.45261 289.68967 
L 393.615018 292.014418 
L 393.777427 291.041669 
L 393.939835 292.505935 
L 394.102244 291.663404 
L 394.264652 292.31801 
L 394.427061 291.825212 
L 394.589469 292.478952 
L 394.751878 292.027138 
L 394.914286 292.202571 
L 395.076695 292.948954 
L 395.239103 292.654728 
L 395.401512 292.837858 
L 395.56392 292.342426 
L 395.888737 292.455595 
L 396.375963 293.512306 
L 396.538371 293.393213 
L 396.863188 293.733705 
L 397.025596 293.377307 
L 397.188005 292.34634 
L 397.350413 292.541105 
L 397.512822 293.099469 
L 397.67523 293.015755 
L 397.837639 293.449086 
L 398.000047 292.329015 
L 398.162456 292.693682 
L 398.324864 292.174284 
L 398.487273 292.215283 
L 398.487273 292.215283 
" style="fill:none;stroke:#1f77b4;stroke-linecap:round;stroke-width:1.5;"/>
   </g>
   <g id="patch_3">
    <path d="M 57.6 307.584 
L 57.6 41.472 
" style="fill:none;stroke:#cccccc;stroke-linecap:square;stroke-linejoin:miter;"/>
   </g>
   <g id="patch_4">
    <path d="M 414.72 307.584 
L 414.72 41.472 
" style="fill:none;stroke:#cccccc;stroke-linecap:square;stroke-linejoin:miter;"/>
   </g>
   <g id="patch_5">
    <path d="M 57.6 307.584 
L 414.72 307.584 
" style="fill:none;stroke:#cccccc;stroke-linecap:square;stroke-linejoin:miter;"/>
   </g>
   <g id="patch_6">
    <path d="M 57.6 41.472 
L 414.72 41.472 
" style="fill:none;stroke:#cccccc;stroke-linecap:square;stroke-linejoin:miter;"/>
   </g>
  </g>
 </g>
 <defs>
  <clipPath id="p920362ab30">
   <rect height="266.112" width="357.12" x="57.6" y="41.472"/>
  </clipPath>
 </defs>
</svg>
